<?xml version="1.0" encoding="UTF-8" standalone="no"?>
<!DOCTYPE svg PUBLIC "-//W3C//DTD SVG 1.1//EN" "http://www.w3.org/Graphics/SVG/1.1/DTD/svg11.dtd">
<svg width="100%" height="100%" viewBox="0 0 4000 3000" version="1.1" xmlns="http://www.w3.org/2000/svg" xmlns:xlink="http://www.w3.org/1999/xlink" xml:space="preserve" xmlns:serif="http://www.serif.com/" style="fill-rule:evenodd;clip-rule:evenodd;stroke-linejoin:round;stroke-miterlimit:2;">
    <g id="fish.png" transform="matrix(3.317383,0,0,3.317383,310,757)">
        <path id="fin" d="M537.426,106.889C537.426,106.889 290.042,122.829 280.944,93.749C279.082,87.796 308.11,23.919 304.595,31.837C300.6,40.836 301.946,53.926 312.405,27.056C313.046,25.411 311.614,37.102 313.928,34.993C317.756,31.505 331.646,-2.446 330.719,1.682C322.83,36.802 343.034,0.042 343.034,0.042C340.656,18.022 343.358,18.756 350.603,5.829C348.553,20.009 353.033,19.245 362.492,4.884C361.873,21.213 364.811,23.71 371.595,8.591C371.607,28.103 378.114,25.968 387.647,13.747C383.907,28.556 391.82,31.253 395.453,17.217C392.615,34.241 397.488,29.603 400.676,18.911C397.879,31.226 407.163,32.14 409.636,21.402C406.583,30.931 414.315,33.458 417.363,23.946C413.982,38.66 424.004,40.008 427.133,26.393C427.42,38.227 430.601,38.579 436.177,29.431C431.391,46.195 442.233,48.035 446.546,32.927C446.521,45.401 450.043,47.271 457.725,36.71C454.382,46.514 466.987,50.89 470.361,40.997C467.691,49.724 480.169,54.089 482.871,45.254C481.111,53.776 493.486,57.386 495.177,48.943C492.595,56.607 504.967,60.562 507.446,53.204C506.016,58.795 512.967,61.01 514.347,55.618C512.79,61.542 522.629,64.342 524.027,59.023C525.899,65.203 528.716,65.583 532.194,61.916C534.123,66.378 532.739,109.962 537.426,106.889Z" style="fill:rgb(255,77,0);"/>
        <path id="main-body" serif:id="main body" d="M844.621,201.672C843.59,201.863 836.45,202.455 832.484,203.452C822.76,205.895 787.009,216.038 786.274,216.333C786.076,216.647 785.879,216.661 785.681,216.975C783.587,217.046 775.63,218.643 773.443,221.262C759.188,227.885 758.871,227.017 744.563,233.639C742.343,234.667 726.424,242.205 725.447,243.125C723.84,243.584 717.056,246.81 713.596,248.695C712.658,249.207 707.664,251.691 705.804,252.786C698.282,252.842 695.921,257.733 695.719,257.964L693.768,258.985C690.481,261.278 690.339,260.923 686.784,262.88C680.826,262.572 676.25,266.613 657.773,277.951C632.769,293.293 632.578,293.035 630.728,294.789C629.488,295.964 629.654,295.979 628.431,297.166C609.743,307.568 565.727,328.459 562.468,329.443C561.478,329.791 560.488,330.14 559.498,330.489C535.008,337.318 535.223,337.786 510.438,343.281C496.079,346.464 475.52,350.195 474.49,350.36C470.643,350.976 456.029,352.972 454.426,353.217C449.088,354.037 434.416,354.444 421.505,354.722C420.229,354.749 420.269,354.691 405.549,354.932L404.527,354.929C394.581,354.844 394.663,354.69 386.501,354.944C384.504,354.939 382.507,354.933 380.511,354.927L377.446,354.912C359.608,354.463 359.709,354.431 355.504,354.377C344.963,354.244 299.275,350.279 292.505,349.256C291.48,349.101 291.577,349.371 290.505,349.504C281.488,347.702 281.442,348.364 272.47,346.66C270.676,346.319 270.318,347.659 270.199,347.714C268.277,345.895 267.929,345.622 255.507,344.353C254.168,344.083 252.829,343.814 251.49,343.544C251.248,343.492 251.253,343.5 243.512,342.385C242.095,341.966 242.185,341.925 240.682,342.009C240.537,341.968 240.616,341.652 240.472,341.611C240.234,341.543 240.247,341.565 237.44,340.997L233.5,340.501C229.982,339.59 217.49,337.77 206.423,334.956L203.498,334.506C200.539,333.58 200.577,333.757 197.508,333.41C196.506,333.102 195.505,332.795 194.504,332.488C189.74,331.149 185.319,330.516 184.511,330.4C183.509,330.093 182.508,329.786 181.507,329.479C180.939,329.317 169.158,326.611 168.561,326.334C166.141,325.211 152.698,322.229 150.516,321.411C149.516,321.093 148.516,320.775 147.515,320.456C146.139,320.114 136.828,317.799 130.517,315.422C129.518,315.095 128.519,314.769 127.52,314.443C126.497,313.999 126.439,314.416 114.323,309.961C111.509,308.927 111.446,309.304 108.603,308.241C103.595,306.369 98.322,304.129 96.627,304.192C95.914,304.218 96.461,302.915 88.439,300.655C77.275,297.51 27.66,274.032 19.549,268.409C18.899,268.056 18.25,267.702 17.6,267.349C16.956,267.108 17.123,266.962 10.323,262.772C4.307,259.064 1.807,256.57 1.807,256.57C1.807,256.57 20.923,256.786 33.442,256.179C39.065,255.906 44.27,256.411 48.442,254.106C70.737,250.319 73.152,255.996 110.768,231.918C112.439,230.848 157.382,195.716 157.227,195.191C145.98,157.064 221.225,136.886 252.602,113.489C314.743,67.152 854.621,134.71 887.576,182.96C887.576,182.96 845.466,199.864 844.621,201.672Z" style="fill:rgb(255,77,0);"/>
        <g id="dark-details" serif:id="dark details">
            <path d="M319.065,28.348C320.694,23.708 331.099,0.879 330.993,1.206C330.905,1.476 330.818,1.745 330.731,2.014C307.298,74.485 306.576,108.591 343.151,-0.482C343.151,-0.482 339.528,19.054 333.661,39.079C311.467,114.829 339.204,38.219 350.808,5.852C348.143,14.694 347.11,23.055 345.133,29.786C320.25,114.513 341.111,52.164 362.416,4.649C362.752,5.222 346.257,49.625 342.314,64.141C341.3,67.876 343.042,70.386 346.545,69.809C351.253,69.034 371.472,8.526 371.472,8.526C371.998,19.712 366.15,33.629 361.68,48.177C359.263,56.044 354.532,69.732 358.59,70.657C362.941,71.649 375.466,47.152 383.288,26.579C383.954,24.828 387.461,14.363 387.461,14.363C387.461,14.363 387.859,22.535 381.588,38.533C380.689,40.827 371.306,64.3 370.759,65.614C369.09,69.623 368.154,71.616 372.51,71.729C374.099,71.77 373.102,70.813 380.217,53.411C391.058,26.897 390.533,28.05 395.285,17.301C393.508,31.235 377.313,72.542 381.493,72.392C383.958,72.304 383.101,71.022 393.485,45.493C395.962,39.405 400.116,22.408 400.025,21.5C399.981,21.057 400.231,19.246 400.231,19.246C401.056,19.548 399.621,42.513 387.774,70.595C386.515,73.58 392.176,74.183 393.039,71.259C400.145,47.183 409.713,21.134 409.713,21.134C403.719,46.881 396.071,64.959 397.288,71.757C399.031,81.502 403.811,67.096 417.508,23.213C399.023,86.473 407.341,94.156 427.182,26.253C412.687,90.193 414.657,93.794 436.145,29.071C432.741,50.936 421.029,71.016 426.579,76.184C428.075,77.577 432.028,77.375 432.724,77.23C435.36,76.68 433.891,65.768 446.546,32.344C436.437,76.224 433.089,110.794 457.968,35.94C456.005,42.612 455.423,51.006 453.381,57.703C449.407,70.741 444.004,80.307 445.357,80.837C457.492,85.591 453.209,78.058 470.711,39.956C467.162,49.597 465.961,59.223 463.517,65.926C460.492,74.227 459.467,77.192 459.749,80.785C459.932,83.106 463.863,83.473 464.823,83.735C468.575,84.759 474.278,71.285 483.31,43.929C474.642,73.536 471.577,87.201 475.132,87.057C476.247,87.012 476.109,87.238 477.399,86.998C484.419,85.693 490.639,58.273 495.527,47.784C489.551,73.163 485.524,90.064 489.818,91.237C492.935,92.089 492.903,93.679 495.811,88.184C499.079,82.009 502.141,65.68 507.878,51.685C495.895,100.76 496.518,107.179 514.789,53.869C500.992,108.102 511.856,106.484 524.408,57.148C513.948,105.446 517.783,105.176 532.533,60.338C523.232,105.729 527.989,105.078 542.787,61.823C552.345,33.883 582.717,28.27 588.289,24.909C597.24,19.511 602.09,17.902 602.09,17.902C602.09,17.902 592.872,23.766 589.272,28.641C589.164,28.786 589.042,28.883 588.963,28.979C586.68,31.739 585.154,33.297 586.17,33.447C587.186,33.596 595.062,29.877 595.062,29.877C595.062,29.877 592.807,31.684 591.355,32.865C590.56,33.511 588.533,35.308 587.393,36.65C585.938,38.366 585.08,39.765 585.498,39.975C585.916,40.186 588.828,38.585 590.504,37.916C592.371,37.17 596.7,35.502 596.7,35.502C596.7,35.502 591.84,38.228 589.689,40.988C587.981,43.178 586.639,45.469 587.705,45.408C588.771,45.346 593.213,42.2 596.083,40.619C596.075,41.01 588.795,47.102 589.246,47.887C589.698,48.673 598.791,45.334 598.791,45.334C588.605,52.491 587.916,55.046 597.189,52.776C588.737,57.43 589.899,59.092 598.198,58.618C598.198,58.618 594.08,65.516 598.462,63.325C599.938,62.587 603.835,60.209 603.835,60.209C603.835,60.209 600.625,64.441 600.552,64.529C596.973,68.82 600.02,67.768 600.885,67.257C601.331,66.994 609.085,61.423 609.085,61.423C609.085,61.423 605.901,65.627 603.822,68.249C599.646,73.512 607.577,68.194 610.101,66.747C609.339,67.575 609.203,69.073 609.046,69.703C607.414,76.256 615.156,72.272 617.489,69.868C610.9,78.356 620.721,72.926 625.454,67.394C617.327,78.846 626.022,76.038 631.688,67.838C622.107,95.883 642.437,99.954 647.285,83.138C647.285,83.138 648.979,92.489 651.64,93.119C665.72,96.454 683.24,92.526 683.24,92.526C683.24,92.526 672.989,100.051 677.521,103.342C681.605,106.308 706.606,100.686 706.606,100.686C706.606,100.686 702.831,103.742 699.994,106.802C692.483,114.902 725.383,109.88 725.383,109.88C725.383,109.88 722.725,116.377 727.567,117.05C751.864,120.429 755.486,117.752 755.486,117.752C754.087,118.438 742.008,126.839 759.802,127.004C766.403,127.065 779.032,124.499 779.032,124.499C764.71,139.484 804.631,138.861 804.631,138.861C795.338,148.237 821.685,147.648 825.466,145.658C818.557,153.566 845.396,161.428 852.465,157.925C860.774,153.807 892.052,102.071 919.822,83.984C942.606,69.144 941.828,68.228 943.819,66.974C964.784,53.774 964.816,53.869 966.611,52.682C972.15,49.022 997.297,38.356 1002.976,35.177C1005.883,33.551 1017.191,27.042 1023.999,27.5C1023.999,27.5 987.666,61.138 980.855,72.721C952.334,121.227 968.161,130.694 929.474,171.475C922.084,179.266 909.552,185.765 909.552,185.765C909.552,185.765 926.212,204.335 930.328,216.562C932.696,223.598 938.902,226.083 940.308,256.509C940.924,269.844 943.817,286.091 956.229,312.638C969.564,341.16 994.333,358.5 994.333,358.5C994.333,358.5 992.728,358.461 963.552,348.344C955.991,345.723 898.599,317.933 867.022,259.769C845.135,219.452 844.077,201.599 844.077,201.599C844.077,201.599 843.994,201.629 844.582,201.275C861.196,191.287 887.576,182.96 887.576,182.96C887.576,182.96 848.947,173.431 835.89,171.722C824.527,170.235 816.526,185.446 793.435,198.047C770.106,210.778 744.192,219.753 744.192,219.753C744.192,219.753 767.642,207.245 779.684,196.808C793.066,185.209 808.369,171.701 813.328,166.366C816.413,163.047 805.24,163.132 804.487,163.138C799.62,163.175 786.315,172.612 783.806,174.845C775.514,182.228 758.213,196.738 753.26,200.158C736.573,211.676 692.444,230.319 692.444,230.319C692.444,230.319 706.876,220.83 717.714,214.882C732.999,206.493 763.524,177.532 779.123,161.185C781.352,158.849 776.716,157.629 771.562,158.813C755.896,162.411 739.542,176.021 737.116,178.04C718.268,193.725 681.157,215.071 663.613,224.709C647.48,233.573 606.08,245.385 587.972,246.457C586.833,246.524 625.642,229.198 641.613,220.947C654.471,214.305 699.887,185.483 704.346,181.335C719.624,167.123 734.313,157.711 739.175,150.328C741.436,146.895 723.96,144.715 716.793,151.862C694.095,174.498 655.698,199.338 627.748,211.978C578.535,234.234 537.07,250.883 537.07,250.883C537.07,250.883 554.637,240.446 561.198,236.037C566.739,232.314 566.738,232.416 567.238,232.13C607.044,209.368 647.582,191.142 662.199,181.067C699.731,155.198 709.355,140.225 704.533,140.307C689.306,140.565 595.902,206.981 529.291,236.003C527.452,236.804 494.302,248.254 494.302,248.254C494.302,248.254 654.245,157.836 673.332,133.41C674.762,131.58 664.975,129.411 658.459,130.186C638.741,132.531 615.065,164.109 578.75,182.996C563.763,190.79 559.729,195.081 551.467,199.439C536.665,207.247 514.785,219.931 492.619,227.818C456.138,240.799 426.539,246.988 426.539,246.988C426.539,246.988 455.748,234.926 457.22,234.221C514.691,206.657 623.594,130.411 628.389,124.444C629.388,123.201 627.635,120.861 608.588,126.785C594.79,131.077 559.866,157.555 519.68,181.872C476.683,207.89 456.803,221.108 427.43,226.26C405.999,230.019 387.311,235.278 387.311,235.278C387.311,235.278 428.166,219.649 447.086,208.634C471.605,194.359 497.192,174.531 512.742,164.743C522.732,158.455 561.186,127.495 565.8,119.915C572.624,108.703 530.202,139.975 481.762,168.996C448.351,189.013 453.012,186.053 447.771,188.536C408.413,207.188 408.052,206.772 384.441,212.31C383.158,212.611 383.173,212.605 368.394,216.055C364.772,216.9 343.893,221.747 343.893,221.747C343.893,221.747 430.467,184.786 440.793,178.562C474.344,158.339 480.087,148.204 499.21,133.102C518.932,117.527 524.312,108.704 516.475,107.81C504.497,106.443 500.209,112.726 497.76,114.811C496.013,116.298 486.706,125.655 476.615,134.095C460.22,147.808 463.172,146.019 438.281,160.099C417.797,171.686 397.228,179.082 390.184,181.139C361.062,189.646 341.346,198.831 314.287,198.726C285.25,198.613 284.983,198.571 284.983,198.571C280.068,199.289 343.606,186.044 370.607,174.811C384.416,169.066 425.779,153.353 460.402,127.373C460.559,127.256 477.442,111.641 478.353,110.396C484.382,102.163 473.745,105.048 460.502,103.479C450.29,102.269 450.531,104.586 433.789,115.926C403.277,136.592 388.704,141.831 384.455,143.358C364.146,150.66 364.241,150.805 362.473,151.425C320.186,166.266 320.21,166.311 316.492,167.475C279.779,178.962 265.317,188.66 265.317,188.66C265.317,188.66 281.142,165.7 317.586,153.745C356.466,140.991 368.676,128.441 387.264,119.022C400.188,112.472 399.201,110.937 411.875,103.972C417.404,100.934 408.34,101.493 403.514,101.148C400.402,100.925 381.816,99.597 365.746,110.849C358.872,115.662 358.458,114.864 351.334,119.224C330.016,132.271 328.364,129.488 311.228,141.107C302.579,146.971 245.905,166.875 245.905,166.875C245.905,166.875 290.211,138.207 292.273,137.087C343.38,109.343 343.261,109.196 347.77,106.914C358.646,101.411 343.518,104.924 341.455,105.159C296.395,110.303 280.948,124.739 268.154,134.013C258.046,141.34 229.507,153.493 229.507,153.493C229.507,153.493 265.105,128.049 269.413,119.452C273.445,111.408 259.968,118.231 255.617,119.819C229.611,129.31 192.765,164.602 192.153,165.074C173.869,179.182 174.472,179.785 157.227,195.191C129.628,219.846 114.759,229.364 110.768,231.918C73.152,255.996 70.737,250.319 48.442,254.106C44.916,253.569 1.248,253.281 0.495,252.681C-10.076,244.254 29.183,215.782 57.536,192.541C109.64,149.831 197.43,96.327 237.534,80.594C260.987,71.394 277.963,71.817 285.55,70.802C288.379,70.424 297.254,46.992 304.735,31.318C304.819,31.479 296.685,53.203 296.157,55.365C290.341,79.14 295.135,78.447 312.492,26.44C312.492,26.44 301.794,69.889 305.512,69.584C309.622,69.247 312.297,47.623 319.065,28.348Z" style="fill:rgb(0,1,102);"/>
            <path d="M686.784,262.88C682.655,270.647 699.052,278.635 696.21,281.187C695.799,281.555 681.634,276.379 683.934,280.272C684.066,280.495 692.799,285.973 687.54,285.912C684.444,285.875 663.538,281.568 671.776,287.966C676.287,291.469 681.159,294.618 673.496,293.841C668.976,293.382 668.849,293.267 664.511,292.442C650.977,289.87 663.323,296.05 665.973,298.058C676.174,305.791 692.654,310.412 689.509,313.512C689.455,313.566 664.561,308.421 662.393,307.972C657.851,307.034 649.879,306.033 638.597,301.273C632.884,298.862 633.265,297.962 628.431,297.166C629.654,295.979 629.488,295.964 630.728,294.789C632.578,293.035 632.769,293.293 657.773,277.951C676.25,266.613 680.826,262.572 686.784,262.88Z" style="fill:rgb(0,1,102);"/>
            <path d="M220.5,230.165C220.5,230.165 248.755,223.908 256.365,222.981C279.356,220.179 283.879,223.192 283.879,223.192C249.402,226.238 262.394,235.809 275.52,235.502C262.051,239.933 254.005,244.003 269.368,246.899C269.368,246.899 255.098,250.669 242.707,255.986C237.571,258.19 227.482,262.546 227.482,262.546C227.482,262.546 233.176,255.885 232.81,244.182C232.42,231.729 220.5,230.165 220.5,230.165Z" style="fill:rgb(0,1,102);"/>
            <path d="M153.17,284.5C153.17,284.5 183.167,270.632 188.212,264.539C198.66,251.92 189.634,217.318 188.374,203.604C188.374,203.604 194.472,214.833 198.589,228.285C201.053,236.335 204.597,244.15 203.787,254.408C202.184,274.716 195.388,276.294 177.434,281.448C173.832,282.482 153.17,284.5 153.17,284.5Z" style="fill:rgb(0,1,102);"/>
            <path d="M155.041,241.5C156.145,260.487 153.349,267.94 137.423,271.154C127.528,273.151 110.848,280.146 110.848,280.146C110.848,280.146 119.237,269.792 129.216,266.57C144.448,261.65 142.704,256.045 148.917,241.536C153.016,231.962 152.68,219.515 152.68,219.515C152.68,219.515 153.937,222.513 155.041,241.5Z" style="fill:rgb(0,1,102);"/>
            <path d="M321.697,377.315C318.126,378.822 301.677,378.763 293.5,373.999C284.515,368.764 276.916,361.234 267.787,345.905C267.907,345.85 289.325,348.003 298.343,349.806C298.304,350.73 296.002,355.614 300.549,360.833C307.331,368.619 318.546,375.259 321.697,377.315Z" style="fill:rgb(0,1,102);"/>
            <path d="M740.778,235.408C743.278,242.884 751.463,247.033 757.47,249.351C748.014,250.647 732.884,245.217 725.447,243.125C726.424,242.205 731.223,236.776 740.778,235.408Z" style="fill:rgb(0,1,102);"/>
            <path d="M705.804,252.786C706.192,257.438 730.548,265.48 727.693,265.26C727.557,265.249 698.222,264.613 695.719,257.964C695.921,257.733 698.282,252.842 705.804,252.786Z" style="fill:rgb(0,1,102);"/>
            <path d="M786.284,216.373C787.599,219.351 802.301,222.992 804.632,221.527C804.351,224.483 780.729,226.47 773.443,221.262C775.63,218.643 784.19,216.443 786.284,216.373Z" style="fill:rgb(0,1,102);"/>
            <path d="M575.213,280.663C575.458,281.165 578.068,286.518 577.298,287.32C574.073,290.677 572.828,289.027 571.175,284.62C569.649,280.552 567.399,279.031 571.574,277.722C574.182,276.904 573.708,278.319 575.213,280.663Z" style="fill:rgb(0,1,102);"/>
            <path d="M595.171,271.696C592.97,267.998 592.303,268.072 592.805,266.641C594.242,262.538 602.235,271.211 600.358,273.377C597.944,276.162 597.109,274.766 595.171,271.696Z" style="fill:rgb(0,1,102);"/>
            <path d="M602.266,265.701C602.477,266.001 605.651,270.514 603.396,270.138C601.611,269.84 595.148,261.246 599.393,262.942C599.393,262.942 602.036,265.48 602.266,265.701Z" style="fill:rgb(0,1,102);"/>
        </g>
        <path id="eye" d="M69.495,230.115C50.026,228.677 63.228,205.894 76.069,215.986C78.488,217.887 83.099,228.511 69.495,230.115Z" style="fill:rgb(255,77,0);"/>
        <path id="iris" d="M69.521,225.954C59.516,225.356 63.176,217.851 68.516,217.804C76.311,217.736 77.569,224.797 69.521,225.954Z" style="fill:rgb(0,1,102);"/>
    </g>
</svg>
