<svg id="svg" version="1.1" width="4000" height="3000" xmlns="http://www.w3.org/2000/svg"><path d="M657.201 744.855 C 655.358 746.024,654.197 792.759,653.992 874.000 C 653.902 910.025,653.701 941.075,653.545 943.000 C 653.390 944.925,652.976 973.050,652.624 1005.500 C 652.273 1037.950,651.754 1077.100,651.471 1092.500 C 650.713 1133.786,648.547 1377.241,647.441 1545.500 C 647.130 1592.800,646.673 1636.000,646.426 1641.500 C 646.179 1647.000,645.748 1727.325,645.469 1820.000 C 645.189 1912.675,644.760 1991.256,644.514 1994.624 L 644.069 2000.747 653.784 2001.401 C 684.323 2003.455,708.663 2003.983,773.187 2003.991 L 844.874 2004.000 844.327 2000.627 C 843.996 1998.588,844.238 1996.971,844.938 1996.538 C 845.808 1996.000,845.790 1995.452,844.866 1994.338 C 843.904 1993.180,843.726 1974.588,844.051 1909.677 C 844.800 1760.381,843.864 1458.785,842.495 1408.500 C 842.241 1399.150,841.790 1355.950,841.493 1312.500 C 841.196 1269.050,840.746 1222.925,840.493 1210.000 C 840.239 1197.075,839.770 1150.143,839.450 1105.707 C 839.130 1061.271,838.600 1023.921,838.271 1022.707 C 837.943 1021.493,837.565 967.625,837.431 903.000 C 837.298 838.375,837.146 776.163,837.094 764.750 L 837.000 744.000 747.750 744.015 C 698.663 744.024,657.915 744.402,657.201 744.855 M1326.829 745.750 C 1326.015 746.712,1323.172 750.875,1320.513 755.000 C 1317.853 759.125,1313.725 765.053,1311.339 768.174 C 1308.952 771.295,1307.000 774.109,1307.000 774.427 C 1307.000 774.746,1303.287 779.852,1298.750 785.773 C 1294.213 791.695,1288.700 798.891,1286.500 801.765 C 1284.300 804.639,1279.899 810.255,1276.719 814.245 C 1273.540 818.235,1267.493 826.000,1263.283 831.500 C 1259.072 837.000,1255.307 841.725,1254.914 842.000 C 1254.522 842.275,1252.061 845.425,1249.445 849.000 C 1246.828 852.575,1244.397 855.725,1244.041 856.000 C 1243.685 856.275,1242.082 858.300,1240.479 860.500 C 1238.876 862.700,1236.424 865.898,1235.032 867.607 C 1230.262 873.462,1229.354 874.610,1224.414 881.049 C 1216.664 891.152,1210.767 898.612,1192.500 921.426 C 1183.150 933.104,1174.375 944.156,1173.000 945.988 C 1171.625 947.819,1168.475 951.875,1166.000 955.000 C 1163.525 958.125,1160.375 962.184,1159.000 964.020 C 1156.936 966.776,1151.498 973.607,1144.689 982.000 C 1144.019 982.825,1142.375 985.075,1141.034 987.000 C 1139.693 988.925,1138.316 990.725,1137.974 991.000 C 1136.880 991.879,1124.731 1007.922,1117.624 1017.873 C 1113.842 1023.168,1110.444 1027.725,1110.071 1028.000 C 1109.699 1028.275,1105.386 1034.125,1100.488 1041.000 C 1095.590 1047.875,1091.072 1053.950,1090.447 1054.500 C 1089.823 1055.050,1086.520 1059.325,1083.108 1064.000 C 1079.696 1068.675,1073.320 1077.225,1068.938 1083.000 C 1064.557 1088.775,1059.741 1095.221,1058.236 1097.325 C 1056.731 1099.429,1050.213 1108.320,1043.750 1117.081 C 1037.287 1125.843,1032.000 1133.270,1032.000 1133.586 C 1032.000 1133.902,1028.400 1138.868,1024.000 1144.621 C 1019.600 1150.375,1016.000 1155.332,1016.000 1155.636 C 1016.000 1155.941,1013.075 1159.980,1009.500 1164.611 C 1005.925 1169.243,1003.000 1173.268,1003.000 1173.557 C 1003.000 1173.845,999.962 1178.098,996.250 1183.007 C 992.538 1187.916,987.025 1195.337,984.000 1199.497 C 980.975 1203.658,976.138 1210.165,973.250 1213.958 C 970.362 1217.751,968.000 1221.162,968.000 1221.538 C 968.000 1221.915,966.200 1224.372,964.000 1227.000 C 961.800 1229.628,960.000 1232.103,960.000 1232.500 C 960.000 1232.897,958.200 1235.372,956.000 1238.000 C 953.800 1240.628,952.000 1243.083,952.000 1243.456 C 952.000 1243.829,950.087 1246.564,947.750 1249.533 C 945.413 1252.502,941.025 1258.337,938.000 1262.500 C 934.975 1266.663,930.587 1272.498,928.250 1275.467 C 925.913 1278.436,924.000 1281.171,924.000 1281.544 C 924.000 1281.917,922.200 1284.372,920.000 1287.000 C 917.800 1289.628,916.000 1292.103,916.000 1292.500 C 916.000 1292.897,914.200 1295.372,912.000 1298.000 C 909.800 1300.628,908.000 1303.071,908.000 1303.430 C 908.000 1303.999,903.751 1309.796,891.277 1326.249 C 889.504 1328.587,884.455 1335.496,880.057 1341.602 C 875.660 1347.708,871.372 1353.276,870.531 1353.975 C 869.689 1354.673,869.000 1355.659,869.000 1356.165 C 869.000 1356.671,867.099 1359.654,864.777 1362.793 C 862.454 1365.932,860.395 1369.175,860.201 1370.000 C 859.274 1373.943,859.178 1378.000,860.011 1378.000 C 860.520 1378.000,860.715 1378.579,860.444 1379.286 C 860.172 1379.994,862.999 1384.469,866.725 1389.231 C 870.451 1393.994,876.425 1401.756,880.000 1406.481 C 883.575 1411.206,887.512 1416.358,888.750 1417.930 C 889.987 1419.502,891.000 1421.094,891.000 1421.468 C 891.000 1421.842,893.362 1424.983,896.250 1428.448 C 899.138 1431.913,903.075 1436.855,905.000 1439.430 C 914.964 1452.756,926.513 1467.725,933.868 1476.844 C 936.820 1480.505,941.062 1486.180,943.295 1489.456 C 947.250 1495.259,971.778 1527.465,982.932 1541.500 C 985.992 1545.350,991.196 1552.074,994.497 1556.441 C 997.799 1560.809,1002.750 1567.299,1005.500 1570.863 C 1013.595 1581.354,1018.274 1587.498,1022.000 1592.528 C 1023.925 1595.127,1028.802 1601.359,1032.838 1606.377 C 1036.875 1611.395,1040.909 1616.737,1041.804 1618.250 C 1042.699 1619.762,1043.743 1621.000,1044.124 1621.000 C 1044.505 1621.000,1046.095 1623.024,1047.658 1625.498 C 1049.221 1627.972,1050.791 1629.997,1051.146 1629.998 C 1051.501 1629.999,1053.235 1632.250,1055.000 1635.000 C 1056.765 1637.750,1058.505 1640.000,1058.868 1640.000 C 1059.231 1640.000,1060.640 1641.800,1062.000 1644.000 C 1063.360 1646.200,1064.773 1648.000,1065.141 1648.000 C 1065.509 1648.000,1066.997 1650.025,1068.447 1652.500 C 1069.898 1654.975,1071.432 1657.000,1071.858 1657.000 C 1072.284 1657.000,1073.643 1658.800,1074.880 1661.000 C 1076.116 1663.200,1077.452 1665.000,1077.848 1665.000 C 1078.245 1665.000,1079.357 1666.334,1080.319 1667.964 C 1081.282 1669.594,1082.842 1671.693,1083.785 1672.630 C 1084.728 1673.566,1086.175 1675.339,1087.000 1676.570 C 1089.613 1680.469,1100.298 1694.458,1101.459 1695.500 C 1102.072 1696.050,1103.675 1698.075,1105.022 1700.000 C 1106.369 1701.925,1108.019 1704.175,1108.688 1705.000 C 1109.357 1705.825,1112.739 1710.248,1116.202 1714.828 C 1126.265 1728.136,1127.984 1730.353,1130.297 1733.000 C 1131.498 1734.375,1136.721 1741.350,1141.904 1748.500 C 1147.086 1755.650,1153.094 1763.750,1155.253 1766.500 C 1157.413 1769.250,1167.802 1782.750,1178.341 1796.500 C 1188.879 1810.250,1201.813 1826.900,1207.082 1833.500 C 1212.351 1840.100,1220.999 1851.125,1226.300 1858.000 C 1231.602 1864.875,1238.443 1873.650,1241.502 1877.500 C 1270.376 1913.831,1299.197 1951.293,1301.353 1955.295 C 1302.007 1956.508,1305.682 1960.824,1309.521 1964.886 C 1323.711 1979.904,1326.000 1982.440,1326.000 1983.141 C 1326.000 1983.535,1326.787 1984.628,1327.750 1985.569 C 1328.713 1986.511,1331.975 1990.931,1335.000 1995.391 L 1340.500 2003.500 1437.266 2003.755 L 1534.031 2004.010 1531.392 1999.829 C 1529.941 1997.530,1526.446 1992.887,1523.627 1989.511 C 1520.807 1986.136,1517.245 1981.602,1515.712 1979.437 C 1514.178 1977.272,1511.141 1973.056,1508.962 1970.069 C 1506.783 1967.083,1505.000 1964.266,1505.000 1963.810 C 1505.000 1962.814,1494.203 1946.288,1491.828 1943.648 C 1490.908 1942.626,1489.616 1940.487,1488.956 1938.895 C 1488.297 1937.303,1487.249 1936.000,1486.629 1936.000 C 1486.008 1936.000,1483.397 1933.187,1480.827 1929.750 C 1478.257 1926.312,1475.164 1922.298,1473.954 1920.829 C 1472.745 1919.361,1470.123 1915.906,1468.128 1913.153 C 1463.498 1906.764,1438.116 1873.082,1432.972 1866.500 C 1430.822 1863.750,1425.855 1857.225,1421.933 1852.000 C 1379.318 1795.228,1366.453 1778.231,1357.972 1767.497 C 1354.932 1763.648,1351.671 1759.375,1350.727 1758.000 C 1349.783 1756.625,1347.320 1753.405,1345.255 1750.844 C 1343.190 1748.283,1339.490 1743.558,1337.034 1740.344 C 1334.577 1737.130,1329.830 1731.125,1326.485 1727.000 C 1323.139 1722.875,1315.024 1712.349,1308.451 1703.610 C 1301.878 1694.870,1295.042 1685.870,1293.259 1683.610 C 1291.477 1681.349,1289.246 1678.375,1288.303 1677.000 C 1287.360 1675.625,1285.315 1672.925,1283.759 1671.000 C 1282.203 1669.075,1280.605 1667.050,1280.206 1666.500 C 1279.808 1665.950,1277.915 1663.475,1276.000 1661.000 C 1274.085 1658.525,1272.192 1656.050,1271.794 1655.500 C 1271.395 1654.950,1269.794 1652.925,1268.236 1651.000 C 1266.678 1649.075,1262.724 1643.951,1259.451 1639.614 C 1256.178 1635.276,1252.040 1629.876,1250.255 1627.614 C 1248.470 1625.351,1245.881 1621.925,1244.500 1620.000 C 1243.119 1618.075,1240.530 1614.646,1238.745 1612.380 C 1236.960 1610.114,1230.783 1602.014,1225.019 1594.380 C 1219.254 1586.746,1214.272 1580.275,1213.949 1580.000 C 1213.625 1579.725,1211.367 1576.844,1208.930 1573.599 C 1203.485 1566.345,1198.331 1559.630,1190.500 1549.584 C 1187.200 1545.351,1182.700 1539.514,1180.500 1536.613 C 1159.030 1508.302,1137.167 1479.962,1125.757 1465.654 C 1122.316 1461.338,1117.025 1454.495,1114.000 1450.445 C 1110.975 1446.396,1105.125 1438.731,1101.000 1433.412 C 1096.875 1428.094,1092.843 1422.788,1092.041 1421.621 C 1091.239 1420.454,1089.214 1417.831,1087.541 1415.792 C 1085.868 1413.753,1083.016 1410.153,1081.201 1407.792 C 1078.193 1403.878,1063.923 1385.962,1060.449 1381.739 C 1059.652 1380.770,1059.000 1379.688,1059.000 1379.334 C 1059.000 1378.980,1055.694 1374.803,1051.652 1370.051 L 1044.305 1361.412 1047.758 1357.456 C 1049.657 1355.280,1056.402 1346.575,1062.745 1338.110 C 1069.089 1329.646,1075.004 1321.965,1075.890 1321.041 C 1078.304 1318.522,1096.142 1295.390,1098.921 1291.174 C 1100.253 1289.153,1104.978 1282.935,1109.421 1277.356 C 1113.865 1271.777,1119.098 1265.027,1121.052 1262.356 C 1123.005 1259.685,1132.940 1246.925,1143.130 1234.000 C 1153.320 1221.075,1161.948 1209.825,1162.305 1209.000 C 1162.662 1208.175,1167.457 1201.875,1172.961 1195.000 C 1178.465 1188.125,1188.461 1175.300,1195.174 1166.500 C 1201.888 1157.700,1207.904 1150.050,1208.545 1149.500 C 1209.185 1148.950,1212.587 1144.727,1216.105 1140.115 C 1219.622 1135.504,1224.666 1128.979,1227.314 1125.615 C 1234.853 1116.037,1248.756 1097.685,1257.261 1086.085 C 1261.529 1080.263,1265.585 1074.825,1266.275 1074.000 C 1266.964 1073.175,1272.246 1066.261,1278.014 1058.636 C 1289.414 1043.563,1291.243 1041.170,1298.000 1032.487 C 1302.335 1026.916,1309.418 1017.257,1319.987 1002.500 C 1322.744 998.650,1327.491 992.125,1330.535 988.000 C 1333.578 983.875,1338.743 976.675,1342.012 972.000 C 1345.282 967.325,1350.403 960.125,1353.394 956.000 C 1356.385 951.875,1361.655 944.450,1365.104 939.500 C 1368.554 934.550,1371.667 930.275,1372.023 930.000 C 1372.378 929.725,1375.556 925.284,1379.084 920.131 C 1393.173 899.557,1395.926 895.662,1396.779 895.093 C 1397.268 894.767,1400.413 890.400,1403.766 885.389 C 1407.120 880.378,1410.469 875.653,1411.209 874.889 C 1411.949 874.125,1417.684 866.300,1423.955 857.500 C 1430.225 848.700,1438.088 837.783,1441.428 833.240 C 1444.768 828.697,1450.200 821.135,1453.500 816.437 C 1456.800 811.738,1460.625 806.355,1462.000 804.475 C 1463.375 802.595,1468.325 795.827,1473.000 789.434 C 1477.675 783.042,1483.750 775.042,1486.500 771.656 C 1493.315 763.267,1500.000 754.450,1503.871 748.750 L 1507.096 744.000 1417.703 744.000 C 1333.798 744.000,1328.219 744.107,1326.829 745.750 M1602.634 750.750 C 1596.167 767.935,1586.364 799.915,1583.047 814.648 C 1574.973 850.512,1564.119 930.687,1559.038 992.000 C 1553.519 1058.600,1551.536 1115.418,1552.320 1184.500 C 1553.540 1292.013,1560.196 1370.314,1576.590 1470.000 C 1587.000 1533.303,1601.822 1596.569,1620.635 1658.000 C 1624.922 1672.000,1635.683 1703.874,1637.853 1709.000 C 1638.435 1710.375,1640.111 1714.650,1641.577 1718.500 C 1643.043 1722.350,1644.837 1726.850,1645.562 1728.500 C 1646.288 1730.150,1649.204 1737.125,1652.042 1744.000 C 1665.911 1777.599,1680.090 1804.991,1703.027 1842.500 C 1713.886 1860.257,1736.218 1890.025,1751.400 1906.981 C 1775.953 1934.401,1802.854 1955.391,1830.056 1968.355 C 1860.214 1982.728,1891.021 1989.976,1950.000 1996.576 C 1959.171 1997.602,1977.180 1998.384,1999.000 1998.705 C 2031.636 1999.184,2034.769 1999.068,2056.987 1996.556 C 2079.042 1994.063,2094.095 1991.222,2121.500 1984.381 C 2152.417 1976.663,2170.556 1968.714,2195.911 1951.773 C 2203.520 1946.689,2215.696 1937.293,2219.568 1933.517 C 2220.705 1932.407,2224.755 1928.547,2228.568 1924.937 C 2236.461 1917.464,2247.609 1905.696,2253.500 1898.616 C 2255.700 1895.972,2258.400 1892.815,2259.500 1891.599 C 2260.600 1890.384,2264.077 1886.039,2267.227 1881.945 C 2270.377 1877.850,2274.522 1872.475,2276.440 1870.000 C 2280.628 1864.593,2299.367 1836.720,2304.005 1829.000 C 2322.992 1797.391,2345.728 1751.590,2360.100 1716.000 C 2365.023 1703.809,2379.580 1660.792,2386.834 1637.000 C 2387.924 1633.425,2391.771 1621.275,2395.383 1610.000 C 2398.995 1598.725,2403.987 1581.850,2406.477 1572.500 C 2412.612 1549.459,2430.003 1473.217,2436.118 1442.556 C 2445.980 1393.108,2455.444 1325.875,2460.480 1269.500 C 2461.315 1260.150,2462.226 1250.025,2462.504 1247.000 C 2466.231 1206.470,2468.107 1154.598,2468.108 1092.000 C 2468.111 1001.845,2463.935 934.527,2452.943 847.500 C 2449.385 819.327,2441.210 769.166,2436.849 748.750 L 2435.834 744.000 2340.872 744.000 L 2245.909 744.000 2246.561 747.750 C 2246.919 749.813,2248.033 755.325,2249.035 760.000 C 2255.601 790.607,2266.537 864.310,2271.442 911.000 C 2275.656 951.120,2279.226 1002.300,2280.962 1047.500 C 2281.817 1069.766,2281.547 1184.941,2280.628 1190.000 C 2280.378 1191.375,2279.872 1200.757,2279.503 1210.849 C 2279.134 1220.941,2278.683 1230.166,2278.501 1231.349 C 2278.319 1232.532,2277.873 1239.575,2277.510 1247.000 C 2277.147 1254.425,2276.683 1261.850,2276.479 1263.500 C 2276.275 1265.150,2275.836 1270.100,2275.504 1274.500 C 2274.321 1290.175,2272.812 1306.586,2270.492 1329.000 C 2269.800 1335.687,2265.939 1368.112,2265.492 1371.000 C 2265.278 1372.375,2264.394 1378.675,2263.527 1385.000 C 2255.465 1443.790,2241.554 1517.343,2231.848 1552.500 C 2226.169 1573.072,2216.481 1606.773,2211.008 1625.000 C 2209.274 1630.775,2207.272 1637.525,2206.560 1640.000 C 2202.413 1654.399,2178.060 1713.039,2160.673 1750.488 C 2153.668 1765.576,2137.356 1797.306,2134.963 1800.500 C 2134.096 1801.656,2130.365 1808.131,2128.048 1812.500 C 2127.173 1814.150,2125.058 1817.527,2123.349 1820.005 C 2121.640 1822.483,2119.237 1826.308,2118.010 1828.505 C 2115.154 1833.620,2091.233 1867.928,2085.940 1874.500 C 2081.606 1879.882,2076.581 1885.875,2071.000 1892.320 C 2065.573 1898.587,2045.008 1918.989,2039.067 1924.000 C 2036.132 1926.475,2032.952 1929.228,2031.998 1930.118 C 2031.045 1931.008,2027.617 1933.708,2024.382 1936.118 C 2021.147 1938.528,2018.050 1940.987,2017.500 1941.581 C 2015.912 1943.299,2006.733 1949.700,2002.015 1952.379 L 1997.703 1954.829 1992.601 1951.430 C 1980.624 1943.450,1976.105 1939.966,1965.603 1930.612 C 1950.582 1917.234,1937.299 1903.596,1927.429 1891.417 C 1924.718 1888.072,1920.856 1883.347,1918.847 1880.917 C 1913.748 1874.751,1888.000 1837.937,1888.000 1836.813 C 1888.000 1836.305,1886.189 1833.224,1883.976 1829.965 C 1881.763 1826.706,1879.665 1823.243,1879.314 1822.270 C 1878.962 1821.296,1877.913 1819.375,1876.983 1818.000 C 1872.012 1810.654,1851.063 1769.056,1841.981 1748.500 C 1840.766 1745.750,1838.923 1741.612,1837.886 1739.305 C 1836.849 1736.998,1836.000 1734.873,1836.000 1734.584 C 1836.000 1734.296,1834.932 1731.683,1833.626 1728.780 C 1827.190 1714.465,1813.771 1677.940,1804.500 1649.500 C 1790.328 1606.026,1780.254 1567.890,1769.102 1515.500 C 1753.969 1444.411,1742.383 1356.801,1737.031 1273.000 C 1728.082 1132.897,1734.917 990.912,1757.514 847.486 C 1759.941 832.078,1762.398 815.314,1762.974 810.232 C 1763.549 805.151,1766.015 793.180,1768.453 783.629 C 1770.891 774.079,1773.621 762.268,1774.519 757.382 C 1775.417 752.497,1776.392 747.487,1776.684 746.250 L 1777.217 744.000 1691.196 744.000 L 1605.175 744.000 1602.634 750.750 M2827.503 760.750 C 2823.792 769.962,2819.300 781.325,2817.520 786.000 C 2814.640 793.563,2812.566 798.480,2805.285 815.000 C 2804.194 817.475,2801.847 823.100,2800.069 827.500 C 2798.291 831.900,2796.261 836.850,2795.557 838.500 C 2792.024 846.786,2751.278 949.666,2739.318 980.500 C 2737.398 985.450,2732.449 998.050,2728.320 1008.500 C 2720.936 1027.186,2716.602 1038.210,2707.678 1061.000 C 2697.405 1087.234,2693.878 1096.287,2688.000 1111.500 C 2684.600 1120.300,2679.795 1132.675,2677.322 1139.000 C 2674.849 1145.325,2670.809 1155.675,2668.344 1162.000 C 2665.880 1168.325,2662.340 1177.325,2660.477 1182.000 C 2658.615 1186.675,2654.340 1197.700,2650.978 1206.500 C 2643.568 1225.894,2637.592 1241.192,2625.002 1273.000 C 2617.819 1291.147,2607.771 1316.778,2599.520 1338.000 C 2596.419 1345.975,2592.574 1355.650,2590.975 1359.500 C 2589.376 1363.350,2587.211 1368.750,2586.164 1371.500 C 2584.267 1376.485,2577.822 1392.296,2568.026 1416.000 C 2565.185 1422.875,2562.050 1430.750,2561.059 1433.500 C 2560.069 1436.250,2557.227 1443.450,2554.745 1449.500 C 2550.400 1460.091,2543.637 1477.361,2529.683 1513.500 C 2507.131 1571.905,2502.524 1583.737,2488.992 1618.000 C 2485.842 1625.975,2480.206 1640.375,2476.467 1650.000 C 2459.125 1694.640,2456.499 1701.375,2451.319 1714.500 C 2444.687 1731.303,2435.581 1754.101,2428.951 1770.500 C 2422.448 1786.587,2412.668 1811.472,2403.997 1834.000 C 2400.081 1844.175,2394.692 1858.125,2392.023 1865.000 C 2389.354 1871.875,2384.844 1883.575,2382.003 1891.000 C 2379.161 1898.425,2373.893 1911.925,2370.297 1921.000 C 2366.701 1930.075,2361.997 1942.675,2359.844 1949.000 C 2356.266 1959.515,2354.559 1963.977,2350.284 1974.000 C 2349.463 1975.925,2348.642 1978.271,2348.460 1979.213 C 2348.278 1980.155,2347.456 1982.405,2346.633 1984.213 C 2343.534 1991.021,2339.000 2002.243,2339.000 2003.105 C 2339.000 2003.625,2376.636 2004.000,2428.882 2004.000 L 2518.765 2004.000 2521.497 1995.250 C 2523.000 1990.438,2525.282 1984.025,2526.569 1981.000 C 2527.856 1977.975,2531.002 1970.100,2533.561 1963.500 C 2536.119 1956.900,2539.010 1950.150,2539.985 1948.500 C 2540.960 1946.850,2543.865 1940.100,2546.439 1933.500 C 2549.013 1926.900,2552.260 1918.800,2553.653 1915.500 C 2555.047 1912.200,2556.329 1908.825,2556.501 1908.000 C 2556.674 1907.175,2558.629 1902.225,2560.845 1897.000 C 2568.187 1879.692,2577.000 1858.174,2577.000 1857.556 C 2577.000 1857.222,2579.649 1850.547,2582.887 1842.724 C 2586.124 1834.901,2591.484 1821.750,2594.797 1813.500 C 2600.498 1799.302,2603.025 1792.868,2617.968 1754.500 C 2627.614 1729.732,2634.754 1711.718,2640.625 1697.334 C 2643.581 1690.092,2646.000 1683.893,2646.000 1683.558 C 2646.000 1683.222,2648.647 1676.547,2651.881 1668.724 C 2655.116 1660.901,2660.027 1648.875,2662.796 1642.000 C 2676.335 1608.378,2678.383 1603.250,2679.569 1600.000 C 2680.918 1596.301,2691.281 1570.552,2702.509 1543.000 C 2728.228 1479.891,2738.274 1454.668,2749.509 1425.000 C 2754.085 1412.916,2758.638 1401.021,2767.117 1379.000 C 2769.341 1373.225,2772.882 1364.225,2774.985 1359.000 C 2777.089 1353.775,2782.266 1340.725,2786.489 1330.000 C 2790.713 1319.275,2795.456 1307.350,2797.029 1303.500 C 2800.887 1294.061,2805.846 1281.593,2808.164 1275.500 C 2809.211 1272.750,2811.348 1267.350,2812.913 1263.500 C 2814.478 1259.650,2817.652 1251.775,2819.965 1246.000 C 2822.279 1240.225,2825.658 1231.900,2827.475 1227.500 C 2832.204 1216.046,2834.861 1209.477,2837.993 1201.500 C 2839.505 1197.650,2844.677 1184.825,2849.487 1173.000 C 2854.297 1161.175,2859.095 1149.250,2860.150 1146.500 C 2861.982 1141.722,2863.402 1138.215,2871.287 1119.000 C 2873.206 1114.325,2882.729 1090.475,2892.450 1066.000 C 2902.172 1041.525,2911.435 1018.350,2913.035 1014.500 C 2918.877 1000.443,2953.555 913.080,2960.468 895.000 C 2962.466 889.775,2965.183 882.800,2966.505 879.500 C 2974.468 859.621,2982.978 836.826,2994.689 804.000 C 2996.554 798.775,2998.979 792.025,3000.080 789.000 C 3001.180 785.975,3003.006 780.400,3004.137 776.612 C 3005.269 772.823,3007.767 766.073,3009.689 761.612 C 3011.610 757.150,3014.035 751.362,3015.077 748.750 L 3016.971 744.000 2925.610 744.000 L 2834.249 744.000 2827.503 760.750 M3057.125 749.745 C 3060.999 755.450,3067.684 764.265,3074.500 772.656 C 3077.250 776.042,3083.325 784.042,3088.000 790.434 C 3092.675 796.827,3097.625 803.595,3099.000 805.475 C 3100.375 807.355,3104.200 812.738,3107.500 817.437 C 3110.800 822.135,3116.232 829.697,3119.572 834.240 C 3122.912 838.783,3130.775 849.700,3137.045 858.500 C 3143.316 867.300,3149.051 875.125,3149.791 875.889 C 3150.531 876.653,3153.880 881.378,3157.234 886.389 C 3160.587 891.400,3163.732 895.767,3164.221 896.093 C 3165.074 896.662,3167.827 900.557,3181.916 921.131 C 3185.444 926.284,3188.622 930.725,3188.977 931.000 C 3189.333 931.275,3192.446 935.550,3195.896 940.500 C 3199.345 945.450,3204.615 952.875,3207.606 957.000 C 3210.597 961.125,3215.718 968.325,3218.988 973.000 C 3222.257 977.675,3227.422 984.875,3230.465 989.000 C 3233.509 993.125,3238.256 999.650,3241.013 1003.500 C 3251.582 1018.257,3258.665 1027.916,3263.000 1033.487 C 3269.757 1042.170,3271.586 1044.563,3282.986 1059.636 C 3288.754 1067.261,3294.036 1074.175,3294.725 1075.000 C 3295.415 1075.825,3299.471 1081.263,3303.739 1087.085 C 3312.244 1098.685,3326.147 1117.037,3333.686 1126.615 C 3336.334 1129.979,3341.378 1136.504,3344.895 1141.115 C 3348.413 1145.727,3351.815 1149.950,3352.455 1150.500 C 3353.096 1151.050,3359.112 1158.700,3365.826 1167.500 C 3372.539 1176.300,3382.535 1189.125,3388.039 1196.000 C 3393.543 1202.875,3398.338 1209.175,3398.695 1210.000 C 3399.052 1210.825,3407.680 1222.075,3417.870 1235.000 C 3428.060 1247.925,3437.995 1260.685,3439.948 1263.356 C 3441.902 1266.027,3447.135 1272.777,3451.579 1278.356 C 3456.022 1283.935,3460.747 1290.153,3462.079 1292.174 C 3464.858 1296.390,3482.696 1319.522,3485.110 1322.041 C 3485.996 1322.965,3491.911 1330.646,3498.255 1339.110 C 3504.598 1347.575,3511.343 1356.280,3513.242 1358.456 L 3516.695 1362.412 3509.348 1371.051 C 3505.306 1375.803,3502.000 1379.980,3502.000 1380.334 C 3502.000 1380.688,3501.348 1381.770,3500.551 1382.739 C 3497.077 1386.962,3482.807 1404.878,3479.799 1408.792 C 3477.984 1411.153,3475.132 1414.753,3473.459 1416.792 C 3471.786 1418.831,3469.761 1421.454,3468.959 1422.621 C 3468.157 1423.788,3464.125 1429.094,3460.000 1434.412 C 3455.875 1439.731,3450.025 1447.396,3447.000 1451.445 C 3443.975 1455.495,3438.684 1462.338,3435.243 1466.654 C 3423.833 1480.962,3401.970 1509.302,3380.500 1537.613 C 3378.300 1540.514,3373.800 1546.351,3370.500 1550.584 C 3362.669 1560.630,3357.515 1567.345,3352.070 1574.599 C 3349.633 1577.844,3347.375 1580.725,3347.051 1581.000 C 3346.728 1581.275,3341.746 1587.746,3335.981 1595.380 C 3330.217 1603.014,3324.040 1611.114,3322.255 1613.380 C 3320.470 1615.646,3317.881 1619.075,3316.500 1621.000 C 3315.119 1622.925,3312.530 1626.351,3310.745 1628.614 C 3308.960 1630.876,3304.822 1636.276,3301.549 1640.614 C 3298.276 1644.951,3294.322 1650.075,3292.764 1652.000 C 3291.206 1653.925,3289.605 1655.950,3289.206 1656.500 C 3288.808 1657.050,3286.915 1659.525,3285.000 1662.000 C 3283.085 1664.475,3281.192 1666.950,3280.794 1667.500 C 3280.395 1668.050,3278.797 1670.075,3277.241 1672.000 C 3275.685 1673.925,3273.640 1676.625,3272.697 1678.000 C 3271.754 1679.375,3269.523 1682.349,3267.741 1684.610 C 3265.958 1686.870,3259.122 1695.870,3252.549 1704.610 C 3245.976 1713.349,3237.861 1723.875,3234.515 1728.000 C 3231.170 1732.125,3226.423 1738.130,3223.966 1741.344 C 3221.510 1744.558,3217.810 1749.283,3215.745 1751.844 C 3213.680 1754.405,3211.217 1757.625,3210.273 1759.000 C 3209.329 1760.375,3206.068 1764.648,3203.028 1768.497 C 3194.547 1779.231,3181.682 1796.228,3139.067 1853.000 C 3135.145 1858.225,3130.178 1864.750,3128.028 1867.500 C 3122.884 1874.082,3097.502 1907.764,3092.872 1914.153 C 3090.877 1916.906,3088.255 1920.361,3087.046 1921.829 C 3085.836 1923.298,3082.743 1927.312,3080.173 1930.750 C 3077.603 1934.187,3074.992 1937.000,3074.371 1937.000 C 3073.751 1937.000,3072.703 1938.303,3072.044 1939.895 C 3071.384 1941.487,3070.092 1943.626,3069.172 1944.648 C 3066.797 1947.288,3056.000 1963.814,3056.000 1964.810 C 3056.000 1965.266,3054.217 1968.083,3052.038 1971.069 C 3049.859 1974.056,3046.822 1978.272,3045.288 1980.437 C 3043.755 1982.602,3040.193 1987.136,3037.373 1990.511 C 3034.554 1993.887,3031.059 1998.530,3029.608 2000.829 L 3026.969 2005.010 3123.734 2004.755 L 3220.500 2004.500 3226.000 1996.391 C 3229.025 1991.931,3232.287 1987.511,3233.250 1986.569 C 3234.213 1985.628,3235.000 1984.535,3235.000 1984.141 C 3235.000 1983.440,3237.289 1980.904,3251.479 1965.886 C 3255.318 1961.824,3258.993 1957.508,3259.647 1956.295 C 3261.803 1952.293,3290.624 1914.831,3319.498 1878.500 C 3322.557 1874.650,3329.398 1865.875,3334.700 1859.000 C 3340.001 1852.125,3348.649 1841.100,3353.918 1834.500 C 3359.187 1827.900,3372.121 1811.250,3382.659 1797.500 C 3393.198 1783.750,3403.587 1770.250,3405.747 1767.500 C 3407.906 1764.750,3413.914 1756.650,3419.096 1749.500 C 3424.279 1742.350,3429.502 1735.375,3430.703 1734.000 C 3433.016 1731.353,3434.735 1729.136,3444.798 1715.828 C 3448.261 1711.248,3451.643 1706.825,3452.312 1706.000 C 3452.981 1705.175,3454.631 1702.925,3455.978 1701.000 C 3457.325 1699.075,3458.928 1697.050,3459.541 1696.500 C 3460.702 1695.458,3471.387 1681.469,3474.000 1677.570 C 3474.825 1676.339,3476.272 1674.566,3477.215 1673.630 C 3478.158 1672.693,3479.718 1670.594,3480.681 1668.964 C 3481.643 1667.334,3482.755 1666.000,3483.152 1666.000 C 3483.548 1666.000,3484.884 1664.200,3486.120 1662.000 C 3487.357 1659.800,3488.716 1658.000,3489.142 1658.000 C 3489.568 1658.000,3491.102 1655.975,3492.553 1653.500 C 3494.003 1651.025,3495.491 1649.000,3495.859 1649.000 C 3496.227 1649.000,3497.640 1647.200,3499.000 1645.000 C 3500.360 1642.800,3501.769 1641.000,3502.132 1641.000 C 3502.495 1641.000,3504.235 1638.750,3506.000 1636.000 C 3507.765 1633.250,3509.499 1630.999,3509.854 1630.998 C 3510.209 1630.997,3511.779 1628.972,3513.342 1626.498 C 3514.905 1624.024,3516.495 1622.000,3516.876 1622.000 C 3517.257 1622.000,3518.301 1620.763,3519.196 1619.250 C 3520.091 1617.737,3524.125 1612.395,3528.162 1607.377 C 3532.198 1602.359,3537.075 1596.127,3539.000 1593.528 C 3542.726 1588.498,3547.405 1582.354,3555.500 1571.863 C 3558.250 1568.299,3563.201 1561.809,3566.503 1557.441 C 3569.804 1553.074,3575.008 1546.350,3578.068 1542.500 C 3589.222 1528.465,3613.750 1496.259,3617.705 1490.456 C 3619.938 1487.180,3624.180 1481.505,3627.132 1477.844 C 3634.487 1468.725,3646.036 1453.756,3656.000 1440.430 C 3657.925 1437.855,3661.863 1432.913,3664.750 1429.448 C 3667.637 1425.983,3670.000 1422.842,3670.000 1422.468 C 3670.000 1422.094,3671.012 1420.502,3672.250 1418.930 C 3673.488 1417.358,3677.425 1412.206,3681.000 1407.481 C 3684.575 1402.756,3690.549 1394.994,3694.275 1390.231 C 3698.001 1385.469,3700.828 1380.994,3700.556 1380.286 C 3700.285 1379.579,3700.480 1379.000,3700.989 1379.000 C 3701.822 1379.000,3701.726 1374.943,3700.799 1371.000 C 3700.605 1370.175,3698.546 1366.932,3696.223 1363.793 C 3693.901 1360.654,3692.000 1357.671,3692.000 1357.165 C 3692.000 1356.659,3691.311 1355.673,3690.469 1354.975 C 3689.628 1354.276,3685.340 1348.708,3680.943 1342.602 C 3676.545 1336.496,3671.496 1329.587,3669.723 1327.249 C 3657.249 1310.796,3653.000 1304.999,3653.000 1304.430 C 3653.000 1304.071,3651.200 1301.628,3649.000 1299.000 C 3646.800 1296.372,3645.000 1293.897,3645.000 1293.500 C 3645.000 1293.103,3643.200 1290.628,3641.000 1288.000 C 3638.800 1285.372,3637.000 1282.917,3637.000 1282.544 C 3637.000 1282.171,3635.088 1279.436,3632.750 1276.467 C 3630.412 1273.498,3626.025 1267.663,3623.000 1263.500 C 3619.975 1259.337,3615.588 1253.502,3613.250 1250.533 C 3610.912 1247.564,3609.000 1244.829,3609.000 1244.456 C 3609.000 1244.083,3607.200 1241.628,3605.000 1239.000 C 3602.800 1236.372,3601.000 1233.897,3601.000 1233.500 C 3601.000 1233.103,3599.200 1230.628,3597.000 1228.000 C 3594.800 1225.372,3593.000 1222.915,3593.000 1222.538 C 3593.000 1222.162,3590.637 1218.751,3587.750 1214.958 C 3584.863 1211.165,3580.025 1204.658,3577.000 1200.497 C 3573.975 1196.337,3568.463 1188.916,3564.750 1184.007 C 3561.037 1179.098,3558.000 1174.845,3558.000 1174.557 C 3558.000 1174.268,3555.075 1170.243,3551.500 1165.611 C 3547.925 1160.980,3545.000 1156.941,3545.000 1156.636 C 3545.000 1156.332,3541.400 1151.375,3537.000 1145.621 C 3532.600 1139.868,3529.000 1134.902,3529.000 1134.586 C 3529.000 1134.270,3523.713 1126.843,3517.250 1118.081 C 3510.787 1109.320,3504.269 1100.429,3502.764 1098.325 C 3501.259 1096.221,3496.443 1089.775,3492.062 1084.000 C 3487.680 1078.225,3481.304 1069.675,3477.892 1065.000 C 3474.480 1060.325,3471.177 1056.050,3470.553 1055.500 C 3469.928 1054.950,3465.410 1048.875,3460.512 1042.000 C 3455.614 1035.125,3451.301 1029.275,3450.929 1029.000 C 3450.556 1028.725,3447.158 1024.168,3443.376 1018.873 C 3436.269 1008.922,3424.120 992.879,3423.026 992.000 C 3422.684 991.725,3421.307 989.925,3419.966 988.000 C 3418.625 986.075,3416.981 983.825,3416.311 983.000 C 3409.502 974.607,3404.064 967.776,3402.000 965.020 C 3400.625 963.184,3397.475 959.125,3395.000 956.000 C 3392.525 952.875,3389.375 948.819,3388.000 946.988 C 3386.625 945.156,3377.850 934.104,3368.500 922.426 C 3350.233 899.612,3344.336 892.152,3336.586 882.049 C 3331.646 875.610,3330.738 874.462,3325.968 868.607 C 3324.576 866.898,3322.124 863.700,3320.521 861.500 C 3318.918 859.300,3317.315 857.275,3316.959 857.000 C 3316.603 856.725,3314.172 853.575,3311.555 850.000 C 3308.939 846.425,3306.478 843.275,3306.086 843.000 C 3305.693 842.725,3301.928 838.000,3297.717 832.500 C 3293.507 827.000,3287.460 819.235,3284.281 815.245 C 3281.101 811.255,3276.700 805.639,3274.500 802.765 C 3272.300 799.891,3266.787 792.695,3262.250 786.773 C 3257.713 780.852,3254.000 775.761,3254.000 775.460 C 3254.000 775.160,3252.088 772.389,3249.750 769.302 C 3247.412 766.215,3242.800 759.596,3239.500 754.595 L 3233.500 745.500 3143.698 745.245 L 3053.897 744.989 3057.125 749.745 " stroke="none" fill="black" fill-rule="evenodd"/></svg>