<svg version="1.2" xmlns="http://www.w3.org/2000/svg" viewBox="0 0 1500 474" width="1500" height="474">
	<title>New Project</title>
	<style>
		tspan { white-space:pre } 
		.s0 { fill: #c5c7fc;stroke: #6e6e6e;stroke-linecap: round;stroke-linejoin: round;stroke-width: 2.9 } 
		.s1 { fill: #b6fcba;stroke: #6e6e6e;stroke-linecap: round;stroke-linejoin: round;stroke-width: 2.9 } 
		.s2 { fill: #ffffbe;stroke: #6e6e6e;stroke-linecap: round;stroke-linejoin: round;stroke-width: 2.9 } 
		.s3 { fill: #e1e1e1;stroke: #6e6e6e;stroke-linecap: round;stroke-linejoin: round;stroke-width: 2.9 } 
		.s4 { fill: #ffaa00;stroke: #6e6e6e;stroke-linecap: round;stroke-linejoin: round;stroke-width: 2.9 } 
		.s5 { fill: #c500ff;stroke: #6e6e6e;stroke-linecap: round;stroke-linejoin: round;stroke-width: 2.9 } 
		.s6 { fill: #fcccb3;stroke: #6e6e6e;stroke-linecap: round;stroke-linejoin: round;stroke-width: 2.9 } 
		.s7 { fill: #7af5ca;stroke: #6e6e6e;stroke-linecap: round;stroke-linejoin: round;stroke-width: 2.9 } 
		.t8 { font-size: 4px;fill: #000000;font-family: "Arial" } 
		.t9 { font-size: 4px;line-height: 7px;fill: #000000;font-family: "Arial" } 
		.t10 { font-size: 4px;line-height: 3px;fill: #000000;font-family: "Arial" } 
		.t11 { font-size: 4px;line-height: 4px;fill: #000000;font-family: "Arial" } 
		.t12 { font-size: 4px;line-height: 0px;fill: #000000;font-family: "Arial" } 
	</style>
	<path id="Path 2" fill-rule="evenodd" class="s0" d="m538.1 292.3l0.6-75.4h37.4l-0.6 75.4z"/>
	<path id="Path 3" fill-rule="evenodd" class="s1" d="m575.5 292.3l0.6-43h26.8v43z"/>
	<path id="Path 4" fill-rule="evenodd" class="s1" d="m576.1 216.9h34.9v18.7h-8.1v13.7h-26.8z"/>
	<path id="Path 5" fill-rule="evenodd" class="s1" d="m611 216.9l35 0.6v31.8h-26.9v-13.7h-8.1z"/>
	<path id="Path 6" fill-rule="evenodd" class="s1" d="m646 249.3v43h-26.9v-43z"/>
	<path id="Path 7" fill-rule="evenodd" class="s2" d="m646 216.9l99.1 0.6v75.4l-99.1-0.6z"/>
	<path id="Path 8" fill-rule="evenodd" class="s3" d="m781.3 212.5v80.4h-36.2v-80.4z"/>
	<path id="Path 9" fill-rule="evenodd" class="s4" d="m874.8 274.9v18h-25v-18z"/>
	<path id="Path 10" fill-rule="evenodd" class="s0" d="m906 249.3v43.6h-31.2v-43.6z"/>
	<path id="Path 11" fill-rule="evenodd" class="s0" d="m959.6 249.3v43.6h-53.6v-43.6z"/>
	<path id="Path 12" fill-rule="evenodd" class="s0" d="m992 263v29.9h-32.4v-29.9z"/>
	<path id="Path 13" fill-rule="evenodd" class="s0" d="m1060 263v29.9h-68v-29.9z"/>
	<path id="Path 14" fill-rule="evenodd" class="s3" d="m781.3 292.9l0.6-75.4h33.6v75.4z"/>
	<path id="Path 15" fill-rule="evenodd" class="s4" d="m815.5 217.5h59.3v57.4h-25v18h-34.3z"/>
	<path id="Path 16" fill-rule="evenodd" class="s0" d="m874.8 217.5h46.1l-0.6 31.8h-45.5z"/>
	<path id="Path 17" fill-rule="evenodd" class="s0" d="m920.9 217.5h38.7v31.8h-39.3z"/>
	<path id="Path 18" fill-rule="evenodd" class="s0" d="m992 217.5v45.5h-32.4v-45.5z"/>
	<path id="Path 19" fill-rule="evenodd" class="s0" d="m1024.4 217.5v45.5h-32.4v-45.5z"/>
	<path id="Path 20" fill-rule="evenodd" class="s0" d="m1060 217.5v45.5h-35.6v-45.5z"/>
	<path id="Path 21" fill-rule="evenodd" class="s5" d="m1126.1 217.5v75.4h-66.1v-75.4z"/>
	<path id="Path 22" fill-rule="evenodd" class="s5" d="m1197.8 217.5v75.4h-71.7v-75.4z"/>
	<path id="Path 23" fill-rule="evenodd" class="s6" d="m1233.3 191.3h63v-18.7h29.9v68.6h-53v38.6h-10v-38.6h-29.9z"/>
	<path id="Path 24" fill-rule="evenodd" class="s6" d="m1384.8 172.6v68.6h-58.6v-68.6z"/>
	<path id="Path 25" fill-rule="evenodd" class="s6" d="m1384.8 172.6h38.7v19.3h58v49.3l18-0.6-0.6 46.7h-23.1v5.6h-179.5v-51.7h88.5z"/>
	<path id="Path 26" fill-rule="evenodd" class="s4" d="m1498.9 287.3v17.5h-43.6v-11.9h20.5v-5.6z"/>
	<path id="Path 27" fill-rule="evenodd" class="s3" d="m1498.9 304.8v13.1h-43.6v-13.1z"/>
	<path id="Path 28" fill-rule="evenodd" class="s3" d="m1498.9 317.9v53h-26.2v-53z"/>
	<path id="Path 29" fill-rule="evenodd" class="s6" d="m1472.7 370.9h8.1v49.2h-53v-102.2h44.9z"/>
	<path id="Path 30" fill-rule="evenodd" class="s6" d="m1427.8 317.9v61.1h-64.2v-61.1z"/>
	<path id="Path 31" fill-rule="evenodd" class="s3" d="m1363.6 317.9v56.1h-28v-56.1z"/>
	<path id="Path 32" fill-rule="evenodd" class="s4" d="m1335.6 317.9v56.1h-13.1v-56.1z"/>
	<path id="Path 33" fill-rule="evenodd" class="s3" d="m1322.5 317.9v32.4h-26.2l0.6-32.4z"/>
	<path id="Path 34" fill-rule="evenodd" class="s6" d="m1322.5 350.3v23.7h-26.2v-23.7z"/>
	<path id="Path 35" fill-rule="evenodd" class="s6" d="m1427.8 420.1v18.7h-132.8v-18.7h-31.8v-102.2h33.7l-0.6 56.1h67.3v5h64.2z"/>
	<path id="Path 36" fill-rule="evenodd" class="s6" d="m1263.2 241.2v25.6h-29.9v-25.6z"/>
	<path id="Path 37" fill-rule="evenodd" class="s6" d="m1263.2 266.8l-0.6 26.1h-29.3v-26.1z"/>
	<path id="Path 38" fill-rule="evenodd" class="s6" d="m1296.3 241.2v25.6h-23.1v-25.6z"/>
	<path id="Path 39" fill-rule="evenodd" class="s6" d="m1296.3 292.9h-33.7l0.6-13.1h10v-13h23.1z"/>
	<path id="Path 40" fill-rule="evenodd" class="s3" d="m1263.2 420.1h-34.9v15h-30.5v-63.6h29.3v20.6h15.6v-75.5h-1.9v-23.7h214.5v25h-192.1z"/>
	<path id="Path 41" fill-rule="evenodd" class="s4" d="m538.1 216.9v75.4h-67.4v-75.4z"/>
	<path id="Path 42" fill-rule="evenodd" class="s1" d="m470.7 216.9v75.4h-21.8v-36.1h-13.1l-0.6-38.7z"/>
	<path id="Path 43" fill-rule="evenodd" class="s3" d="m435.2 217.5l0.6 38.7h13.1v36.1h-12.4v-19.9h-32.5l-0.6-54.9z"/>
	<path id="Path 44" fill-rule="evenodd" class="s4" d="m403.4 217.5l0.6 54.9h32.5v19.9h-38.7v-74.8z"/>
	<path id="Path 45" fill-rule="evenodd" class="s3" d="m397.8 217.5v74.8h-30.6v-74.8z"/>
	<path id="Path 46" fill-rule="evenodd" class="s3" d="m367.2 252.4v34.9h-34.2v-34.9z"/>
	<path id="Path 47" fill-rule="evenodd" class="s1" d="m333 248v21.9h-11.9v-21.9z"/>
	<path id="Path 48" fill-rule="evenodd" class="s1" d="m367.2 252.4h-34.2v-4.4h-11.9v-41.1h14.3v-13.7h31.8z"/>
	<path id="Path 49" fill-rule="evenodd" class="s1" d="m367.2 168.3v24.9h-45.5v-24.9z"/>
	<path id="Path 50" fill-rule="evenodd" class="s1" d="m367.2 168.3h-45.5v-31.8h27.5v8.7h18z"/>
	<path id="Path 51" fill-rule="evenodd" class="s1" d="m367.2 145.2h-18v-8.7h-27.5v-26.8h45.5z"/>
	<path id="Path 52" fill-rule="evenodd" class="s3" d="m367.2 85.3v24.4h-27.4v-24.4z"/>
	<path id="Path 53" fill-rule="evenodd" class="s1" d="m367.2 56.7v28.6h-27.4v-28.6z"/>
	<path id="Path 54" fill-rule="evenodd" class="s1" d="m367.2 23v33.7h-38.6v-33.7z"/>
	<path id="Path 55" fill-rule="evenodd" class="s1" d="m328.6 23v33.7h-38v-33.7z"/>
	<path id="Path 56" fill-rule="evenodd" class="s1" d="m339.8 56.7v28.6h-49.2v-28.6z"/>
	<path id="Path 57" fill-rule="evenodd" class="s1" d="m290.6 23v56.1h-31.2v-56.1z"/>
	<path id="Path 58" fill-rule="evenodd" class="s1" d="m259.4 57.9v33.1h-38.1v-33.1z"/>
	<path id="Path 59" fill-rule="evenodd" class="s1" d="m259.4 57.9h-38.1v-17.4h-16.8v-17.5h54.9z"/>
	<path id="Path 60" fill-rule="evenodd" class="s1" d="m204.5 40.5h16.8v50.5h38.1v-11.9h31.2v6.2 64.3h-86.1z"/>
	<path id="Path 61" fill-rule="evenodd" class="s4" d="m295.5 149.6v25.5h-38v-25.5z"/>
	<path id="Path 62" fill-rule="evenodd" class="s1" d="m257.5 149.6v25.5h-38v-25.5z"/>
	<path id="Path 63" fill-rule="evenodd" class="s1" d="m219.5 149.6v25.5h-37.4v-25.5z"/>
	<path id="Path 64" fill-rule="evenodd" class="s1" d="m241.9 175.1v48.6h-35.5v-48.6z"/>
	<path id="Path 65" fill-rule="evenodd" class="s1" d="m241.9 223.7v42.4h-35.5v-42.4z"/>
	<path id="Path 66" fill-rule="evenodd" class="s1" d="m241.9 266.1v71.7h-35.5v-71.7z"/>
	<path id="Path 67" fill-rule="evenodd" class="s1" d="m243.2 337.8v43h-36.8v-43z"/>
	<path id="Path 68" fill-rule="evenodd" class="s1" d="m206.4 380.8h36.8v13.1l1.8 0.7v48h-38.6z"/>
	<path id="Path 69" fill-rule="evenodd" class="s1" d="m245 442.6v-48h12.5v-13.8h34.3v61.8z"/>
	<path id="Path 70" fill-rule="evenodd" class="s1" d="m291.8 337.8v43h-34.3v-43z"/>
	<path id="Path 71" fill-rule="evenodd" class="s1" d="m256.3 175.1v19.3h-14.4v-19.3z"/>
	<path id="Path 72" fill-rule="evenodd" class="s1" d="m291.8 175.1v91h-35.5v-91z"/>
	<path id="Path 73" fill-rule="evenodd" class="s1" d="m257.5 394.6l-14.3-0.7v-56.1h-1.3v-143.4h14.4v71.7h35.5v71.7h-34.3z"/>
	<path id="Path 74" fill-rule="evenodd" class="s4" d="m182.1 175.1h-122.2v-46.7l144.6 0.6v20.6h-22.4z"/>
	<path id="Path 75" fill-rule="evenodd" class="s3" d="m59.9 175.1h-23.7v-46.1h6.8v-105.4h16.9z"/>
	<path id="Path 76" fill-rule="evenodd" class="s7" d="m43 23.6v29.9h-43v-29.9z"/>
	<path id="Path 77" fill-rule="evenodd" class="s4" d="m0 53.5h43v75.5h-6.8v46.1h-36.2z"/>
	<path id="Path 78" fill-rule="evenodd" class="s3" d="m332.3 318.5v79.2h-40.5v-79.2z"/>
	<path id="Path 79" fill-rule="evenodd" class="s1" d="m388.4 362.8v-9.4h15.6l-0.6-34.9h33.7v44.3z"/>
	<path id="Path 80" fill-rule="evenodd" class="s1" d="m470.7 318.5v30.5h-33.6v-30.5z"/>
	<path id="Path 81" fill-rule="evenodd" class="s1" d="m470.7 349v46.2h-33.6v-46.2z"/>
	<path id="Path 82" fill-rule="evenodd" class="s1" d="m517.5 318.5v42.4h-46.8v-42.4z"/>
	<path id="Path 83" fill-rule="evenodd" class="s1" d="m517.5 360.9v34.3h-46.8v-34.3z"/>
	<path id="Path 84" fill-rule="evenodd" class="s1" d="m549.9 318.5v29.3h-32.4v-29.3z"/>
	<path id="Path 85" fill-rule="evenodd" class="s1" d="m549.9 347.8v47.4h-32.4v-47.4z"/>
	<path id="Path 86" fill-rule="evenodd" class="s1" d="m601.1 318.5v76.7h-51.2v-76.7z"/>
	<path id="Path 87" fill-rule="evenodd" class="s1" d="m632.2 318.5v29.3h-31.1v-29.3z"/>
	<path id="Path 88" fill-rule="evenodd" class="s1" d="m632.2 347.8v47.4h-31.1v-47.4z"/>
	<path id="Path 89" fill-rule="evenodd" class="s1" d="m679.6 360.9v34.3h-47.4v-34.3z"/>
	<path id="Path 90" fill-rule="evenodd" class="s1" d="m632.2 318.5l48 0.6-0.6 41.8h-47.4z"/>
	<path id="Path 91" fill-rule="evenodd" class="s1" d="m713.9 348.4v46.8h-34.3v-46.8z"/>
	<path id="Path 92" fill-rule="evenodd" class="s1" d="m713.9 348.4h-34.3l0.6-29.3h33.7z"/>
	<path id="Path 93" fill-rule="evenodd" class="s0" d="m749.5 319.1v29.3h-35.6v-29.3z"/>
	<path id="Path 94" fill-rule="evenodd" class="s0" d="m749.5 348.4v46.8h-35.6v-46.8z"/>
	<path id="Path 95" fill-rule="evenodd" class="s0" d="m816.2 319.1v29.3h-36.2v-29.3z"/>
	<path id="Path 96" fill-rule="evenodd" class="s0" d="m816.2 348.4v46.8h-36.2v-46.8z"/>
	<path id="Path 97" fill-rule="evenodd" class="s0" d="m816.2 319.1h47.4v29.9l-47.4-0.6z"/>
	<path id="Path 98" fill-rule="evenodd" class="s0" d="m863.6 349v46.2h-47.4v-46.8z"/>
	<path id="Path 99" fill-rule="evenodd" class="s0" d="m905.3 319.1v42.4h-41.7v-42.4z"/>
	<path id="Path 100" fill-rule="evenodd" class="s0" d="m905.3 361.5v33.7h-41.7v-33.7z"/>
	<path id="Path 101" fill-rule="evenodd" class="s0" d="m946.5 319.1v29.3h-41.2v-29.3z"/>
	<path id="Path 102" fill-rule="evenodd" class="s0" d="m946.5 348.4v46.8h-41.2v-46.8z"/>
	<path id="Path 103" fill-rule="evenodd" class="s0" d="m998.2 319.1v29.3h-51.7v-29.3z"/>
	<path id="Path 104" fill-rule="evenodd" class="s0" d="m978.3 348.4v46.8h-31.8v-46.8z"/>
	<path id="Path 105" fill-rule="evenodd" class="s0" d="m1025 361.5v33.7h-46.7v-33.7z"/>
	<path id="Path 106" fill-rule="evenodd" class="s0" d="m1059.3 348.4v46.8h-34.3v-46.8z"/>
	<path id="Path 107" fill-rule="evenodd" class="s0" d="m1059.3 319.1v29.3h-43.6v-29.3z"/>
	<path id="Path 108" fill-rule="evenodd" class="s0" d="m998.2 319.1h17.5v29.3h9.3v13.1h-46.7v-13.1h19.9z"/>
	<path id="Path 109" fill-rule="evenodd" class="s5" d="m1059.3 395.2v-76.1h138.5v76.7z"/>
	<path id="Path 110" fill-rule="evenodd" class="s3" d="m1233.3 292.9h7.5v23.7h-7.5l0.6 54.9h-36.1v-52.4h-9.4v-26.2h9.4v-16.2h35.5z"/>
	<path id="Path 111" fill-rule="evenodd" class="s3" d="m291.8 318.5v-143.4h3.7v-25.5h-4.9v-64.3h49.2v24.4h-18.1v83.5h13.7v13.7h-14.3v63h11.9v17.4h34.2v5l821.2 0.6v26.2h-408.4v63h-30.5v-63l-382.3-0.6-0.6 76.7-34.9-0.6 0.6-76.1z"/>
	<path id="Path 112" fill-rule="evenodd" class="s1" d="m619.1 235.6v56.7h-16.2l0.7-56.7z"/>
	<path id="Path 113" fill-rule="evenodd" class="s0" d="m780 382.1v68.6h-29.9l-0.6-68.6z"/>
	<path id="Path 114" fill-rule="evenodd" class="s1" d="m400.9 395.2h-34.3l0.6-31.2 33.7 0.6z"/>
	<path id="Path 115" fill-rule="evenodd" class="s1" d="m367.2 318.5h36.2l0.6 34.9h-15.6v9.4h-21.2z"/>
	<path id="Path 116" fill-rule="evenodd" class="s1" d="m400.9 395.2l-0.6-32.4h36.8v32.4z"/>
	<text id="2C04" style="transform: matrix(1.299,0,0,1.299,733.246,307.955)" >
		<tspan x="0" y="0" class="t8">2C04
</tspan>
	</text>
	<text id="2101" style="transform: matrix(1.299,0,0,1.299,1427.21,235.016)" >
		<tspan x="0" y="0" class="t8">2101
</tspan>
	</text>
	<text id="2110" style="transform: matrix(1.299,0,0,1.299,1339.295,408.323)" >
		<tspan x="0" y="0" class="t8">2110
</tspan>
	</text>
	<text id="2112" style="transform: matrix(1.299,0,0,1.299,1122.315,359.074)" >
		<tspan x="0" y="0" class="t8">2112
</tspan>
	</text>
	<text id="2C02" style="transform: matrix(1.299,0,0,1.299,1341.166,307.331)" >
		<tspan x="0" y="0" class="t8">2C02
</tspan>
	</text>
	<text id="2133" style="transform: matrix(1.299,0,0,1.299,689.6,256.835)" >
		<tspan x="0" y="0" class="t8">2133
</tspan>
	</text>
	<text id="2160" style="transform: matrix(1.299,0,0,1.299,241.298,122.179)" >
		<tspan x="0" y="0" class="t8">2160
</tspan>
	</text>
	<text id="2111" style="transform: matrix(1.299,0,0,1.299,1156.296,257.459)" >
		<tspan x="0" y="0" class="t8">2111
</tspan>
	</text>
	<text id="2150" style="transform: matrix(1.299,0,0,1.299,260.626,300.474)" >
		<tspan x="0" y="0" class="t8">2150
</tspan>
	</text>
	<text id="2115" style="transform: matrix(1.299,0,0,1.299,1086.775,257.459)" >
		<tspan x="0" y="0" class="t8">2115
</tspan>
	</text>
	<text id="2141" style="transform: matrix(1.299,0,0,1.299,498.183,256.835)" >
		<tspan x="0" y="0" class="t8">2141
</tspan>
	</text>
	<text id="2102" style="transform: matrix(1.299,0,0,1.299,1444.045,370.919)" >
		<tspan x="0" y="0" class="t8">2102
</tspan>
	</text>
	<text id="2160C" style="transform: matrix(1.299,0,0,1.299,112.543,153.35)" >
		<tspan x="0" y="0" class="t8">2160C
</tspan>
	</text>
	<text id="2101A" style="transform: matrix(1.299,0,0,1.299,1271.021,218.184)" >
		<tspan x="0" y="0" class="t8">2101A
</tspan>
	</text>
	<text id="2123" style="transform: matrix(1.299,0,0,1.299,839.242,253.718)" >
		<tspan x="0" y="0" class="t8">2123
</tspan>
	</text>
	<text id="2104 2140" style="transform: matrix(1.299,0,0,1.299,569.576,346.418)" >
		<tspan x="632.1" y="2.9" class="t8">2104</tspan><tspan  y="2.9" class="t9">
</tspan>
		<tspan x="0" y="9.6" class="t9">2140
</tspan>
	</text>
	<text id="2170A" style="transform: matrix(1.299,0,0,1.299,12.782,114.075)" >
		<tspan x="0" y="0" class="t9">2170A
</tspan>
	</text>
	<text id="2S02" style="transform: matrix(1.299,0,0,1.299,1209.294,324.163)" >
		<tspan x="0" y="0" class="t9">2S02
</tspan>
	</text>
	<text id="2101B" style="transform: matrix(1.299,0,0,1.299,1347.089,208.833)" >
		<tspan x="0" y="0" class="t9">2101B
</tspan>
	</text>
	<text id="2S04" style="transform: matrix(1.299,0,0,1.299,305.207,360.321)" >
		<tspan x="0" y="0" class="t9">2S04
</tspan>
	</text>
	<text id="2139" style="transform: matrix(1.299,0,0,1.299,551.181,256.835)" >
		<tspan x="0" y="0" class="t9">2139
</tspan>
	</text>
	<text id="2S03" style="transform: matrix(1.299,0,0,1.299,756.627,254.342)" >
		<tspan x="0" y="0" class="t9">2S03
</tspan>
	</text>
	<text id="2S05" style="transform: matrix(1.299,0,0,1.299,45.204,107.841)" >
		<tspan x="0" y="0" class="t9">2S05
</tspan>
	</text>
	<text id="2150J" style="transform: matrix(1.299,0,0,1.299,266.55,222.548)" >
		<tspan x="0" y="0" class="t9">2150J
</tspan>
	</text>
	<text id="2125" style="transform: matrix(1.299,0,0,1.299,792.479,257.459)" >
		<tspan x="0" y="0" class="t9">2125
</tspan>
	</text>
	<text id="2151" style="transform: matrix(1.299,0,0,1.299,337.941,226.288)" >
		<tspan x="0" y="0" class="t9">2151
</tspan>
	</text>
	<text id="2119" style="transform: matrix(1.299,0,0,1.299,926.533,273.044)" >
		<tspan x="0" y="0" class="t9">2119
</tspan>
	</text>
	<text id="2149" style="transform: matrix(1.299,0,0,1.299,376.599,256.835)" >
		<tspan x="0" y="0" class="t9">2149
</tspan>
	</text>
	<text id="2145" style="transform: matrix(1.299,0,0,1.299,413.386,253.095)" >
		<tspan x="0" y="0" class="t9">2145
</tspan>
	</text>
	<text id="2143" style="transform: matrix(1.299,0,0,1.299,447.055,252.471)" >
		<tspan x="0" y="0" class="t9">2143
</tspan>
	</text>
	<text id="2117" style="transform: matrix(1.299,0,0,1.299,1019.436,279.901)" >
		<tspan x="0" y="0" class="t9">2117
</tspan>
	</text>
	<text id="2150B" style="transform: matrix(1.299,0,0,1.299,259.691,415.181)" >
		<tspan x="0" y="0" class="t9">2150B
</tspan>
	</text>
	<text id="2134" style="transform: matrix(1.299,0,0,1.299,649.695,342.242)" >
		<tspan x="0" y="0" class="t9">2134
</tspan>
	</text>
	<text id="2150E" style="transform: matrix(1.299,0,0,1.299,216.046,303.591)" >
		<tspan x="0" y="0" class="t9">2150E
</tspan>
	</text>
	<text id="2142" style="transform: matrix(1.299,0,0,1.299,487.583,341.619)" >
		<tspan x="0" y="0" class="t9">2142
</tspan>
	</text>
	<text id="2C06" style="transform: matrix(1.299,0,0,1.299,758.186,418.298)" >
		<tspan x="0" y="0" class="t9">2C06
</tspan>
	</text>
	<text id="2150C" style="transform: matrix(1.299,0,0,1.299,217.293,413.934)" >
		<tspan x="0" y="0" class="t9">2150C
</tspan>
	</text>
	<text id="2120" style="transform: matrix(1.299,0,0,1.299,878.523,342.242)" >
		<tspan x="0" y="0" class="t9">2120
</tspan>
	</text>
	<text id="2124" style="transform: matrix(1.299,0,0,1.299,791.855,374.036)" >
		<tspan x="0" y="0" class="t9">2124
</tspan>
	</text>
	<text id="2130" style="transform: matrix(1.299,0,0,1.299,725.763,374.036)" >
		<tspan x="0" y="0" class="t9">2130
</tspan>
	</text>
	<text id="2120D" style="transform: matrix(1.299,0,0,1.299,831.448,374.036)" >
		<tspan x="0" y="0" class="t9">2120D
</tspan>
	</text>
	<text id="2148 2106" style="transform: matrix(1.299,0,0,1.299,413.719,340.184)" >
		<tspan x="0" y="2.9" class="t9">2148</tspan><tspan  y="2.9" class="t10">
</tspan>
		<tspan x="716.1" y="5.8" class="t10">2106
</tspan>
	</text>
	<text id="2120B" style="transform: matrix(1.299,0,0,1.299,917.492,374.036)" >
		<tspan x="0" y="0" class="t10">2120B
</tspan>
	</text>
	<text id="2160F" style="transform: matrix(1.299,0,0,1.299,266.861,52.981)" >
		<tspan x="0" y="0" class="t10">2160F
</tspan>
	</text>
	<text id="2159" style="transform: matrix(1.299,0,0,1.299,309.26,72.93)" >
		<tspan x="0" y="0" class="t10">2159
</tspan>
	</text>
	<text id="2157" style="transform: matrix(1.299,0,0,1.299,337.941,127.167)" >
		<tspan x="0" y="0" class="t10">2157
</tspan>
	</text>
	<text id="2S01" style="transform: matrix(1.299,0,0,1.299,1479.273,346.606)" >
		<tspan x="0" y="0" class="t10">2S01
</tspan>
	</text>
	<text id="2155" style="transform: matrix(1.299,0,0,1.299,337.941,155.843)" >
		<tspan x="0" y="0" class="t10">2155
</tspan>
	</text>
	<text id="2170" style="transform: matrix(1.299,0,0,1.299,15.588,40.513)" >
		<tspan x="0" y="0" class="t10">2170
</tspan>
	</text>
	<text id="2150G" style="transform: matrix(1.299,0,0,1.299,215.11,201.352)" >
		<tspan x="0" y="0" class="t10">2150G
</tspan>
	</text>
	<text id="2118B" style="transform: matrix(1.299,0,0,1.299,1034.4,374.036)" >
		<tspan x="0" y="0" class="t10">2118B
</tspan>
	</text>
	<text id="2117B" style="transform: matrix(1.299,0,0,1.299,1034.4,242.497)" >
		<tspan x="0" y="0" class="t10">2117B
</tspan>
	</text>
	<text id="2160E" style="transform: matrix(1.299,0,0,1.299,231.633,42.383)" >
		<tspan x="0" y="0" class="t10">2160E
</tspan>
	</text>
	<text id="2118C" style="transform: matrix(1.299,0,0,1.299,993.872,380.893)" >
		<tspan x="0" y="0" class="t10">2118C
</tspan>
	</text>
	<text id="2134B 2142C 2134C" style="transform: matrix(1.299,0,0,1.299,485.154,370.108)" >
		<tspan x="157.4" y="2.9" class="t10">2134B</tspan><tspan  y="2.9" class="t11">
</tspan>
		<tspan x="0" y="7.2" class="t11">2142C</tspan><tspan  y="7.2" class="t12">
</tspan>
		<tspan x="125" y="7.7" class="t12">2134C
</tspan>
	</text>
	<text id="2118E" style="transform: matrix(1.299,0,0,1.299,964.567,336.008)" >
		<tspan x="0" y="0" class="t12">2118E
</tspan>
	</text>
	<text id="2150D" style="transform: matrix(1.299,0,0,1.299,216.046,361.568)" >
		<tspan x="0" y="0" class="t12">2150D
</tspan>
	</text>
	<text id="2142B" style="transform: matrix(1.299,0,0,1.299,525.306,373.412)" >
		<tspan x="0" y="0" class="t12">2142B
</tspan>
	</text>
	<text id="2150F" style="transform: matrix(1.299,0,0,1.299,215.734,246.861)" >
		<tspan x="0" y="0" class="t12">2150F
</tspan>
	</text>
	<text id="2117A" style="transform: matrix(1.299,0,0,1.299,1000.107,242.497)" >
		<tspan x="0" y="0" class="t12">2117A
</tspan>
	</text>
	<text id="2118" style="transform: matrix(1.299,0,0,1.299,1000.73,347.229)" >
		<tspan x="0" y="0" class="t12">2118
</tspan>
	</text>
	<text id="2142D" style="transform: matrix(1.299,0,0,1.299,445.497,374.036)" >
		<tspan x="0" y="0" class="t12">2142D
</tspan>
	</text>
	<text id="2119B" style="transform: matrix(1.299,0,0,1.299,889.746,235.639)" >
		<tspan x="0" y="0" class="t12">2119B
</tspan>
	</text>
	<text id="2118D" style="transform: matrix(1.299,0,0,1.299,953.967,374.036)" >
		<tspan x="0" y="0" class="t12">2118D
</tspan>
	</text>
	<text id="2E02" style="transform: matrix(1.299,0,0,1.299,343.865,271.797)" >
		<tspan x="0" y="0" class="t12">2E02
</tspan>
	</text>
	<text id="2153" style="transform: matrix(1.299,0,0,1.299,337.941,182.65)" >
		<tspan x="0" y="0" class="t12">2153
</tspan>
	</text>
	<text id="2119D" style="transform: matrix(1.299,0,0,1.299,967.685,242.497)" >
		<tspan x="0" y="0" class="t12">2119D
</tspan>
	</text>
	<text id="2150A" style="transform: matrix(1.299,0,0,1.299,265.926,361.568)" >
		<tspan x="0" y="0" class="t12">2150A
</tspan>
	</text>
	<text id="2134D" style="transform: matrix(1.299,0,0,1.299,608.232,373.412)" >
		<tspan x="0" y="0" class="t12">2134D
</tspan>
	</text>
	<text id="2148C" style="transform: matrix(1.299,0,0,1.299,376.911,340.995)" >
		<tspan x="0" y="0" class="t12">2148C
</tspan>
	</text>
	<text id="2120E" style="transform: matrix(1.299,0,0,1.299,831.448,336.008)" >
		<tspan x="0" y="0" class="t12">2120E
</tspan>
	</text>
	<text id="2147" style="transform: matrix(1.299,0,0,1.299,410.892,284.265)" >
		<tspan x="0" y="0" class="t12">2147
</tspan>
	</text>
	<text id="2120C" style="transform: matrix(1.299,0,0,1.299,875.717,380.27)" >
		<tspan x="0" y="0" class="t12">2120C
</tspan>
	</text>
	<text id="2122" style="transform: matrix(1.299,0,0,1.299,791.855,336.008)" >
		<tspan x="0" y="0" class="t12">2122
</tspan>
	</text>
	<text id="2119A" style="transform: matrix(1.299,0,0,1.299,882.264,273.044)" >
		<tspan x="0" y="0" class="t12">2119A
</tspan>
	</text>
	<text id="2132" style="transform: matrix(1.299,0,0,1.299,725.763,335.384)" >
		<tspan x="0" y="0" class="t12">2132
</tspan>
	</text>
	<text id="2159B" style="transform: matrix(1.299,0,0,1.299,339.5,41.76)" >
		<tspan x="0" y="0" class="t12">2159B
</tspan>
	</text>
	<text id="2118A" style="transform: matrix(1.299,0,0,1.299,1029.412,336.008)" >
		<tspan x="0" y="0" class="t12">2118A
</tspan>
	</text>
	<text id="2159A" style="transform: matrix(1.299,0,0,1.299,301.466,41.76)" >
		<tspan x="0" y="0" class="t12">2159A
</tspan>
	</text>
	<text id="2158" style="transform: matrix(1.299,0,0,1.299,269.979,164.571)" >
		<tspan x="0" y="0" class="t12">2158
</tspan>
	</text>
	<text id="2160D" style="transform: matrix(1.299,0,0,1.299,231.633,76.671)" >
		<tspan x="0" y="0" class="t12">2160D
</tspan>
	</text>
	<text id="2119C" style="transform: matrix(1.299,0,0,1.299,932.145,235.639)" >
		<tspan x="0" y="0" class="t12">2119C
</tspan>
	</text>
	<text id="2120A" style="transform: matrix(1.299,0,0,1.299,917.492,336.008)" >
		<tspan x="0" y="0" class="t12">2120A
</tspan>
	</text>
	<text id="2135A" style="transform: matrix(1.299,0,0,1.299,580.798,273.044)" >
		<tspan x="0" y="0" class="t12">2135A
</tspan>
	</text>
	<text id="2135" style="transform: matrix(1.299,0,0,1.299,604.803,266.186)" >
		<tspan x="0" y="0" class="t12">2135
</tspan>
	</text>
	<text id="2148A" style="transform: matrix(1.299,0,0,1.299,410.58,380.893)" >
		<tspan x="0" y="0" class="t12">2148A
</tspan>
	</text>
	<text id="2135D" style="transform: matrix(1.299,0,0,1.299,624.443,273.044)" >
		<tspan x="0" y="0" class="t12">2135D
</tspan>
	</text>
	<text id="2148B" style="transform: matrix(1.299,0,0,1.299,375.664,381.517)" >
		<tspan x="0" y="0" class="t12">2148B
</tspan>
	</text>
	<text id="2E01" style="transform: matrix(1.299,0,0,1.299,1302.82,336.008)" >
		<tspan x="0" y="0" class="t12">2E01
</tspan>
	</text>
	<text id="2135B" style="transform: matrix(1.299,0,0,1.299,581.421,235.016)" >
		<tspan x="0" y="0" class="t12">2135B
</tspan>
	</text>
	<text id="2142E" style="transform: matrix(1.299,0,0,1.299,445.497,336.008)" >
		<tspan x="0" y="0" class="t12">2142E
</tspan>
	</text>
	<text id="2134A" style="transform: matrix(1.299,0,0,1.299,688.665,335.384)" >
		<tspan x="0" y="0" class="t12">2134A
</tspan>
	</text>
	<text id="2135C" style="transform: matrix(1.299,0,0,1.299,624.443,235.016)" >
		<tspan x="0" y="0" class="t12">2135C
</tspan>
	</text>
	<text id="2119E" style="transform: matrix(1.299,0,0,1.299,967.685,279.901)" >
		<tspan x="0" y="0" class="t12">2119E
</tspan>
	</text>
	<text id="2160A" style="transform: matrix(1.299,0,0,1.299,229.763,164.571)" >
		<tspan x="0" y="0" class="t12">2160A
</tspan>
	</text>
	<text id="2160B" style="transform: matrix(1.299,0,0,1.299,192.352,164.571)" >
		<tspan x="0" y="0" class="t12">2160B
</tspan>
	</text>
	<text id="2142A" style="transform: matrix(1.299,0,0,1.299,525.306,335.384)" >
		<tspan x="0" y="0" class="t12">2142A
</tspan>
	</text>
	<text id="2108" style="transform: matrix(1.299,0,0,1.299,1322.461,347.853)" >
		<tspan x="0" y="0" class="t12">2108
</tspan>
	</text>
	<text id="2134E" style="transform: matrix(1.299,0,0,1.299,608.232,335.384)" >
		<tspan x="0" y="0" class="t12">2134E
</tspan>
	</text>
	<text id="2100" style="transform: matrix(1.299,0,0,1.299,1470.856,299.227)" >
		<tspan x="0" y="0" class="t12">2100
</tspan>
	</text>
	<text id="2C05" style="transform: matrix(1.299,0,0,1.299,346.671,99.737)" >
		<tspan x="0" y="0" class="t12">2C05
</tspan>
	</text>
	<text id="2159C" style="transform: matrix(1.299,0,0,1.299,345.112,72.93)" >
		<tspan x="0" y="0" class="t12">2159C
</tspan>
	</text>
	<text id="2C01" style="transform: matrix(1.299,0,0,1.299,1470.232,313.565)" >
		<tspan x="0" y="0" class="t12">2C01
</tspan>
	</text>
	<text id="2101A3" style="transform: matrix(1.299,0,0,1.299,1238.287,281.772)" >
		<tspan x="0" y="0" class="t12">2101A3
</tspan>
	</text>
	<text id="2101A4" style="transform: matrix(1.299,0,0,1.299,1238.287,256.212)" >
		<tspan x="0" y="0" class="t12">2101A4
</tspan>
	</text>
	<text id="2110A" style="transform: matrix(1.299,0,0,1.299,1301.261,364.061)" >
		<tspan x="0" y="0" class="t12">2110A
</tspan>
	</text>
	<text id="2101A2 2121" style="transform: matrix(1.299,0,0,1.299,856.613,277.844)" >
		<tspan x="324.2" y="2.9" class="t12">2101A2</tspan><tspan  y="2.9" class="t10">
</tspan>
		<tspan x="0" y="6.3" class="t10">2121
</tspan>
	</text>
	<text id="2101A1" style="transform: matrix(1.299,0,0,1.299,1274.451,256.212)" >
		<tspan x="0" y="0" class="t10">2101A1
</tspan>
	</text>
	<text id="2150H" style="transform: matrix(1.299,0,0,1.299,240.362,187.014)" >
		<tspan x="0" y="0" class="t10">2150H
</tspan>
	</text>
	<text id="2151A" style="transform: matrix(1.299,0,0,1.299,318.301,261.199)" >
		<tspan x="0" y="0" class="t10">2151A
</tspan>
	</text>
</svg>