<svg version="1.2" xmlns="http://www.w3.org/2000/svg" viewBox="0 0 1500 474" width="1500" height="474">
	<title>New Project</title>
	<style>
		tspan { white-space:pre } 
		.s0 { fill: #fcccb3;stroke: #6e6e6e;stroke-linecap: round;stroke-linejoin: round;stroke-width: 2.9 } 
		.s1 { fill: #e1e1e1;stroke: #6e6e6e;stroke-linecap: round;stroke-linejoin: round;stroke-width: 2.9 } 
		.s2 { fill: #ffaa00;stroke: #6e6e6e;stroke-linecap: round;stroke-linejoin: round;stroke-width: 2.9 } 
		.s3 { fill: #b6fcba;stroke: #6e6e6e;stroke-linecap: round;stroke-linejoin: round;stroke-width: 2.9 } 
		.s4 { fill: #ffffbe;stroke: #6e6e6e;stroke-linecap: round;stroke-linejoin: round;stroke-width: 2.9 } 
		.s5 { fill: #fcd4f0;stroke: #6e6e6e;stroke-linecap: round;stroke-linejoin: round;stroke-width: 2.9 } 
		.s6 { fill: #c500ff;stroke: #6e6e6e;stroke-linecap: round;stroke-linejoin: round;stroke-width: 2.9 } 
		.s7 { fill: #c5c7fc;stroke: #6e6e6e;stroke-linecap: round;stroke-linejoin: round;stroke-width: 2.9 } 
		.t8 { font-size: 7px;fill: #000000;font-family: "Arial" } 
		.t9 { font-size: 7px;line-height: 0px;fill: #000000;font-family: "Arial" } 
		.t10 { font-size: 7px;line-height: 4px;fill: #000000;font-family: "Arial" } 
		.t11 { font-size: 7px;line-height: 2px;fill: #000000;font-family: "Arial" } 
	</style>
	<path id="Path 2" fill-rule="evenodd" class="s0" d="m1324 146.2v42.8h-55.2v-42.8z"/>
	<path id="Path 3" fill-rule="evenodd" class="s0" d="m1324 146.2v-15.7h110.5v16.8 42.3h65.5v44.9l-231.2 0.5v-46h55.2z"/>
	<path id="Path 4" fill-rule="evenodd" class="s1" d="m1499.5 256.7l0.5 45.5-23.3 0.5v-46z"/>
	<path id="Path 5" fill-rule="evenodd" class="s2" d="m1380.3 302.7v58.5h-57.9v-58.5z"/>
	<path id="Path 6" fill-rule="evenodd" class="s0" d="m1484.3 302.7v42.2h-46.6v16.3h-57.4v-104.5h96.4v46z"/>
	<path id="Path 7" fill-rule="evenodd" class="s1" d="m1322.4 345.5h-53.1v-37.4h30.9v-51.4h-24.9v-21.7l48.7-0.5v21.6h-2.1z"/>
	<path id="Path 8" fill-rule="evenodd" class="s1" d="m1344.6 256.7v28.1h-22.2l-0.5-28.1z"/>
	<path id="Path 9" fill-rule="evenodd" class="s2" d="m1344.6 284.8v17.9h-22.2v-17.9z"/>
	<path id="Path 10" fill-rule="evenodd" class="s2" d="m1356 256.7v46h-11.4v-46z"/>
	<path id="Path 11" fill-rule="evenodd" class="s1" d="m1379.8 256.7v46h-23.8v-46z"/>
	<path id="Path 12" fill-rule="evenodd" class="s0" d="m1484.3 147.3v42.3h-49.8v-42.3z"/>
	<path id="Path 13" fill-rule="evenodd" class="s1" d="m1324 234.5h176l-0.5 22.2-175.5-0.6z"/>
	<path id="Path 14" fill-rule="evenodd" class="s2" d="m1269.3 256.7h30.9v51.4h-31.4z"/>
	<path id="Path 15" fill-rule="evenodd" class="s1" d="m1268.8 221v14h6.5v21.7h-6v46h-31.4v-47.1h-8.1v-20.6h8.1v-14z"/>
	<path id="Path 16" fill-rule="evenodd" class="s0" d="m1237.9 235h-139.7l-0.5-65.5 140.2-0.5z"/>
	<path id="Path 17" fill-rule="evenodd" class="s3" d="m1097.7 169.5v65.5h-59.6v-65.5z"/>
	<path id="Path 18" fill-rule="evenodd" class="s4" d="m1038.1 169.5v32.5h-23.3v-32.5z"/>
	<path id="Path 19" fill-rule="evenodd" class="s4" d="m1014.8 169.5v32.5h-30.3v-32.5z"/>
	<path id="Path 20" fill-rule="evenodd" class="s4" d="m1038.1 202v33h-53.6v-33z"/>
	<path id="Path 21" fill-rule="evenodd" class="s5" d="m984.5 169.5v65.5h-18.4v-65.5z"/>
	<path id="Path 22" fill-rule="evenodd" class="s5" d="m966.1 169.5v65.5h-29.2v-31.9h-29.8v-33.6z"/>
	<path id="Path 23" fill-rule="evenodd" class="s5" d="m936.9 203.1v31.9h-29.8v-31.9z"/>
	<path id="Path 24" fill-rule="evenodd" class="s1" d="m907.1 169.5v65.5h-32v-65.5z"/>
	<path id="Path 25" fill-rule="evenodd" class="s1" d="m875.1 165.7v69.3h-29.8v-69.3z"/>
	<path id="Path 26" fill-rule="evenodd" class="s6" d="m845.3 170.1v64.9h-86.6v-64.9z"/>
	<path id="Path 27" fill-rule="evenodd" class="s4" d="m758.7 170.1v64.9h-60.6v-64.9z"/>
	<path id="Path 28" fill-rule="evenodd" class="s7" d="m698.1 170.1v64.9h-61.8v-64.9z"/>
	<path id="Path 29" fill-rule="evenodd" class="s7" d="m636.3 170.1v64.9h-58.5v-64.9z"/>
	<path id="Path 30" fill-rule="evenodd" class="s1" d="m577.8 170.1v64.9h-28.7v-64.9z"/>
	<path id="Path 31" fill-rule="evenodd" class="s1" d="m549.1 170.1v64.9h-31.9v-64.9z"/>
	<path id="Path 32" fill-rule="evenodd" class="s3" d="m1237.9 255.6v33.6h-33v-33.6z"/>
	<path id="Path 33" fill-rule="evenodd" class="s3" d="m1237.9 289.2v34.1h-33v-34.1z"/>
	<path id="Path 34" fill-rule="evenodd" class="s3" d="m1204.9 255.6v67.7h-186.3v-67.7z"/>
	<path id="Path 35" fill-rule="evenodd" class="s4" d="m1018.6 255.6v67.7h-54.1v-67.7z"/>
	<path id="Path 36" fill-rule="evenodd" class="s7" d="m964.5 255.6v67.7h-58.5v-67.7z"/>
	<path id="Path 37" fill-rule="evenodd" class="s4" d="m906 255.6v67.7h-32.5v-54.7h21.1v-13z"/>
	<path id="Path 38" fill-rule="evenodd" class="s4" d="m843.2 255.6v30.3h-26v-30.3z"/>
	<path id="Path 39" fill-rule="evenodd" class="s4" d="m843.2 285.9v37.4h-26v-37.4z"/>
	<path id="Path 40" fill-rule="evenodd" class="s4" d="m817.2 255.6v39h-39v-39z"/>
	<path id="Path 41" fill-rule="evenodd" class="s4" d="m817.2 294.6v28.7h-39v-28.7z"/>
	<path id="Path 42" fill-rule="evenodd" class="s4" d="m778.2 255.6v30.3h-40.6v-30.3z"/>
	<path id="Path 43" fill-rule="evenodd" class="s4" d="m778.2 285.9v37.4h-40.6v-37.4z"/>
	<path id="Path 44" fill-rule="evenodd" class="s4" d="m737.6 255.6v67.7h-91v-67.7z"/>
	<path id="Path 45" fill-rule="evenodd" class="s3" d="m646.6 255.6v67.7h-31.4v-67.7z"/>
	<path id="Path 46" fill-rule="evenodd" class="s7" d="m615.2 255.6v67.7h-49.8v-67.7z"/>
	<path id="Path 47" fill-rule="evenodd" class="s3" d="m565.4 255.6v67.7h-48.7v-67.7z"/>
	<path id="Path 48" fill-rule="evenodd" class="s1" d="m485.8 322.7v3.3h-34.7v-57.4h40.1v-8.1h25.5v48.7 13.5z"/>
	<path id="Path 49" fill-rule="evenodd" class="s3" d="m451.1 260.5v49.2h-75.8v-49.2z"/>
	<path id="Path 50" fill-rule="evenodd" class="s7" d="m375.3 260.5v49.2h-116.4v-49.2z"/>
	<path id="Path 51" fill-rule="evenodd" class="s7" d="m258.9 260.5v88.2h-32.5l0.6-88.2z"/>
	<path id="Path 52" fill-rule="evenodd" class="s7" d="m451.1 367.1v74.7h-135.3v-74.7z"/>
	<path id="Path 53" fill-rule="evenodd" class="s7" d="m226.4 367.1v-18.4h32.5v-39h192.2v57.4z"/>
	<path id="Path 54" fill-rule="evenodd" class="s7" d="m315.8 367.1v74.7h-89.4v-74.7z"/>
	<path id="Path 55" fill-rule="evenodd" class="s1" d="m517.2 199.8v29.8h-30.3v-29.8z"/>
	<path id="Path 56" fill-rule="evenodd" class="s3" d="m517.2 172.2v27.6h-33v-27.6z"/>
	<path id="Path 57" fill-rule="evenodd" class="s3" d="m517.2 131.1v41.1h-33v-41.1z"/>
	<path id="Path 58" fill-rule="evenodd" class="s3" d="m476 131.1v41.1h-22.7v-41.1z"/>
	<path id="Path 59" fill-rule="evenodd" class="s3" d="m475.5 72.6v31.4h-22.2v-31.4z"/>
	<path id="Path 60" fill-rule="evenodd" class="s3" d="m516.7 43.9v28.7h-63.4v-28.7z"/>
	<path id="Path 61" fill-rule="evenodd" class="s3" d="m475.5 104v-31.4h41.2v21.7h-17.9v9.7z"/>
	<path id="Path 62" fill-rule="evenodd" class="s3" d="m516.7 0.1v43.8h-63.4v-43.8z"/>
	<path id="Path 63" fill-rule="evenodd" class="s2" d="m469 213.9v21.1h-15.7v-21.1z"/>
	<path id="Path 64" fill-rule="evenodd" class="s3" d="m453.3 198.2v36.8h-33.6v-36.8z"/>
	<path id="Path 65" fill-rule="evenodd" class="s3" d="m419.7 235h-43.3v-65.5h76.9v28.7h-33.6z"/>
	<path id="Path 66" fill-rule="evenodd" class="s3" d="m453.3 92.6v76.9h-76.9v-76.9z"/>
	<path id="Path 67" fill-rule="evenodd" class="s3" d="m376.4 169.5v65.5h-56.8v-65.5z"/>
	<path id="Path 68" fill-rule="evenodd" class="s3" d="m319.6 169.5v-40h56.8l-0.5 40z"/>
	<path id="Path 69" fill-rule="evenodd" class="s3" d="m376.4 92.6v36.9h-60.6v-36.9z"/>
	<path id="Path 70" fill-rule="evenodd" class="s5" d="m315.8 129.5h-63.9v-36.9h64.4z"/>
	<path id="Path 71" fill-rule="evenodd" class="s1" d="m251.9 92.6v36.9h-21.1v-36.9z"/>
	<path id="Path 72" fill-rule="evenodd" class="s2" d="m258.9 129.5v29.7h-30.3v-29.7z"/>
	<path id="Path 73" fill-rule="evenodd" class="s5" d="m258.9 159.2v21.7h-30.3v-21.7z"/>
	<path id="Path 74" fill-rule="evenodd" class="s1" d="m228.6 235v-7.5h5.4v-46.6h24.9v54.1z"/>
	<path id="Path 75" fill-rule="evenodd" class="s3" d="m453.3 0.1v92.5h-253.4v-92.5z"/>
	<path id="Path 76" fill-rule="evenodd" class="s3" d="m202.1 128.9v39.5h-101.3v-39.5z"/>
	<path id="Path 77" fill-rule="evenodd" class="s3" d="m199.9 0.1l0.5 128.8h-200.3l-0.6-127.7z"/>
	<path id="Path 78" fill-rule="evenodd" class="s3" d="m100.8 128.9v39.5h-63.4v-39.5z"/>
	<path id="Path 79" fill-rule="evenodd" class="s3" d="m37.4 128.9v23.3h-27v-23.3z"/>
	<path id="Path 80" fill-rule="evenodd" class="s3" d="m37.4 152.2v16.2h-27v-16.2z"/>
	<path id="Path 81" fill-rule="evenodd" class="s2" d="m202.1 168.4v20.1h-7.6v-20.1z"/>
	<path id="Path 82" fill-rule="evenodd" class="s3" d="m104 168.4h90.5v20.1h7.6v74.1h-98.1z"/>
	<path id="Path 83" fill-rule="evenodd" class="s3" d="m202.1 262.6v49.9h-66.6v-49.9z"/>
	<path id="Path 84" fill-rule="evenodd" class="s3" d="m70.5 312.5v-24.4h33.5v-25.5h31.5v49.9z"/>
	<path id="Path 85" fill-rule="evenodd" class="s1" d="m199.3 415.3h27.1v26.5h6.5v26h-33v-26z"/>
	<path id="Path 86" fill-rule="evenodd" class="s3" d="m78.6 410.4h26v-23.8h20 74.7v55.2h-74.7-46z"/>
	<path id="Path 87" fill-rule="evenodd" class="s3" d="m10.4 441.8v-109.9h68.2v78.5 31.4z"/>
	<path id="Path 88" fill-rule="evenodd" class="s3" d="m78.6 387.2l26-0.6v23.8h-26z"/>
	<path id="Path 89" fill-rule="evenodd" class="s3" d="m199.3 386.6l-120.7 0.6v-55.3h46 74.7z"/>
	<path id="Path 90" fill-rule="evenodd" class="s1" d="m199.3 415.3v-83.4h-188.9v-19.4h191.7v-183.6h-1.7v-36.3h30.4v36.9h-2.2v105.5h240.4v-21.1h17.9v15.7h30.3v5.4h712.6v20.6h-356.3v57.9h-30.3v-57.9h-326.5v4.9h-25.5v8.1h-40.1v-8.1h-224.1l-0.6 154.8z"/>
	<path id="Path 91" fill-rule="evenodd" class="s3" d="m531.3 131.1h-47.1v68.7h2.7v14.1h-33.6v-41.7h22.7v-41.1h-22.7v-27.1h45.5v-9.7h32.5z"/>
	<path id="Path 92" fill-rule="evenodd" class="s5" d="m277.9 235v-62.8h-19v-42.7h60.7v105.5z"/>
	<path id="Path 93" fill-rule="evenodd" class="s5" d="m277.9 192.8v42.2h-19v-42.2z"/>
	<path id="Path 94" fill-rule="evenodd" class="s5" d="m277.9 172.2v20.6h-19v-20.6z"/>
	<path id="Path 95" fill-rule="evenodd" class="s2" d="m894.6 255.6v13h-21.1v-13z"/>
	<path id="Path 96" fill-rule="evenodd" class="s3" d="m23.4 192.8v13.5h-13v-13.5z"/>
	<path id="Path 97" fill-rule="evenodd" class="s3" d="m10.4 168.4h93.6v119.7h-33.5v24.4h-60.1v-106.2h13v-13.5h-13z"/>
	<path id="Path 98" fill-rule="evenodd" class="s2" d="m234 180.9v46.6h-5.4v-46.6z"/>
	<text id="1C03" style="transform: matrix(1.128,0,0,1.128,705.908,250.639)" >
		<tspan x="0" y="0" class="t8">1C03
</tspan>
	</text>
	<text id="1163" style="transform: matrix(1.128,0,0,1.128,91.319,67.646)" >
		<tspan x="0" y="0" class="t8">1163
</tspan>
	</text>
	<text id="1161" style="transform: matrix(1.128,0,0,1.128,317.661,49.238)" >
		<tspan x="0" y="0" class="t8">1161
</tspan>
	</text>
	<text id="1109" style="transform: matrix(1.128,0,0,1.128,1370.314,185.671)" >
		<tspan x="0" y="0" class="t8">1109
</tspan>
	</text>
	<text id="1116" style="transform: matrix(1.128,0,0,1.128,1103.089,292.868)" >
		<tspan x="0" y="0" class="t8">1116
</tspan>
	</text>
	<text id="1179" style="transform: matrix(1.128,0,0,1.128,48,239.811)" >
		<tspan x="0" y="0" class="t8">1179
</tspan>
	</text>
	<text id="1180" style="transform: matrix(1.128,0,0,1.128,345.818,342.135)" >
		<tspan x="0" y="0" class="t8">1180
</tspan>
	</text>
	<text id="1111" style="transform: matrix(1.128,0,0,1.128,1159.675,205.161)" >
		<tspan x="0" y="0" class="t8">1111
</tspan>
	</text>
	<text id="1100" style="transform: matrix(1.128,0,0,1.128,1423.379,311.817)" >
		<tspan x="0" y="0" class="t8">1100
</tspan>
	</text>
	<text id="1167" style="transform: matrix(1.128,0,0,1.128,143.843,219.238)" >
		<tspan x="0" y="0" class="t8">1167
</tspan>
	</text>
	<text id="1182A" style="transform: matrix(1.128,0,0,1.128,371.81,407.645)" >
		<tspan x="0" y="0" class="t8">1182A
</tspan>
	</text>
	<text id="1178" style="transform: matrix(1.128,0,0,1.128,35.546,389.779)" >
		<tspan x="0" y="0" class="t8">1178
</tspan>
	</text>
	<text id="1182" style="transform: matrix(1.128,0,0,1.128,262.429,407.645)" >
		<tspan x="0" y="0" class="t8">1182
</tspan>
	</text>
	<text id="1174" style="transform: matrix(1.128,0,0,1.128,130.306,362.167)" >
		<tspan x="0" y="0" class="t8">1174
</tspan>
	</text>
	<text id="1136" style="transform: matrix(1.128,0,0,1.128,683.165,292.868)" >
		<tspan x="0" y="0" class="t8">1136
</tspan>
	</text>
	<text id="1184" style="transform: matrix(1.128,0,0,1.128,143.302,417.39)" >
		<tspan x="0" y="0" class="t8">1184
</tspan>
	</text>
	<text id="1156" style="transform: matrix(1.128,0,0,1.128,307.914,287.996)" >
		<tspan x="0" y="0" class="t8">1156
</tspan>
	</text>
	<text id="1131" style="transform: matrix(1.128,0,0,1.128,793.087,205.703)" >
		<tspan x="0" y="0" class="t8">1131
</tspan>
	</text>
	<text id="1155" style="transform: matrix(1.128,0,0,1.128,290.045,180.257)" >
		<tspan x="0" y="0" class="t8">1155
</tspan>
	</text>
	<text id="1161B" style="transform: matrix(1.128,0,0,1.128,403.216,134.238)" >
		<tspan x="0" y="0" class="t8">1161B
</tspan>
	</text>
	<text id="1147" style="transform: matrix(1.128,0,0,1.128,483.356,120.703)" >
		<tspan x="0" y="0" class="t8">1147
</tspan>
	</text>
	<text id="1117 1137" style="transform: matrix(1.128,0,0,1.128,658.786,199.476)" >
		<tspan x="357.5" y="5.1" class="t8">1117</tspan><tspan  y="5.1" class="t9">
</tspan>
		<tspan x="0" y="5.6" class="t9">1137
</tspan>
	</text>
	<text id="1124" style="transform: matrix(1.128,0,0,1.128,926.293,292.868)" >
		<tspan x="0" y="0" class="t9">1124
</tspan>
	</text>
	<text id="1135" style="transform: matrix(1.128,0,0,1.128,719.445,205.703)" >
		<tspan x="0" y="0" class="t9">1135
</tspan>
	</text>
	<text id="1139" style="transform: matrix(1.128,0,0,1.128,598.152,205.703)" >
		<tspan x="0" y="0" class="t9">1139
</tspan>
	</text>
	<text id="1151" style="transform: matrix(1.128,0,0,1.128,389.137,205.161)" >
		<tspan x="0" y="0" class="t9">1151
</tspan>
	</text>
	<text id="1C02" style="transform: matrix(1.128,0,0,1.128,1301.003,297.199)" >
		<tspan x="0" y="0" class="t9">1C02
</tspan>
	</text>
	<text id="1153" style="transform: matrix(1.128,0,0,1.128,338.779,205.161)" >
		<tspan x="0" y="0" class="t9">1153
</tspan>
	</text>
	<text id="1152 1120 1S04" style="transform: matrix(1.128,0,0,1.128,403.868,282.31)" >
		<tspan x="0" y="5.1" class="t9">1152</tspan><tspan  y="5.1" class="t10">
</tspan>
		<tspan x="513.9" y="9.4" class="t10">1120
</tspan>
		<tspan x="62" y="13.7" class="t10">1S04
</tspan>
	</text>
	<text id="1C01" style="transform: matrix(1.128,0,0,1.128,1401.72,248.473)" >
		<tspan x="0" y="0" class="t10">1C01
</tspan>
	</text>
	<text id="1108" style="transform: matrix(1.128,0,0,1.128,1342.156,335.097)" >
		<tspan x="0" y="0" class="t10">1108
</tspan>
	</text>
	<text id="1140" style="transform: matrix(1.128,0,0,1.128,581.366,292.868)" >
		<tspan x="0" y="0" class="t10">1140
</tspan>
	</text>
	<text id="1144" style="transform: matrix(1.128,0,0,1.128,532.09,292.868)" >
		<tspan x="0" y="0" class="t10">1144
</tspan>
	</text>
	<text id="1171" style="transform: matrix(1.128,0,0,1.128,159.546,290.703)" >
		<tspan x="0" y="0" class="t10">1171
</tspan>
	</text>
	<text id="1163A" style="transform: matrix(1.128,0,0,1.128,139.511,151.563)" >
		<tspan x="0" y="0" class="t10">1163A
</tspan>
	</text>
	<text id="1123" style="transform: matrix(1.128,0,0,1.128,927.376,199.747)" >
		<tspan x="0" y="0" class="t10">1123
</tspan>
	</text>
	<text id="1170" style="transform: matrix(1.128,0,0,1.128,233.73,308.027)" >
		<tspan x="0" y="0" class="t10">1170
</tspan>
	</text>
	<text id="1S02" style="transform: matrix(1.128,0,0,1.128,1243.876,263.091)" >
		<tspan x="0" y="0" class="t10">1S02
</tspan>
	</text>
	<text id="1138" style="transform: matrix(1.128,0,0,1.128,621.977,292.868)" >
		<tspan x="0" y="0" class="t10">1138
</tspan>
	</text>
	<text id="1129 1143" style="transform: matrix(1.128,0,0,1.128,524.559,199.476)" >
		<tspan x="317.9" y="5.1" class="t10">1129</tspan><tspan  y="5.1" class="t9">
</tspan>
		<tspan x="0" y="5.6" class="t9">1143
</tspan>
	</text>
	<text id="1126" style="transform: matrix(1.128,0,0,1.128,880.808,296.658)" >
		<tspan x="0" y="0" class="t9">1126
</tspan>
	</text>
	<text id="1179B" style="transform: matrix(1.128,0,0,1.128,57.205,151.563)" >
		<tspan x="0" y="0" class="t9">1179B
</tspan>
	</text>
	<text id="1S03 1141" style="transform: matrix(1.128,0,0,1.128,553.886,197.852)" >
		<tspan x="263.7" y="5.1" class="t9">1S03</tspan><tspan  y="5.1" class="t11">
</tspan>
		<tspan x="0" y="7" class="t11">1141
</tspan>
	</text>
	<text id="1119" style="transform: matrix(1.128,0,0,1.128,1002.914,221.403)" >
		<tspan x="0" y="0" class="t11">1119
</tspan>
	</text>
	<text id="1155A" style="transform: matrix(1.128,0,0,1.128,272.176,114.206)" >
		<tspan x="0" y="0" class="t11">1155A
</tspan>
	</text>
	<text id="1179C" style="transform: matrix(1.128,0,0,1.128,107.834,295.034)" >
		<tspan x="0" y="0" class="t11">1179C
</tspan>
	</text>
	<text id="1109A" style="transform: matrix(1.128,0,0,1.128,1284.759,170.512)" >
		<tspan x="0" y="0" class="t11">1109A
</tspan>
	</text>
	<text id="1161A1" style="transform: matrix(1.128,0,0,1.128,471.173,24.875)" >
		<tspan x="0" y="0" class="t11">1161A1
</tspan>
	</text>
	<text id="1153A" style="transform: matrix(1.128,0,0,1.128,336.072,152.646)" >
		<tspan x="0" y="0" class="t11">1153A
</tspan>
	</text>
	<text id="1109B" style="transform: matrix(1.128,0,0,1.128,1447.746,171.595)" >
		<tspan x="0" y="0" class="t11">1109B
</tspan>
	</text>
	<text id="1101" style="transform: matrix(1.128,0,0,1.128,1275.553,285.288)" >
		<tspan x="0" y="0" class="t11">1101
</tspan>
	</text>
	<text id="1132" style="transform: matrix(1.128,0,0,1.128,788.756,278.25)" >
		<tspan x="0" y="0" class="t11">1132
</tspan>
	</text>
	<text id="1C05" style="transform: matrix(1.128,0,0,1.128,202.865,444.46)" >
		<tspan x="0" y="0" class="t11">1C05
</tspan>
	</text>
	<text id="1161B1" style="transform: matrix(1.128,0,0,1.128,332.01,114.206)" >
		<tspan x="0" y="0" class="t11">1161B1
</tspan>
	</text>
	<text id="1161A" style="transform: matrix(1.128,0,0,1.128,473.609,61.149)" >
		<tspan x="0" y="0" class="t11">1161A
</tspan>
	</text>
	<text id="1157" style="transform: matrix(1.128,0,0,1.128,237.521,211.658)" >
		<tspan x="0" y="0" class="t11">1157
</tspan>
	</text>
	<text id="1121" style="transform: matrix(1.128,0,0,1.128,966.364,205.161)" >
		<tspan x="0" y="0" class="t11">1121
</tspan>
	</text>
	<text id="1132D" style="transform: matrix(1.128,0,0,1.128,745.707,307.486)" >
		<tspan x="0" y="0" class="t11">1132D
</tspan>
	</text>
	<text id="1104" style="transform: matrix(1.128,0,0,1.128,1358.942,282.581)" >
		<tspan x="0" y="0" class="t11">1104
</tspan>
	</text>
	<text id="1147E" style="transform: matrix(1.128,0,0,1.128,489.313,154.811)" >
		<tspan x="0" y="0" class="t11">1147E
</tspan>
	</text>
	<text id="1S01" style="transform: matrix(1.128,0,0,1.128,1478.34,282.581)" >
		<tspan x="0" y="0" class="t11">1S01
</tspan>
	</text>
	<text id="1147A" style="transform: matrix(1.128,0,0,1.128,424.876,219.779)" >
		<tspan x="0" y="0" class="t11">1147A
</tspan>
	</text>
	<text id="1132E" style="transform: matrix(1.128,0,0,1.128,745.978,273.919)" >
		<tspan x="0" y="0" class="t11">1132E
</tspan>
	</text>
	<text id="1116B" style="transform: matrix(1.128,0,0,1.128,1210.304,309.11)" >
		<tspan x="0" y="0" class="t11">1116B
</tspan>
	</text>
	<text id="1159" style="transform: matrix(1.128,0,0,1.128,234.813,147.232)" >
		<tspan x="0" y="0" class="t11">1159
</tspan>
	</text>
	<text id="1116A" style="transform: matrix(1.128,0,0,1.128,1210.304,275.543)" >
		<tspan x="0" y="0" class="t11">1116A
</tspan>
	</text>
	<text id="1132C" style="transform: matrix(1.128,0,0,1.128,785.777,311.817)" >
		<tspan x="0" y="0" class="t11">1132C
</tspan>
	</text>
	<text id="1E02" style="transform: matrix(1.128,0,0,1.128,492.291,217.614)" >
		<tspan x="0" y="0" class="t11">1E02
</tspan>
	</text>
	<text id="1147D" style="transform: matrix(1.128,0,0,1.128,484.168,89.843)" >
		<tspan x="0" y="0" class="t11">1147D
</tspan>
	</text>
	<text id="1119A" style="transform: matrix(1.128,0,0,1.128,988.294,188.378)" >
		<tspan x="0" y="0" class="t11">1119A
</tspan>
	</text>
	<text id="1132B" style="transform: matrix(1.128,0,0,1.128,818.537,307.486)" >
		<tspan x="0" y="0" class="t11">1132B
</tspan>
	</text>
	<text id="1123A" style="transform: matrix(1.128,0,0,1.128,910.049,221.945)" >
		<tspan x="0" y="0" class="t11">1123A
</tspan>
	</text>
	<text id="1S05" style="transform: matrix(1.128,0,0,1.128,231.835,114.206)" >
		<tspan x="0" y="0" class="t11">1S05
</tspan>
	</text>
	<text id="1147F" style="transform: matrix(1.128,0,0,1.128,489.583,188.919)" >
		<tspan x="0" y="0" class="t11">1147F
</tspan>
	</text>
	<text id="1132A" style="transform: matrix(1.128,0,0,1.128,818.537,273.919)" >
		<tspan x="0" y="0" class="t11">1132A
</tspan>
	</text>
	<text id="1E01" style="transform: matrix(1.128,0,0,1.128,1323.475,273.919)" >
		<tspan x="0" y="0" class="t11">1E01
</tspan>
	</text>
	<text id="1155D" style="transform: matrix(1.128,0,0,1.128,231.835,173.219)" >
		<tspan x="0" y="0" class="t11">1155D
</tspan>
	</text>
	<text id="1163C" style="transform: matrix(1.128,0,0,1.128,11.991,143.442)" >
		<tspan x="0" y="0" class="t11">1163C
</tspan>
	</text>
	<text id="1174A" style="transform: matrix(1.128,0,0,1.128,79.948,401.69)" >
		<tspan x="0" y="0" class="t11">1174A
</tspan>
	</text>
	<text id="1179A" style="transform: matrix(1.128,0,0,1.128,12.262,162.932)" >
		<tspan x="0" y="0" class="t11">1179A
</tspan>
	</text>
	<text id="1128" style="transform: matrix(1.128,0,0,1.128,874.852,265.257)" >
		<tspan x="0" y="0" class="t11">1128
</tspan>
	</text>
	<text id="1147B" style="transform: matrix(1.128,0,0,1.128,453.033,154.811)" >
		<tspan x="0" y="0" class="t11">1147B
</tspan>
	</text>
	<text id="1155B" style="transform: matrix(1.128,0,0,1.128,256.473,217.072)" >
		<tspan x="0" y="0" class="t11">1155B
</tspan>
	</text>
	<text id="1147C" style="transform: matrix(1.128,0,0,1.128,452.762,91.467)" >
		<tspan x="0" y="0" class="t11">1147C
</tspan>
	</text>
	<text id="1106" style="transform: matrix(1.128,0,0,1.128,1341.073,283.123)" >
		<tspan x="0" y="0" class="t11">1106
</tspan>
	</text>
	<text id="1119A1" style="transform: matrix(1.128,0,0,1.128,1012.932,188.378)" >
		<tspan x="0" y="0" class="t11">1119A1
</tspan>
	</text>
	<text id="1149" style="transform: matrix(1.128,0,0,1.128,451.95,227.359)" >
		<tspan x="0" y="0" class="t11">1149
</tspan>
	</text>
	<text id="1108A" style="transform: matrix(1.128,0,0,1.128,1322.121,296.658)" >
		<tspan x="0" y="0" class="t11">1108A
</tspan>
	</text>
	<text id="1155C" style="transform: matrix(1.128,0,0,1.128,256.202,185.671)" >
		<tspan x="0" y="0" class="t11">1155C
</tspan>
	</text>
	<text id="1157A" style="transform: matrix(1.128,0,0,1.128,213.695,206.786)" >
		<tspan x="0" y="0" class="t11">1157A
</tspan>
	</text>
	<text id="1165" style="transform: matrix(1.128,0,0,1.128,189.328,181.34)" >
		<tspan x="0" y="0" class="t11">1165
</tspan>
	</text>
	<text id="1179D" style="transform: matrix(1.128,0,0,1.128,4.952,202.454)" >
		<tspan x="0" y="0" class="t11">1179D
</tspan>
	</text>
</svg>