<svg version="1.2" xmlns="http://www.w3.org/2000/svg" viewBox="0 0 1500 474" width="1500" height="474">
	<title>New Project</title>
	<style>
		tspan { white-space:pre } 
		.s0 { fill: #e1e1e1;stroke: #6e6e6e;stroke-linecap: round;stroke-linejoin: round;stroke-width: 3.8 } 
		.s1 { fill: #ffffbe;stroke: #6e6e6e;stroke-linecap: round;stroke-linejoin: round;stroke-width: 3.8 } 
		.s2 { fill: #c500ff;stroke: #6e6e6e;stroke-linecap: round;stroke-linejoin: round;stroke-width: 3.8 } 
		.s3 { fill: #fcccb3;stroke: #6e6e6e;stroke-linecap: round;stroke-linejoin: round;stroke-width: 3.8 } 
		.s4 { fill: #ffaa00;stroke: #6e6e6e;stroke-linecap: round;stroke-linejoin: round;stroke-width: 3.8 } 
		.s5 { fill: #b6fcba;stroke: #6e6e6e;stroke-linecap: round;stroke-linejoin: round;stroke-width: 3.8 } 
		.s6 { fill: #fcd4f0;stroke: #6e6e6e;stroke-linecap: round;stroke-linejoin: round;stroke-width: 3.8 } 
		.t7 { font-size: 9px;fill: #000000;font-family: "Arial" } 
		.t8 { font-size: 9px;line-height: 14px;fill: #000000;font-family: "Arial" } 
		.t9 { font-size: 9px;line-height: 0px;fill: #000000;font-family: "Arial" } 
		.t10 { font-size: 9px;line-height: 4px;fill: #000000;font-family: "Arial" } 
		.t11 { font-size: 9px;line-height: 7px;fill: #000000;font-family: "Arial" } 
		.t12 { font-size: 9px;line-height: 8px;fill: #000000;font-family: "Arial" } 
		.t13 { font-size: 9px;line-height: 6px;fill: #000000;font-family: "Arial" } 
	</style>
	<path id="Path 2" fill-rule="evenodd" class="s0" d="m44.8 252.6v98.9h-44.8v-98.9z"/>
	<path id="Path 3" fill-rule="evenodd" class="s1" d="m44.8 252.6h52.9v-4.3h31.1v95.7h-28v7.5h-56z"/>
	<path id="Path 4" fill-rule="evenodd" class="s2" d="m213.4 248.3v95.7h-84.6v-95.7z"/>
	<path id="Path 5" fill-rule="evenodd" class="s1" d="m323.5 248.3v95.7h-110.1v-95.7z"/>
	<path id="Path 6" fill-rule="evenodd" class="s1" d="m323.5 248.3h102.6l-0.6 95.7h-102z"/>
	<path id="Path 7" fill-rule="evenodd" class="s3" d="m485.8 248.3v37.9h-59.7v-37.9z"/>
	<path id="Path 8" fill-rule="evenodd" class="s3" d="m426.1 286.2h44.8v57.8h-45.4z"/>
	<path id="Path 9" fill-rule="evenodd" class="s3" d="m524.4 302.4v41.6h-53.5v-41.6z"/>
	<path id="Path 10" fill-rule="evenodd" class="s3" d="m580.4 286.2v57.8h-56v-57.8z"/>
	<path id="Path 11" fill-rule="evenodd" class="s3" d="m567.3 248.9v37.3h-61v-37.3z"/>
	<path id="Path 12" fill-rule="evenodd" class="s3" d="m567.3 248.9h75.9v53.5h21.8v41.6h-84.6v-57.8h-13.1z"/>
	<path id="Path 13" fill-rule="evenodd" class="s3" d="m708.5 248.9v53.5h-65.3v-53.5z"/>
	<path id="Path 14" fill-rule="evenodd" class="s3" d="m722.8 302.4v41.6h-57.8v-41.6z"/>
	<path id="Path 15" fill-rule="evenodd" class="s3" d="m780 302.4v41.6h-57.2v-41.6z"/>
	<path id="Path 16" fill-rule="evenodd" class="s3" d="m780 248.3v54.1h-41v-54.1z"/>
	<path id="Path 17" fill-rule="evenodd" class="s3" d="m837.9 248.3v95.7h-57.9v-95.7z"/>
	<path id="Path 18" fill-rule="evenodd" class="s3" d="m895.7 301.7v42.3h-57.8v-42.3z"/>
	<path id="Path 19" fill-rule="evenodd" class="s3" d="m951.1 301.7v42.3h-55.4v-42.3z"/>
	<path id="Path 20" fill-rule="evenodd" class="s3" d="m1005.9 301.7v42.3h-54.8v-42.3z"/>
	<path id="Path 21" fill-rule="evenodd" class="s3" d="m1064.3 301.7v42.3h-58.4v-42.3z"/>
	<path id="Path 22" fill-rule="evenodd" class="s3" d="m1124.7 301.7v42.3h-60.4v-42.3z"/>
	<path id="Path 23" fill-rule="evenodd" class="s3" d="m1124.7 250.1v51.6h-32.4v-51.6z"/>
	<path id="Path 24" fill-rule="evenodd" class="s0" d="m1124.7 250.1h-11.9v-29.2h11.9v-7.5h43.5l0.6 7.5h8.7v29.2h-8.7v68.4h-44.1z"/>
	<path id="Path 25" fill-rule="evenodd" class="s3" d="m39.2 182.3v36.1h-38.6v-36.1z"/>
	<path id="Path 26" fill-rule="evenodd" class="s3" d="m43.5 130.7v51.6h-42.9v-51.6z"/>
	<path id="Path 27" fill-rule="evenodd" class="s3" d="m98.9 76.6v36.1h-60.3v-36.1z"/>
	<path id="Path 28" fill-rule="evenodd" class="s3" d="m98.9 112.7v29.2h-41v-29.2z"/>
	<path id="Path 29" fill-rule="evenodd" class="s3" d="m102 141.9v31.1h-44.1v-31.1z"/>
	<path id="Path 30" fill-rule="evenodd" class="s0" d="m96.4 173v43.5h-38.5v-43.5z"/>
	<path id="Path 31" fill-rule="evenodd" class="s0" d="m102 173v-41h38v49.7h-15.6v41.1h-28v-49.8z"/>
	<path id="Path 32" fill-rule="evenodd" class="s4" d="m124.4 217.2v-35.5h15.6v-49.7h8.7l-0.7 85.2z"/>
	<path id="Path 33" fill-rule="evenodd" class="s0" d="m148.7 132h37.3v90.8h-38z"/>
	<path id="Path 34" fill-rule="evenodd" class="s2" d="m267.5 132v90.8h-81.5v-90.8z"/>
	<path id="Path 35" fill-rule="evenodd" class="s5" d="m267.5 222.8v-90.8h189.1v55.9h-40.4v34.9z"/>
	<path id="Path 36" fill-rule="evenodd" class="s4" d="m440.4 187.9v34.9h-24.2v-34.9z"/>
	<path id="Path 37" fill-rule="evenodd" class="s4" d="m456.6 187.9v34.9h-16.2v-34.9z"/>
	<path id="Path 38" fill-rule="evenodd" class="s3" d="m509.5 132v39.8h-52.9v-39.8z"/>
	<path id="Path 39" fill-rule="evenodd" class="s3" d="m565.4 132v39.8h-55.9v-39.8z"/>
	<path id="Path 40" fill-rule="evenodd" class="s3" d="m493.3 171.8v51h-36.7v-51z"/>
	<path id="Path 41" fill-rule="evenodd" class="s3" d="m565.4 171.8v50.3h-42.3v-50.3z"/>
	<path id="Path 42" fill-rule="evenodd" class="s0" d="m607.1 122v93.9h-41.7v-93.9z"/>
	<path id="Path 43" fill-rule="evenodd" class="s3" d="m599 215.9h8.1v-44.8h38l-0.7 50.4-45.4-0.6z"/>
	<path id="Path 44" fill-rule="evenodd" class="s3" d="m665 131.3v39.8h-57.9v-39.8z"/>
	<path id="Path 45" fill-rule="evenodd" class="s3" d="m722.8 131.3v39.8h-57.8v-39.8z"/>
	<path id="Path 46" fill-rule="evenodd" class="s3" d="m686.7 171.1h28v6.9h8.1v43.5h-27.4v-7.5h-8.7z"/>
	<path id="Path 47" fill-rule="evenodd" class="s3" d="m779.4 131.3v90.2h-56.6v-90.2z"/>
	<path id="Path 48" fill-rule="evenodd" class="s3" d="m837.3 131.3v34.9h-57.9v-34.9z"/>
	<path id="Path 49" fill-rule="evenodd" class="s3" d="m823 166.2v33.5h-43.6v-33.5z"/>
	<path id="Path 50" fill-rule="evenodd" class="s3" d="m779.4 221.5v-21.8h43.6v-33.5h14.3v55.3z"/>
	<path id="Path 51" fill-rule="evenodd" class="s3" d="m868.4 131.3v90.2h-31.1v-90.2z"/>
	<path id="Path 52" fill-rule="evenodd" class="s3" d="m868.4 131.3h84.6v118.2h-59.1v-38.6h-25.5z"/>
	<path id="Path 53" fill-rule="evenodd" class="s3" d="m948.6 249.5v26.1h-48.5v-26.1z"/>
	<path id="Path 54" fill-rule="evenodd" class="s4" d="m900.1 249.5v26.1h-32.3v-26.1z"/>
	<path id="Path 55" fill-rule="evenodd" class="s3" d="m948.6 275.6v-26.1h4.4v-118.2h110.7v144.9z"/>
	<path id="Path 56" fill-rule="evenodd" class="s3" d="m1063.7 131.3h57.2v79l-57.2 8.7z"/>
	<path id="Path 57" fill-rule="evenodd" class="s6" d="m1168.8 250.1h75.9l0.6 129.4-76.5 0.6z"/>
	<path id="Path 58" fill-rule="evenodd" class="s6" d="m1245.3 379.5l-0.6-90.2h29.3v26.1h61.5v87.1h-90.2z"/>
	<path id="Path 59" fill-rule="evenodd" class="s6" d="m1335.5 402.5v-51.6h22.4v-14.3h19.9l0.7-20.6h32.3v86.5z"/>
	<path id="Path 60" fill-rule="evenodd" class="s3" d="m1411.4 378.9l-0.6-62.9h-32.3v-64h88.3v65.9h10.6l0.6 61z"/>
	<path id="Path 61" fill-rule="evenodd" class="s0" d="m1499.8 252v65.9h-33v-65.9z"/>
	<path id="Path 62" fill-rule="evenodd" class="s0" d="m1499.8 235.8v16.2h-54.2v-16.2z"/>
	<path id="Path 63" fill-rule="evenodd" class="s4" d="m1445.6 235.8v-15.5h25.5v-6.9h29.3v22.4z"/>
	<path id="Path 64" fill-rule="evenodd" class="s5" d="m1500.4 213.4h-29.3v6.9h-25.5-77.1v-149.3h37.3v23.6h72.2v61h22.4z"/>
	<path id="Path 65" fill-rule="evenodd" class="s6" d="m1168.2 150.6h65.9v5h46.7v-5-79.6h16.2 4.9 66.6v84.6h-50.4-16.2v65.3h-133.1z"/>
	<path id="Path 66" fill-rule="evenodd" class="s0" d="m1244.7 250.1l29.3-0.6v39.8h-29.3z"/>
	<path id="Path 67" fill-rule="evenodd" class="s4" d="m1290.1 249.5v65.9h-16.1v-65.9z"/>
	<path id="Path 68" fill-rule="evenodd" class="s0" d="m1326.2 249.5v65.9h-36.1v-65.9z"/>
	<path id="Path 69" fill-rule="evenodd" class="s0" d="m1177.5 220.9l268.1-0.6v31.7l-119.4-0.6v-1.9l-148.7 0.6z"/>
	<path id="Path 70" fill-rule="evenodd" class="s3" d="m644.4 213.4l0.7-42.3h41.6v42.3z"/>
	<path id="Path 71" fill-rule="evenodd" class="s0" d="m1112.8 250.1h-20.5v51.6h-254.4v-53.4h-98.9v54.1h-30.5v-53.5l-610.8-0.6v4.3h-97.7l0.6-34.2h57.3v-1.9h38.5v6.3h28v-5.6h23.6v5.6h345.3v-51h29.8v50.3h42.3v-6.2h33.6v5l45.4 0.6v-8.1l51 0.6v7.5h173v-10.6h25.5v38.6h-26.1v26.1l195.9 0.6v-55.3h49.1z"/>
	<path id="Path 72" fill-rule="evenodd" class="s6" d="m1168.2 150.6v-57.2l79 0.6v-23h33.6v84.6h-46.7v-5z"/>
	<path id="Path 73" fill-rule="evenodd" class="s3" d="m57.9 218.4h-18.7v-36.1h4.3v-69.6h14.4z"/>
	<path id="Path 74" fill-rule="evenodd" class="s3" d="m38.6 76.6v36.1h4.9v18h-42.9v-54.1z"/>
	<path id="Path 75" fill-rule="evenodd" class="s6" d="m1378.5 252l-0.7 84.6h-19.9v14.3h-22.4v-35.5h-9.3v-64z"/>
	<path id="Path 76" fill-rule="evenodd" class="s3" d="m485.8 248.3l20.5 0.6v37.3h18.1v16.2h-53.5v-16.2h14.9z"/>
	<path id="Path 77" fill-rule="evenodd" class="s6" d="m1168.2 131.3v82.1h-47.3v-82.1z"/>
	<path id="Path 78" fill-rule="evenodd" class="s6" d="m1301.9 155.6h66.6v64.7l-66.6 0.6z"/>
	<text id="3C03" style="transform: matrix(1.296,0,0,1.296,432.946,236.422)" >
		<tspan x="0" y="0" class="t7">3C03
</tspan>
	</text>
	<text id="3117" style="transform: matrix(1.296,0,0,1.296,995.588,208.434)" >
		<tspan x="0" y="0" class="t7">3117
</tspan>
	</text>
	<text id="3109" style="transform: matrix(1.296,0,0,1.296,1222.014,192.263)" >
		<tspan x="0" y="0" class="t7">3109
</tspan>
	</text>
	<text id="3101" style="transform: matrix(1.296,0,0,1.296,1409.873,159.922)" >
		<tspan x="0" y="0" class="t7">3101
</tspan>
	</text>
	<text id="3151" style="transform: matrix(1.296,0,0,1.296,348.658,181.69)" >
		<tspan x="0" y="0" class="t7">3151
</tspan>
	</text>
	<text id="3152 3108 3102" style="transform: matrix(1.296,0,0,1.296,255.76,292.21)" >
		<tspan x="0" y="6.5" class="t7">3152</tspan><tspan  y="6.5" class="t8">
</tspan>
		<tspan x="724" y="20.9" class="t8">3108</tspan><tspan  y="20.9" class="t9">
</tspan>
		<tspan x="904" y="21.4" class="t9">3102
</tspan>
	</text>
	<text id="3150" style="transform: matrix(1.296,0,0,1.296,361.099,300.482)" >
		<tspan x="0" y="0" class="t9">3150
</tspan>
	</text>
	<text id="3127" style="transform: matrix(1.296,0,0,1.296,897.305,190.397)" >
		<tspan x="0" y="0" class="t9">3127
</tspan>
	</text>
	<text id="3160" style="transform: matrix(1.296,0,0,1.296,73.713,304.214)" >
		<tspan x="0" y="0" class="t9">3160
</tspan>
	</text>
	<text id="3154" style="transform: matrix(1.296,0,0,1.296,157.689,300.482)" >
		<tspan x="0" y="0" class="t9">3154
</tspan>
	</text>
	<text id="3C02" style="transform: matrix(1.296,0,0,1.296,1297.593,239.531)" >
		<tspan x="0" y="0" class="t9">3C02
</tspan>
	</text>
	<text id="3153" style="transform: matrix(1.296,0,0,1.296,213.052,181.69)" >
		<tspan x="0" y="0" class="t9">3153
</tspan>
	</text>
	<text id="3138" style="transform: matrix(1.296,0,0,1.296,598.721,301.726)" >
		<tspan x="0" y="0" class="t9">3138
</tspan>
	</text>
	<text id="3108A" style="transform: matrix(1.296,0,0,1.296,1272.711,358.323)" >
		<tspan x="0" y="0" class="t9">3108A
</tspan>
	</text>
	<text id="3109B" style="transform: matrix(1.296,0,0,1.296,1206.774,123.227)" >
		<tspan x="0" y="0" class="t9">3109B
</tspan>
	</text>
	<text id="3124" style="transform: matrix(1.296,0,0,1.296,795.289,300.482)" >
		<tspan x="0" y="0" class="t9">3124
</tspan>
	</text>
	<text id="3131" style="transform: matrix(1.296,0,0,1.296,738.06,181.068)" >
		<tspan x="0" y="0" class="t9">3131
</tspan>
	</text>
	<text id="3111" style="transform: matrix(1.296,0,0,1.296,1079.876,177.337)" >
		<tspan x="0" y="0" class="t9">3111
</tspan>
	</text>
	<text id="3S02" style="transform: matrix(1.296,0,0,1.296,1132.439,266.897)" >
		<tspan x="0" y="0" class="t9">3S02
</tspan>
	</text>
	<text id="3104 3S04" style="transform: matrix(1.296,0,0,1.296,8.268,292.21)" >
		<tspan x="1028" y="6.5" class="t9">3104</tspan><tspan  y="6.5" class="t10">
</tspan>
		<tspan x="0" y="10.8" class="t10">3S04
</tspan>
	</text>
	<text id="3104A" style="transform: matrix(1.296,0,0,1.296,1356.065,370.14)" >
		<tspan x="0" y="0" class="t10">3104A
</tspan>
	</text>
	<text id="3S03 3155 3109C" style="transform: matrix(1.296,0,0,1.296,153.394,164.71)" >
		<tspan x="323" y="6.5" class="t10">3S03</tspan><tspan  y="6.5" class="t11">
</tspan>
		<tspan x="0" y="13.2" class="t11">3155</tspan><tspan  y="13.2" class="t12">
</tspan>
		<tspan x="898.5" y="21.4" class="t12">3109C
</tspan>
	</text>
	<text id="3159" style="transform: matrix(1.296,0,0,1.296,107.303,178.58)" >
		<tspan x="0" y="0" class="t12">3159
</tspan>
	</text>
	<text id="3109A" style="transform: matrix(1.296,0,0,1.296,1127.152,176.715)" >
		<tspan x="0" y="0" class="t12">3109A
</tspan>
	</text>
	<text id="3138A" style="transform: matrix(1.296,0,0,1.296,658.127,279.958)" >
		<tspan x="0" y="0" class="t12">3138A
</tspan>
	</text>
	<text id="3114" style="transform: matrix(1.296,0,0,1.296,1081.431,327.226)" >
		<tspan x="0" y="0" class="t12">3114
</tspan>
	</text>
	<text id="3116" style="transform: matrix(1.296,0,0,1.296,1022.336,327.226)" >
		<tspan x="0" y="0" class="t12">3116
</tspan>
	</text>
	<text id="3144B 3122" style="transform: matrix(1.296,0,0,1.296,534.35,310.868)" >
		<tspan x="0" y="6.5" class="t12">3144B</tspan><tspan  y="6.5" class="t13">
</tspan>
		<tspan x="246" y="12.8" class="t13">3122
</tspan>
	</text>
	<text id="3134" style="transform: matrix(1.296,0,0,1.296,680.21,327.226)" >
		<tspan x="0" y="0" class="t13">3134
</tspan>
	</text>
	<text id="3132" style="transform: matrix(1.296,0,0,1.296,738.06,327.226)" >
		<tspan x="0" y="0" class="t13">3132
</tspan>
	</text>
	<text id="3118" style="transform: matrix(1.296,0,0,1.296,965.73,327.226)" >
		<tspan x="0" y="0" class="t13">3118
</tspan>
	</text>
	<text id="3106" style="transform: matrix(1.296,0,0,1.296,1294.794,286.799)" >
		<tspan x="0" y="0" class="t13">3106
</tspan>
	</text>
	<text id="3120" style="transform: matrix(1.296,0,0,1.296,909.746,327.226)" >
		<tspan x="0" y="0" class="t13">3120
</tspan>
	</text>
	<text id="3141" style="transform: matrix(1.296,0,0,1.296,524.076,156.19)" >
		<tspan x="0" y="0" class="t13">3141
</tspan>
	</text>
	<text id="3130" style="transform: matrix(1.296,0,0,1.296,746.147,279.958)" >
		<tspan x="0" y="0" class="t13">3130
</tspan>
	</text>
	<text id="3143" style="transform: matrix(1.296,0,0,1.296,469.335,156.19)" >
		<tspan x="0" y="0" class="t13">3143
</tspan>
	</text>
	<text id="3139" style="transform: matrix(1.296,0,0,1.296,530.918,200.971)" >
		<tspan x="0" y="0" class="t13">3139
</tspan>
	</text>
	<text id="3S01" style="transform: matrix(1.296,0,0,1.296,1469.589,289.287)" >
		<tspan x="0" y="0" class="t13">3S01
</tspan>
	</text>
	<text id="3144D" style="transform: matrix(1.296,0,0,1.296,430.768,319.14)" >
		<tspan x="0" y="0" class="t13">3144D
</tspan>
	</text>
	<text id="3145" style="transform: matrix(1.296,0,0,1.296,461.249,201.593)" >
		<tspan x="0" y="0" class="t13">3145
</tspan>
	</text>
	<text id="3135" style="transform: matrix(1.296,0,0,1.296,652.218,196.617)" >
		<tspan x="0" y="0" class="t13">3135
</tspan>
	</text>
	<text id="3144A" style="transform: matrix(1.296,0,0,1.296,519.41,271.251)" >
		<tspan x="0" y="0" class="t13">3144A
</tspan>
	</text>
	<text id="3135B" style="transform: matrix(1.296,0,0,1.296,618.316,155.568)" >
		<tspan x="0" y="0" class="t13">3135B
</tspan>
	</text>
	<text id="3129" style="transform: matrix(1.296,0,0,1.296,795.289,214.653)" >
		<tspan x="0" y="0" class="t13">3129
</tspan>
	</text>
	<text id="3165B" style="transform: matrix(1.296,0,0,1.296,4.354,161.166)" >
		<tspan x="0" y="0" class="t13">3165B
</tspan>
	</text>
	<text id="3144E" style="transform: matrix(1.296,0,0,1.296,438.544,271.872)" >
		<tspan x="0" y="0" class="t13">3144E
</tspan>
	</text>
	<text id="3135C" style="transform: matrix(1.296,0,0,1.296,675.856,155.568)" >
		<tspan x="0" y="0" class="t13">3135C
</tspan>
	</text>
	<text id="3112" style="transform: matrix(1.296,0,0,1.296,1095.738,280.58)" >
		<tspan x="0" y="0" class="t13">3112
</tspan>
	</text>
	<text id="3144C" style="transform: matrix(1.296,0,0,1.296,479.91,327.226)" >
		<tspan x="0" y="0" class="t13">3144C
</tspan>
	</text>
	<text id="3144" style="transform: matrix(1.296,0,0,1.296,484.265,299.238)" >
		<tspan x="0" y="0" class="t13">3144
</tspan>
	</text>
	<text id="3165D 3165C" style="transform: matrix(1.296,0,0,1.296,1.789,90.699)" >
		<tspan x="39.5" y="6.5" class="t13">3165D</tspan><tspan  y="6.5" class="t12">
</tspan>
		<tspan x="0" y="14.2" class="t12">3165C
</tspan>
	</text>
	<text id="3E02" style="transform: matrix(1.296,0,0,1.296,63.138,199.105)" >
		<tspan x="0" y="0" class="t12">3E02
</tspan>
	</text>
	<text id="3129B" style="transform: matrix(1.296,0,0,1.296,791.245,153.081)" >
		<tspan x="0" y="0" class="t12">3129B
</tspan>
	</text>
	<text id="3135A" style="transform: matrix(1.296,0,0,1.296,608.363,200.971)" >
		<tspan x="0" y="0" class="t12">3135A
</tspan>
	</text>
	<text id="3121" style="transform: matrix(1.296,0,0,1.296,910.99,266.897)" >
		<tspan x="0" y="0" class="t12">3121
</tspan>
	</text>
	<text id="3135D" style="transform: matrix(1.296,0,0,1.296,687.052,200.349)" >
		<tspan x="0" y="0" class="t12">3135D
</tspan>
	</text>
	<text id="3129A" style="transform: matrix(1.296,0,0,1.296,783.781,187.288)" >
		<tspan x="0" y="0" class="t12">3129A
</tspan>
	</text>
	<text id="3E01" style="transform: matrix(1.296,0,0,1.296,1245.652,273.738)" >
		<tspan x="0" y="0" class="t12">3E01
</tspan>
	</text>
	<text id="3165F" style="transform: matrix(1.296,0,0,1.296,63.138,161.166)" >
		<tspan x="0" y="0" class="t12">3165F
</tspan>
	</text>
	<text id="3165A" style="transform: matrix(1.296,0,0,1.296,2.488,204.702)" >
		<tspan x="0" y="0" class="t12">3165A
</tspan>
	</text>
	<text id="3100" style="transform: matrix(1.296,0,0,1.296,1472.077,230.202)" >
		<tspan x="0" y="0" class="t12">3100
</tspan>
	</text>
	<text id="3165E" style="transform: matrix(1.296,0,0,1.296,60.961,131.313)" >
		<tspan x="0" y="0" class="t12">3165E
</tspan>
	</text>
	<text id="3123" style="transform: matrix(1.296,0,0,1.296,870.557,266.897)" >
		<tspan x="0" y="0" class="t12">3123
</tspan>
	</text>
	<text id="3C01" style="transform: matrix(1.296,0,0,1.296,1458.703,248.239)" >
		<tspan x="0" y="0" class="t12">3C01
</tspan>
	</text>
	<text id="3127A" style="transform: matrix(1.296,0,0,1.296,835.411,181.068)" >
		<tspan x="0" y="0" class="t12">3127A
</tspan>
	</text>
	<text id="3165" style="transform: matrix(1.296,0,0,1.296,37.634,174.849)" >
		<tspan x="0" y="0" class="t12">3165
</tspan>
	</text>
	<text id="3157" style="transform: matrix(1.296,0,0,1.296,125.343,204.08)" >
		<tspan x="0" y="0" class="t12">3157
</tspan>
	</text>
	<text id="3107" style="transform: matrix(1.296,0,0,1.296,1268.045,287.421)" >
		<tspan x="0" y="0" class="t12">3107
</tspan>
	</text>
	<text id="3149 3147" style="transform: matrix(1.296,0,0,1.296,415.139,201.405)" >
		<tspan x="0" y="6.5" class="t12">3149</tspan><tspan  y="6.5" class="t10">
</tspan>
		<tspan x="21" y="10.8" class="t10">3147
</tspan>
	</text>
</svg>