<svg version="1.2" xmlns="http://www.w3.org/2000/svg" viewBox="0 0 1500 739" width="1500" height="739">
	<title>New Project</title>
	<style>
		tspan { white-space:pre } 
		.s0 { fill: #e1e1e1;stroke: #6e6e6e;stroke-linecap: round;stroke-linejoin: round;stroke-width: 3.8 } 
		.s1 { fill: #ffffbe;stroke: #6e6e6e;stroke-linecap: round;stroke-linejoin: round;stroke-width: 3.8 } 
		.s2 { fill: #ffaa00;stroke: #6e6e6e;stroke-linecap: round;stroke-linejoin: round;stroke-width: 3.8 } 
		.s3 { fill: #fcd4f0;stroke: #6e6e6e;stroke-linecap: round;stroke-linejoin: round;stroke-width: 3.8 } 
		.s4 { fill: #fcccb3;stroke: #6e6e6e;stroke-linecap: round;stroke-linejoin: round;stroke-width: 3.8 } 
		.s5 { fill: #c5c7fc;stroke: #6e6e6e;stroke-linecap: round;stroke-linejoin: round;stroke-width: 3.8 } 
		.s6 { fill: #cdcd66;stroke: #6e6e6e;stroke-linecap: round;stroke-linejoin: round;stroke-width: 3.8 } 
		.s7 { fill: #0070ff;stroke: #6e6e6e;stroke-linecap: round;stroke-linejoin: round;stroke-width: 3.8 } 
		.t8 { font-size: 9px;fill: #000000;font-family: "Arial" } 
		.t9 { font-size: 9px;line-height: 10px;fill: #000000;font-family: "Arial" } 
		.t10 { font-size: 9px;line-height: 14px;fill: #000000;font-family: "Arial" } 
		.t11 { font-size: 9px;line-height: 9px;fill: #000000;font-family: "Arial" } 
		.s12 { fill: none;stroke: #000000;stroke-linecap: round;stroke-linejoin: round;stroke-width: 1.9 } 
	</style>
	<path id="Path 2" fill-rule="evenodd" class="s0" d="m106.6 291.6v37.9h-36.2v-37.9z"/>
	<path id="Path 3" fill-rule="evenodd" class="s1" d="m4.5 229.5h65.9v3.8l11.9-0.5v58.8h-11.9v33h-33v-45.9h-32.9z"/>
	<path id="Path 4" fill-rule="evenodd" class="s2" d="m37.4 278.7v53.5h-32.9v-53.5z"/>
	<path id="Path 5" fill-rule="evenodd" class="s1" d="m106.6 229.5v15.2h-24.3v-15.2z"/>
	<path id="Path 6" fill-rule="evenodd" class="s1" d="m103.9 371.6v24.3h65.9 0.5 32.4l-0.5-23.8h0.5 35.2v90.2h-104.8v5.4h-65.9v-96.1z"/>
	<path id="Path 7" fill-rule="evenodd" class="s1" d="m170.3 362.9v33h-66.4v-33z"/>
	<path id="Path 8" fill-rule="evenodd" class="s3" d="m367.5 413.7v2.7 49.7h-77.8-23.2v-65.9h14v-25.4h10.3v-9.7h76.7z"/>
	<path id="Path 9" fill-rule="evenodd" class="s3" d="m277.3 531.5v-32.5-4.8h82.1l0.5 4.8v83.8h-27v10.2h-62.6-3.8v-61.5z"/>
	<path id="Path 10" fill-rule="evenodd" class="s1" d="m303.2 617.9v10.2h-28.1v-10.2z"/>
	<path id="Path 11" fill-rule="evenodd" class="s1" d="m359.9 617.9v10.2h-26.4v-10.2z"/>
	<path id="Path 12" fill-rule="evenodd" class="s3" d="m270.3 699.4v-37.2l89.6 0.5-0.5 37.3z"/>
	<path id="Path 13" fill-rule="evenodd" class="s3" d="m270.3 662.2v-34.1h89.6l-0.5 34.6z"/>
	<path id="Path 14" fill-rule="evenodd" class="s0" d="m227.1 699.4v33h-62.2v-33z"/>
	<path id="Path 15" fill-rule="evenodd" class="s4" d="m236.8 529.3v34.6h-30.8v67.5h30.8v34h-9.7v34h-94.6l0.6-204.1h82.6 13v34z"/>
	<path id="Path 16" fill-rule="evenodd" class="s4" d="m236.8 563.9v67.5h-30.8v-67.5z"/>
	<path id="Path 17" fill-rule="evenodd" class="s2" d="m228.7 495.3h-13v-33h22.2v33z"/>
	<path id="Path 18" fill-rule="evenodd" class="s2" d="m67.2 362.4v70.8h-31.9v-70.8z"/>
	<path id="Path 19" fill-rule="evenodd" class="s0" d="m82.3 244.7h24.3v46.9l-24.3-0.5z"/>
	<path id="Path 20" fill-rule="evenodd" class="s0" d="m137.9 239.3v92.9h-31.3v-92.9z"/>
	<path id="Path 21" fill-rule="evenodd" class="s3" d="m170.3 229.5v102.7h-32.4v-102.7z"/>
	<path id="Path 22" fill-rule="evenodd" class="s5" d="m242.7 229.5v96.2h-4.8-31.9-35.7v-96.2z"/>
	<path id="Path 23" fill-rule="evenodd" class="s1" d="m206 325.7v6.5h-35.7v-6.5z"/>
	<path id="Path 24" fill-rule="evenodd" class="s1" d="m337.3 328.4h-67v-2.7h-27.6v-96.2h94.6z"/>
	<path id="Path 25" fill-rule="evenodd" class="s1" d="m459.9 229.5v105.4h-96.7v-6.5h-25.9v-98.9z"/>
	<path id="Path 26" fill-rule="evenodd" class="s1" d="m507.4 373.7l0.6 30.8v30.3l-3.8 30.2-64.9 6-64.2-6.5-7.6-48.1 7.6-44.3 65.9-5.9z"/>
	<path id="Path 27" fill-rule="evenodd" class="s0" d="m227.1 699.4v-34h9.7v-34-102.1h-8.1v-34h9.2v-33-90.2h42.6v28.1h-14v65.9 27.5h10.8v37.9h-10.8v61.5h3.8v35.1 71.3h1.6v34.6h-44.8z"/>
	<path id="Path 28" fill-rule="evenodd" class="s1" d="m488.5 229.5h18.9v14.6h33v35.1h-51.9z"/>
	<path id="Path 29" fill-rule="evenodd" class="s1" d="m508.5 307.8h-20v-28.6h43.8v28.6z"/>
	<path id="Path 30" fill-rule="evenodd" class="s1" d="m587.4 259.2v30.8h-30.3v-30.8z"/>
	<path id="Path 31" fill-rule="evenodd" class="s1" d="m650.6 259.2v30.8h-63.2v-30.8z"/>
	<path id="Path 32" fill-rule="evenodd" class="s1" d="m713.8 290h-31.9-31.3v-30.8h63.2z"/>
	<path id="Path 33" fill-rule="evenodd" class="s1" d="m587.4 290v30.3h-30.3v-30.3z"/>
	<path id="Path 34" fill-rule="evenodd" class="s1" d="m650.6 290v30.3h-63.2v-30.3z"/>
	<path id="Path 35" fill-rule="evenodd" class="s1" d="m681.9 290v30.3h-31.3v-30.3z"/>
	<path id="Path 36" fill-rule="evenodd" class="s1" d="m713.8 290v30.3h-31.9v-30.3z"/>
	<path id="Path 37" fill-rule="evenodd" class="s1" d="m577.6 211.7v32.4h-70.2v-32.4z"/>
	<path id="Path 38" fill-rule="evenodd" class="s1" d="m648.9 211.7v32.4h-71.3v-32.4z"/>
	<path id="Path 39" fill-rule="evenodd" class="s1" d="m710.5 211.7v32.4h-61.6v-32.4z"/>
	<path id="Path 40" fill-rule="evenodd" class="s1" d="m775.3 211.7v32.4h-64.8v-32.4z"/>
	<path id="Path 41" fill-rule="evenodd" class="s1" d="m731.1 244.1h44.2v-3.8h37.3v71.3h-81.5z"/>
	<path id="Path 42" fill-rule="evenodd" class="s1" d="m731.1 244.1v67.5h45.9l-0.6 42.2-10.2 3.7-7.6 2.7-5.4 2.2-15.1 3.2-16.2 2.7-14.6 2.2-15.1 1.6-14.6 0.6h-26l-9.7-0.6-15.1-0.5-15.1-2.2-14.6-2.7-14.1-2.7-12.9-3.8-9.7-3.2-10.9-3.8-17.2-6.5-7.1-3.2-6.4-2.2-5.4-2.7-4.9-2.1v-28.7h23.8v-28.6h8.1v-35.1zm-174 76.2h156.7v-61.1h-156.7z"/>
	<path id="Path 43" fill-rule="evenodd" class="s2" d="m542.5 437.5v0.5h-30.2-4.3v-33.5l34.5 0.6z"/>
	<path id="Path 44" fill-rule="evenodd" class="s2" d="m542.5 438l0.6 33h-30.8v-33z"/>
	<path id="Path 45" fill-rule="evenodd" class="s1" d="m640.8 407.2v30.3h-98.3v-32.4h98.3z"/>
	<path id="Path 46" fill-rule="evenodd" class="s1" d="m728.4 475.3v2.7h-31.4v-27.6h31.4z"/>
	<path id="Path 47" fill-rule="evenodd" class="s1" d="m738.6 509.3v22.2h-42.7v-22.2z"/>
	<path id="Path 48" fill-rule="evenodd" class="s1" d="m796.4 407.2v53h-35.1v71.3h-22.7v-22.2-34h-10.2v-24.9h-31.4-29.1v-15.6h29.7 30.8v-27.6z"/>
	<path id="Path 49" fill-rule="evenodd" class="s1" d="m697 478h-1.1-28v-27.6h29.1z"/>
	<path id="Path 50" fill-rule="evenodd" class="s1" d="m697.6 407.2v27.6h-29.7v-27.6z"/>
	<path id="Path 51" fill-rule="evenodd" class="s1" d="m796.4 498.5v38.4h-35.1v-38.4z"/>
	<path id="Path 52" fill-rule="evenodd" class="s1" d="m728.4 407.2v27.6h-30.8v-27.6z"/>
	<path id="Path 53" fill-rule="evenodd" class="s1" d="m695.9 531.5h42.7 14.6v22.1h-57.3z"/>
	<path id="Path 54" fill-rule="evenodd" class="s1" d="m738.6 509.3h-42.7v-31.3h1.1 31.4v-2.7h10.2z"/>
	<path id="Path 55" fill-rule="evenodd" class="s1" d="m796.4 460.2v38.3h-35.1v-38.3z"/>
	<path id="Path 56" fill-rule="evenodd" class="s0" d="m836.4 553.6l0.5-87.5h-2.1v-13h28.6l24.3 84.8-13.5 2.7v12.5z"/>
	<path id="Path 57" fill-rule="evenodd" class="s0" d="m812.6 211.7v28.6h-37.3v-28.6z"/>
	<path id="Path 58" fill-rule="evenodd" class="s0" d="m804 123.1v88.6h-30.8v-88.6z"/>
	<path id="Path 59" fill-rule="evenodd" class="s0" d="m804 52.4v70.7h-30.8v-70.7z"/>
	<path id="Path 60" fill-rule="evenodd" class="s0" d="m869.9 244.7l-0.6 28.6h-31.3l0.6-28.6z"/>
	<path id="Path 61" fill-rule="evenodd" class="s6" d="m1090.3 219.3v37.2h-33.5v-37.2z"/>
	<path id="Path 62" fill-rule="evenodd" class="s6" d="m1129.7 219.3v37.2h-39.4v-37.2z"/>
	<path id="Path 63" fill-rule="evenodd" class="s6" d="m1164.8 219.3v37.2h-35.1v-37.2z"/>
	<path id="Path 64" fill-rule="evenodd" class="s6" d="m1202.1 219.3v37.2h-37.3v-37.2z"/>
	<path id="Path 65" fill-rule="evenodd" class="s6" d="m1238.8 219.3v37.2h-36.7v-37.2z"/>
	<path id="Path 66" fill-rule="evenodd" class="s2" d="m1132.4 109.6v41.1h-79.9v-41.1z"/>
	<path id="Path 67" fill-rule="evenodd" class="s2" d="m1178.3 109.6v71.3h-45.9v-71.3z"/>
	<path id="Path 68" fill-rule="evenodd" class="s0" d="m1201 109.6v23.8h-22.7v-23.8z"/>
	<path id="Path 69" fill-rule="evenodd" class="s2" d="m1201 133.4v21.1h-22.7v-21.1z"/>
	<path id="Path 70" fill-rule="evenodd" class="s2" d="m1201 154.5v26.4h-22.7v-26.4z"/>
	<path id="Path 71" fill-rule="evenodd" class="s1" d="m1348.5 223.1v33.4h-37.3v-33.4z"/>
	<path id="Path 72" fill-rule="evenodd" class="s6" d="m1348.5 187.4v35.7h-37.3v-35.7z"/>
	<path id="Path 73" fill-rule="evenodd" class="s1" d="m1488.4 187.4v42.1h-26.5v-42.1z"/>
	<path id="Path 74" fill-rule="evenodd" class="s1" d="m1461.9 187.4v42.1h-81v-42.1z"/>
	<path id="Path 75" fill-rule="evenodd" class="s1" d="m1380.9 187.4v42.1h-32.4v-42.1z"/>
	<path id="Path 76" fill-rule="evenodd" class="s1" d="m1397.7 229.5v27h-49.2v-27z"/>
	<path id="Path 77" fill-rule="evenodd" class="s1" d="m1448.4 229.5v27h-50.7v-27z"/>
	<path id="Path 78" fill-rule="evenodd" class="s1" d="m1496.5 229.5v27h-48.1v-27z"/>
	<path id="Path 79" fill-rule="evenodd" class="s6" d="m1238.8 256.5v-42.6l27.6-26.5h44.8v69.1z"/>
	<path id="Path 80" fill-rule="evenodd" class="s7" d="m991.4 138.3v34.5h-38.3v-34.5z"/>
	<path id="Path 81" fill-rule="evenodd" class="s7" d="m991.4 109.6v28.7h-38.9v-28.7z"/>
	<path id="Path 82" fill-rule="evenodd" class="s7" d="m953.1 172.8h-38.9v-63.2h38.3z"/>
	<path id="Path 83" fill-rule="evenodd" class="s6" d="m1056.8 210.1v75.6h-158.8v-75.6z"/>
	<path id="Path 84" fill-rule="evenodd" class="s0" d="m887.7 537.9l-6.5-22.1 2.7-0.6 7.1-1 6.4-2.2 7.6-2.7 7.6-2.7 19.4-10.3 5.4-2.7 4.3-2.7 4.3-2.7 4.9-3.2 14.1 17.3-3.8 3.2-3.8 2.7-3.8 2.7-4.3 2.7-3.8 2.7-3.8 2.7-4.3 2.2-4.3 1.6-3.8 2.2-4.9 2.1-3.7 1.7-5.4 2.1-5.4 2.2-5.4 1.1-6.5 2.1-5.4 1.1z"/>
	<path id="Path 85" fill-rule="evenodd" class="s0" d="m913.6 337h147l0.5 10.3 0.6 7.5-0.6 7.1-0.5 7.5-1.1 7.6-2.2 10.8-2.1 9.7-3.3 10.8-2.7 8.1-4.3 11.4-4.3 9.7-5.4 9.2-4.9 8.1-7.5 11.3-7.6 9.2-8.1 10.2-7.6 7.1-9.7 8.1-7 4.8-10.8 6-58.9-73.5z"/>
	<path id="Path 86" fill-rule="evenodd" class="s0" d="m1286.9 36.7v73.5h-34v-73.5z"/>
	<path id="Path 87" fill-rule="evenodd" class="s0" d="m1496.5 109.6v29.2h-44.8v-29.2z"/>
	<path id="Path 88" fill-rule="evenodd" class="s0" d="m1266.4 187.4l-27.6 26.5v5.4h-182v-9.2h-158.8v63.2h-28.7l0.6-28.6h-31.3l-0.6 28.6-25.4 0.5v-62.1h-8.6v-134.5-28.1h7.5l30.3-0.5v124.8l149.6-0.6v-63.2h61.1v41.1 30.8l148.5-0.6v-71.3h250.7v29.2h10.2v48.6z"/>
	<path id="Path 89" fill-rule="evenodd" class="s0" d="m914.2 172.8l-71.9 0.6-0.5-63.8h72.4z"/>
	<path id="Path 90" fill-rule="evenodd" class="s0" d="m1018.4 285.7v51.3h-44.3v-51.3z"/>
	<path id="Path 91" fill-rule="evenodd" class="s0" d="m1132.4 150.7v30.8h-79.9v-30.8z"/>
	<path id="Path 92" fill-rule="evenodd" class="s0" d="m70.4 324.6v4.9h36.2v2.7h63.7 35.7v-6.5h31.9v46.4h-35.2-0.5l0.5-9.2h-32.4-66.4v8.7h-36.7v-9.2h-31.9v-30.2h2.1v-7.6z"/>
	<path id="Path 93" fill-rule="evenodd" class="s1" d="m202.7 395.9h-32.4v-33h32.4v9.2z"/>
	<path id="Path 94" fill-rule="evenodd" class="s0" d="m488.5 279.2v28.6h20v28.7l4.9 2.1 5.4 2.7 13.5 5.4 8.6 3.3 8.6 3.2 10.9 3.8 9.7 3.2 12.9 3.8 14.1 2.7 14.6 2.7 15.1 2.2 15.1 0.5 9.7 0.6h14.1 11.9l14.6-0.6 15.1-1.6 14.6-2.2 16.2-2.7 20.5-5.4 17.8-6.4 0.6-42.2h19.4v95.6h-68-30.8-29.7-27.1v-2.1h-98.3l-34.5-0.6-0.6-30.8-66.4-7.5-65.9 5.9-7.6 41.6v-48.6h-76.7v9.7h-10.3v-2.7h-42.6v-46.4h4.8 27.6v2.7h92.9v6.5h96.7v-105.4h28.6z"/>
	<path id="Path 95" fill-rule="evenodd" class="s0" d="m667.9 478h-27.1v-70.8h27.1v27.6 15.6z"/>
	<path id="Path 96" fill-rule="evenodd" class="s0" d="m764.5 553.6l0.6-16.7h31.3v-83.8h38.4v13h2.1l-0.5 87.5z"/>
	<path id="Path 97" fill-rule="evenodd" class="s0" d="m796.4 453.1v-141.5h16.2v-37.8l85.4-0.5v12.4h76.1v51.3h-60.5l-0.5 101 37.8 47-4.9 3.2-2.1 1.7-4.3 2.1-3.8 2.7-3.8 1.6-4.3 2.7-4.3 2.2-3.8 2.2-3.8 1.6-3.2 1.6-4.9 1.6-4.9 2.2-4.3 1.6-4.8 1.1-6 1.6-6.5 1.1-17.8-62.7z"/>
	<path id="Path 98" fill-rule="evenodd" class="s0" d="m359.9 582.8v35.1h-26.4v10.2h-30.3v-10.2h-28.1v10.2h-4.8v-35.1h62.6v-10.2z"/>
	<path id="Path 99" fill-rule="evenodd" class="s2" d="m277.3 531.5v-37.9h-10.8v-27.5h21.1v28.1h-10.3v4.8z"/>
	<path id="Path 100" fill-rule="evenodd" class="s0" d="m1488.4 138.8v48.6h-26.5v-48.6z"/>
	<text id="1C11" style="transform: matrix(1.125,0,0,1.125,1319.594,152.285)" >
		<tspan x="0" y="0" class="t8">1C11
</tspan>
	</text>
	<text id="1415 1C20" style="transform: matrix(1.125,0,0,1.125,377.747,342.779)" >
		<tspan x="242" y="6.5" class="t8">1415</tspan><tspan  y="6.5" class="t9">
</tspan>
		<tspan x="0" y="16.1" class="t9">1C20
</tspan>
	</text>
	<text id="1C10" style="transform: matrix(1.125,0,0,1.125,842.333,379.129)" >
		<tspan x="0" y="0" class="t9">1C10
</tspan>
	</text>
	<text id="1400" style="transform: matrix(1.125,0,0,1.125,970.089,410.455)" >
		<tspan x="0" y="0" class="t9">1400
</tspan>
	</text>
	<text id="1444" style="transform: matrix(1.125,0,0,1.125,157.637,601.113)" >
		<tspan x="0" y="0" class="t9">1444
</tspan>
	</text>
	<text id="1430" style="transform: matrix(1.125,0,0,1.125,140.891,432.6)" >
		<tspan x="0" y="0" class="t9">1430
</tspan>
	</text>
	<text id="1420" style="transform: matrix(1.125,0,0,1.125,426.653,422.338)" >
		<tspan x="0" y="0" class="t9">1420
</tspan>
	</text>
	<text id="1421" style="transform: matrix(1.125,0,0,1.125,386.679,285.151)" >
		<tspan x="0" y="0" class="t9">1421
</tspan>
	</text>
	<text id="1337" style="transform: matrix(1.125,0,0,1.125,965.767,251.124)" >
		<tspan x="0" y="0" class="t9">1337
</tspan>
	</text>
	<text id="1C40" style="transform: matrix(1.125,0,0,1.125,239.476,563.845)" >
		<tspan x="0" y="0" class="t9">1C40
</tspan>
	</text>
	<text id="1441" style="transform: matrix(1.125,0,0,1.125,305.11,419.097)" >
		<tspan x="0" y="0" class="t9">1441
</tspan>
	</text>
	<text id="1427" style="transform: matrix(1.125,0,0,1.125,278.1,281.91)" >
		<tspan x="0" y="0" class="t9">1427
</tspan>
	</text>
	<text id="1445" style="transform: matrix(1.125,0,0,1.125,301.329,547.642)" >
		<tspan x="0" y="0" class="t9">1445
</tspan>
	</text>
	<text id="1429" style="transform: matrix(1.125,0,0,1.125,194.91,281.37)" >
		<tspan x="0" y="0" class="t9">1429
</tspan>
	</text>
	<text id="1C30" style="transform: matrix(1.125,0,0,1.125,124.415,351.044)" >
		<tspan x="0" y="0" class="t9">1C30
</tspan>
	</text>
	<text id="1410" style="transform: matrix(1.125,0,0,1.125,750.77,455.284)" >
		<tspan x="0" y="0" class="t9">1410
</tspan>
	</text>
	<text id="1435" style="transform: matrix(1.125,0,0,1.125,31.772,271.648)" >
		<tspan x="0" y="0" class="t9">1435
</tspan>
	</text>
	<text id="1312" style="transform: matrix(1.125,0,0,1.125,1263.414,225.739)" >
		<tspan x="0" y="0" class="t9">1312
</tspan>
	</text>
	<text id="1336" style="transform: matrix(1.125,0,0,1.125,866.371,145.263)" >
		<tspan x="0" y="0" class="t9">1336
</tspan>
	</text>
	<text id="1415A" style="transform: matrix(1.125,0,0,1.125,756.982,280.83)" >
		<tspan x="0" y="0" class="t9">1415A
</tspan>
	</text>
	<text id="1C01" style="transform: matrix(1.125,0,0,1.125,803.979,511.995)" >
		<tspan x="0" y="0" class="t9">1C01
</tspan>
	</text>
	<text id="1S10" style="transform: matrix(1.125,0,0,1.125,844.223,506.594)" >
		<tspan x="0" y="0" class="t9">1S10
</tspan>
	</text>
	<text id="1310" style="transform: matrix(1.125,0,0,1.125,1409.806,212.236)" >
		<tspan x="0" y="0" class="t9">1310
</tspan>
	</text>
	<text id="1431" style="transform: matrix(1.125,0,0,1.125,142.512,284.611)" >
		<tspan x="0" y="0" class="t9">1431
</tspan>
	</text>
	<text id="1456" style="transform: matrix(1.125,0,0,1.125,303.489,684.829)" >
		<tspan x="0" y="0" class="t9">1456
</tspan>
	</text>
	<text id="1325" style="transform: matrix(1.125,0,0,1.125,1143.491,149.044)" >
		<tspan x="0" y="0" class="t9">1325
</tspan>
	</text>
	<text id="1331" style="transform: matrix(1.125,0,0,1.125,1080.828,133.921)" >
		<tspan x="0" y="0" class="t9">1331
</tspan>
	</text>
	<text id="1416" style="transform: matrix(1.125,0,0,1.125,580.069,425.038)" >
		<tspan x="0" y="0" class="t9">1416
</tspan>
	</text>
	<text id="1455" style="transform: matrix(1.125,0,0,1.125,303.489,649.182)" >
		<tspan x="0" y="0" class="t9">1455
</tspan>
	</text>
	<text id="1S30" style="transform: matrix(1.125,0,0,1.125,110.1,289.471)" >
		<tspan x="0" y="0" class="t9">1S30
</tspan>
	</text>
	<text id="1342" style="transform: matrix(1.125,0,0,1.125,777.239,171.188)" >
		<tspan x="0" y="0" class="t9">1342
</tspan>
	</text>
	<text id="1C47" style="transform: matrix(1.125,0,0,1.125,302.679,609.754)" >
		<tspan x="0" y="0" class="t9">1C47
</tspan>
	</text>
	<text id="1335" style="transform: matrix(1.125,0,0,1.125,922.011,144.723)" >
		<tspan x="0" y="0" class="t9">1335
</tspan>
	</text>
	<text id="1S06" style="transform: matrix(1.125,0,0,1.125,1080.288,169.568)" >
		<tspan x="0" y="0" class="t9">1S06
</tspan>
	</text>
	<text id="1C03" style="transform: matrix(1.125,0,0,1.125,1257.742,77.21)" >
		<tspan x="0" y="0" class="t9">1C03
</tspan>
	</text>
	<text id="1436" style="transform: matrix(1.125,0,0,1.125,39.335,401.273)" >
		<tspan x="0" y="0" class="t9">1436
</tspan>
	</text>
	<text id="1340" style="transform: matrix(1.125,0,0,1.125,777.239,91.253)" >
		<tspan x="0" y="0" class="t9">1340
</tspan>
	</text>
	<text id="1434" style="transform: matrix(1.125,0,0,1.125,125.225,382.91)" >
		<tspan x="0" y="0" class="t9">1434
</tspan>
	</text>
	<text id="1446" style="transform: matrix(1.125,0,0,1.125,210.036,601.113)" >
		<tspan x="0" y="0" class="t9">1446
</tspan>
	</text>
	<text id="1S40" style="transform: matrix(1.125,0,0,1.125,183.566,719.396)" >
		<tspan x="0" y="0" class="t9">1S40
</tspan>
	</text>
	<text id="1415J" style="transform: matrix(1.125,0,0,1.125,528.21,231.68)" >
		<tspan x="0" y="0" class="t9">1415J
</tspan>
	</text>
	<text id="1C14" style="transform: matrix(1.125,0,0,1.125,641.921,446.102)" >
		<tspan x="0" y="0" class="t9">1C14
</tspan>
	</text>
	<text id="1415K" style="transform: matrix(1.125,0,0,1.125,598.165,231.68)" >
		<tspan x="0" y="0" class="t9">1415K
</tspan>
	</text>
	<text id="1C10A" style="transform: matrix(1.125,0,0,1.125,980.352,314.856)" >
		<tspan x="0" y="0" class="t9">1C10A
</tspan>
	</text>
	<text id="1415S" style="transform: matrix(1.125,0,0,1.125,727.812,231.68)" >
		<tspan x="0" y="0" class="t9">1415S
</tspan>
	</text>
	<text id="1415G 1415L" style="transform: matrix(1.125,0,0,1.125,499.276,255.282)" >
		<tspan x="0" y="6.5" class="t9">1415G</tspan><tspan  y="6.5" class="t10">
</tspan>
		<tspan x="95" y="20.4" class="t10">1415L
</tspan>
	</text>
	<text id="1415R 1326" style="transform: matrix(1.125,0,0,1.125,664.689,224.496)" >
		<tspan x="0" y="6.5" class="t10">1415R</tspan><tspan  y="6.5" class="t11">
</tspan>
		<tspan x="386" y="15.2" class="t11">1326
</tspan>
	</text>
	<text id="1415D" style="transform: matrix(1.125,0,0,1.125,603.837,308.915)" >
		<tspan x="0" y="0" class="t11">1415D
</tspan>
	</text>
	<text id="1415N" style="transform: matrix(1.125,0,0,1.125,667.04,278.129)" >
		<tspan x="0" y="0" class="t11">1415N
</tspan>
	</text>
	<text id="1322" style="transform: matrix(1.125,0,0,1.125,1172.121,241.402)" >
		<tspan x="0" y="0" class="t11">1322
</tspan>
	</text>
	<text id="1435B" style="transform: matrix(1.125,0,0,1.125,6.113,308.915)" >
		<tspan x="0" y="0" class="t11">1435B
</tspan>
	</text>
	<text id="1320" style="transform: matrix(1.125,0,0,1.125,1208.854,241.402)" >
		<tspan x="0" y="0" class="t11">1320
</tspan>
	</text>
	<text id="1333" style="transform: matrix(1.125,0,0,1.125,960.365,159.306)" >
		<tspan x="0" y="0" class="t11">1333
</tspan>
	</text>
	<text id="1E30" style="transform: matrix(1.125,0,0,1.125,76.068,314.316)" >
		<tspan x="0" y="0" class="t11">1E30
</tspan>
	</text>
	<text id="1324" style="transform: matrix(1.125,0,0,1.125,1135.928,241.402)" >
		<tspan x="0" y="0" class="t11">1324
</tspan>
	</text>
	<text id="1417" style="transform: matrix(1.125,0,0,1.125,499.039,297.573)" >
		<tspan x="0" y="0" class="t11">1417
</tspan>
	</text>
	<text id="1S07" style="transform: matrix(1.125,0,0,1.125,1462.205,127.98)" >
		<tspan x="0" y="0" class="t11">1S07
</tspan>
	</text>
	<text id="1328" style="transform: matrix(1.125,0,0,1.125,1061.921,241.402)" >
		<tspan x="0" y="0" class="t11">1328
</tspan>
	</text>
	<text id="1418" style="transform: matrix(1.125,0,0,1.125,513.625,425.038)" >
		<tspan x="0" y="0" class="t11">1418
</tspan>
	</text>
	<text id="1344" style="transform: matrix(1.125,0,0,1.125,782.101,229.52)" >
		<tspan x="0" y="0" class="t11">1344
</tspan>
	</text>
	<text id="1432" style="transform: matrix(1.125,0,0,1.125,174.923,382.91)" >
		<tspan x="0" y="0" class="t11">1432
</tspan>
	</text>
	<text id="1412A" style="transform: matrix(1.125,0,0,1.125,763.464,482.829)" >
		<tspan x="0" y="0" class="t11">1412A
</tspan>
	</text>
	<text id="1310C" style="transform: matrix(1.125,0,0,1.125,1407.645,246.803)" >
		<tspan x="0" y="0" class="t11">1310C
</tspan>
	</text>
	<text id="1412E" style="transform: matrix(1.125,0,0,1.125,701.882,496.872)" >
		<tspan x="0" y="0" class="t11">1412E
</tspan>
	</text>
	<text id="1310E" style="transform: matrix(1.125,0,0,1.125,1349.575,212.236)" >
		<tspan x="0" y="0" class="t11">1310E
</tspan>
	</text>
	<text id="1412B" style="transform: matrix(1.125,0,0,1.125,763.464,521.177)" >
		<tspan x="0" y="0" class="t11">1412B
</tspan>
	</text>
	<text id="1312A" style="transform: matrix(1.125,0,0,1.125,1314.462,208.996)" >
		<tspan x="0" y="0" class="t11">1312A
</tspan>
	</text>
	<text id="1310D" style="transform: matrix(1.125,0,0,1.125,1357.407,246.803)" >
		<tspan x="0" y="0" class="t11">1310D
</tspan>
	</text>
	<text id="1310B" style="transform: matrix(1.125,0,0,1.125,1457.613,246.803)" >
		<tspan x="0" y="0" class="t11">1310B
</tspan>
	</text>
	<text id="1412C" style="transform: matrix(1.125,0,0,1.125,709.175,546.022)" >
		<tspan x="0" y="0" class="t11">1412C
</tspan>
	</text>
	<text id="1312B" style="transform: matrix(1.125,0,0,1.125,1314.462,243.562)" >
		<tspan x="0" y="0" class="t11">1312B
</tspan>
	</text>
	<text id="1E10" style="transform: matrix(1.125,0,0,1.125,842.063,262.466)" >
		<tspan x="0" y="0" class="t11">1E10
</tspan>
	</text>
	<text id="1335A" style="transform: matrix(1.125,0,0,1.125,956.854,127.44)" >
		<tspan x="0" y="0" class="t11">1335A
</tspan>
	</text>
	<text id="1418A" style="transform: matrix(1.125,0,0,1.125,512.274,457.985)" >
		<tspan x="0" y="0" class="t11">1418A
</tspan>
	</text>
	<text id="1415B" style="transform: matrix(1.125,0,0,1.125,682.435,308.915)" >
		<tspan x="0" y="0" class="t11">1415B
</tspan>
	</text>
	<text id="1415F" style="transform: matrix(1.125,0,0,1.125,557.38,308.915)" >
		<tspan x="0" y="0" class="t11">1415F
</tspan>
	</text>
	<text id="1412D" style="transform: matrix(1.125,0,0,1.125,701.612,523.877)" >
		<tspan x="0" y="0" class="t11">1412D
</tspan>
	</text>
	<text id="1414A" style="transform: matrix(1.125,0,0,1.125,697.561,467.706)" >
		<tspan x="0" y="0" class="t11">1414A
</tspan>
	</text>
	<text id="1C11A" style="transform: matrix(1.125,0,0,1.125,1459.774,166.867)" >
		<tspan x="0" y="0" class="t11">1C11A
</tspan>
	</text>
	<text id="BALCONY" style="transform: matrix(1.125,0,0,1.125,897.703,518.476)" >
		<tspan x="0" y="0" class="t11">BALCONY
</tspan>
	</text>
	<text id="1310A" style="transform: matrix(1.125,0,0,1.125,1460.314,212.236)" >
		<tspan x="0" y="0" class="t11">1310A
</tspan>
	</text>
	<text id="1S30A" style="transform: matrix(1.125,0,0,1.125,79.039,271.648)" >
		<tspan x="0" y="0" class="t11">1S30A
</tspan>
	</text>
	<text id="1442" style="transform: matrix(1.125,0,0,1.125,215.438,482.289)" >
		<tspan x="0" y="0" class="t11">1442
</tspan>
	</text>
	<text id="1415C" style="transform: matrix(1.125,0,0,1.125,650.834,308.915)" >
		<tspan x="0" y="0" class="t11">1415C
</tspan>
	</text>
	<text id="1415H" style="transform: matrix(1.125,0,0,1.125,556.84,278.129)" >
		<tspan x="0" y="0" class="t11">1415H
</tspan>
	</text>
	<text id="1414D" style="transform: matrix(1.125,0,0,1.125,697.291,424.498)" >
		<tspan x="0" y="0" class="t11">1414D
</tspan>
	</text>
	<text id="1414C" style="transform: matrix(1.125,0,0,1.125,666.5,424.498)" >
		<tspan x="0" y="0" class="t11">1414C
</tspan>
	</text>
	<text id="1414B 1443" style="transform: matrix(1.125,0,0,1.125,265.221,460.522)" >
		<tspan x="358" y="6.5" class="t11">1414B</tspan><tspan  y="6.5" class="t10">
</tspan>
		<tspan x="0" y="20.9" class="t10">1443
</tspan>
	</text>
	<text id="1E03" style="transform: matrix(1.125,0,0,1.125,1177.523,125.279)" >
		<tspan x="0" y="0" class="t10">1E03
</tspan>
	</text>
	<text id="1325B" style="transform: matrix(1.125,0,0,1.125,1174.552,171.728)" >
		<tspan x="0" y="0" class="t10">1325B
</tspan>
	</text>
	<text id="1325A" style="transform: matrix(1.125,0,0,1.125,1174.552,147.424)" >
		<tspan x="0" y="0" class="t10">1325A
</tspan>
	</text>
	<text id="1451" style="transform: matrix(1.125,0,0,1.125,277.56,626.498)" >
		<tspan x="0" y="0" class="t10">1451
</tspan>
	</text>
	<text id="1435A" style="transform: matrix(1.125,0,0,1.125,79.579,240.862)" >
		<tspan x="0" y="0" class="t10">1435A
</tspan>
	</text>
	<text id="1453" style="transform: matrix(1.125,0,0,1.125,334.821,626.498)" >
		<tspan x="0" y="0" class="t10">1453
</tspan>
	</text>
	<text id="1433" style="transform: matrix(1.125,0,0,1.125,176.544,332.68)" >
		<tspan x="0" y="0" class="t10">1433
</tspan>
	</text>
	<path id="Path 195" fill-rule="evenodd" class="s12" d="m1574.3-148v973.8h-1603.3v-973.8z"/>
</svg>