<svg xmlns="http://www.w3.org/2000/svg" xmlns:xlink="http://www.w3.org/1999/xlink" version="1.1" id="Layer_1" x="0px" y="0px" viewBox="0 0 453.4 202.4" style="enable-background:new 0 0 453.4 202.4;" xml:space="preserve">
<style type="text/css">
	.st0{fill:#fd4e03;}
</style>
<g>
	<g>
		<path class="st0" d="M85.8,88.3h1.1l-0.7,34.3H0v-1.1c4.1-6.1,7.1-17.5,7.1-34.4v-51C7.1,19.1,4,7.8,0,1.7V0.6h80.5L81.9,32h-1.1    C74.3,18.6,64.6,5.6,49.1,5.6c-8.8,0-14.7,6.1-15.1,15.1l0.7,96.6C53.3,115.2,76.6,101.3,85.8,88.3z M174.1,34.9h-29.3V36    c2.4,2.9,5.1,8.8,5.1,18.1c0,6.5-1.4,12.9-4.8,19.9l-8.4,16.9l-15.3-37.6c-2.2-5.7-2.9-9.4-2.9-12.3c0-3.3,0.9-4.6,1.4-4.9V35h-37    v1.1c1.4,1.1,3.4,3.6,6,8.3l0,0c-1.1,0.8-2.1,1.4-2.9,1.8c-1.6,0.8-3.1,1.2-4.5,1.1c-1.3-0.1-2.8-0.3-4.3-0.6    c-1.6-0.3-3.5-0.8-5.6-1.5c-2.2-0.7-4.6-1.7-7.4-2.9c-2.8-1.2-6-2.8-9.6-4.8c-3.3,2.5-6.6,5.2-10,8s-6.7,5.6-10,8.4    c2.8,1.7,5.4,3.2,7.6,4.3c2.3,1.2,4.3,2.1,6.2,2.8s3.7,1.3,5.4,1.6c1.7,0.4,3.3,0.6,4.8,0.7c1.5,0.1,3.1-0.1,4.9-0.7    c1.8-0.6,4-1.7,6.6-3.4s5.7-3.9,9.3-6.8c2.7-2.2,5.9-4.8,9.5-7.8c2,3.7,4.4,8.7,7.2,15.5l18.4,44.7c0.1,0.3,1.5,3.4,1.5,3.4    c4,9.7,13.4,16,23.9,16c-1.4-11.9,0.8-25.5,5-36.3c0.8-2,1.7-3.9,2.6-5.9l7.2-14.5c10.1-20.4,15.6-27,19.2-31.5L174.1,34.9    L174.1,34.9z M424,34.9V36c2.2,2.9,5.3,9.4,5.3,18.4c0,5.7-1.5,12.5-5,19.6l-9,18.2l-15.8-39c-2.2-5.7-2.9-9.4-2.9-12.3    c0-3.3,0.9-4.6,1.4-4.9v-1.1h-37V36c0.5,0.4,1,0.9,1.6,1.6c0,0.1,0.1,0.1,0.1,0.2c0.1,0.1,0.1,0.1,0.2,0.2c0,0.1,0.1,0.1,0.1,0.2    c0.1,0.1,0.1,0.2,0.2,0.2c0,0.1,0.1,0.1,0.1,0.1c0.1,0.1,0.2,0.3,0.3,0.4c0,0.1,0.1,0.1,0.1,0.2c0.1,0.1,0.1,0.2,0.2,0.3    c0,0.1,0.1,0.1,0.1,0.2c0.1,0.1,0.2,0.2,0.2,0.3s0.1,0.1,0.1,0.2c0.1,0.2,0.2,0.3,0.3,0.5c0,0.1,0.1,0.1,0.1,0.2    c0.1,0.1,0.2,0.3,0.2,0.4c0,0.1,0.1,0.2,0.1,0.2c0.1,0.1,0.2,0.3,0.3,0.4c0,0.1,0.1,0.1,0.1,0.2c0.1,0.2,0.2,0.4,0.4,0.6    c0,0.1,0.1,0.1,0.1,0.2c0.1,0.2,0.2,0.3,0.3,0.5c0,0.1,0.1,0.2,0.1,0.3c0.1,0.2,0.2,0.3,0.3,0.5c0,0.1,0.1,0.2,0.1,0.2    c0.1,0.2,0.3,0.5,0.4,0.8c0,0.1,0.1,0.1,0.1,0.2c0.1,0.2,0.2,0.4,0.3,0.6c0,0.1,0.1,0.2,0.1,0.3c0.1,0.2,0.2,0.4,0.3,0.6    c0,0.1,0.1,0.2,0.1,0.3c0.1,0.3,0.3,0.6,0.5,0.9c0,0.1,0.1,0.1,0.1,0.2c0.1,0.2,0.2,0.5,0.4,0.8c0,0.1,0.1,0.2,0.2,0.3    c0.1,0.2,0.2,0.5,0.4,0.7c0,0.1,0.1,0.2,0.1,0.3c0.2,0.3,0.3,0.7,0.5,1.1c0,0.1,0.1,0.1,0.1,0.2c0.1,0.3,0.3,0.6,0.4,0.9    c0.1,0.1,0.1,0.3,0.2,0.4c0.1,0.3,0.2,0.6,0.4,0.8c0,0.1,0.1,0.2,0.2,0.4c0.2,0.4,0.4,0.8,0.5,1.2c0,0.1,0,0.1,0.1,0.1    c0.2,0.4,0.3,0.8,0.5,1.2c0.1,0.1,0.1,0.3,0.2,0.4c0.1,0.3,0.3,0.6,0.4,0.9c0.1,0.1,0.1,0.3,0.2,0.4c0.2,0.4,0.4,0.9,0.6,1.4l0,0    l21.8,53c1.1,2.8,3.2,5,5.8,6.3l0,0l0,0l0,0c0,0.1-0.4,0.8-3.9,7.8c-0.2,0.1-0.4,0.2-0.5,0.3c-3.6,2.1-7.9,3.3-12.6,3.3    c-16,0-28.1-12.2-28.1-28.1V0l-33.3,15.5v1.1c2.8,2.2,7.8,9.6,7.6,26.1l-0.1,4.3c-0.3,0.1-0.6,0.1-1,0c-1.2-0.1-2.6-0.3-4.1-0.6    s-3.3-0.8-5.3-1.5s-4.4-1.7-7-2.9s-5.6-2.8-9-4.7c-3.1,2.5-16.9,13.7-20,16.5c2.6,1.7,5,3.1,7.1,4.3s4.1,2.1,5.9,2.8    s3.5,1.2,5,1.6s3.1,0.6,4.6,0.7c1.4,0.1,2.9-0.1,4.6-0.7c1.7-0.6,3.8-1.7,6.2-3.4s5.4-4,8.8-6.9c1.3-1.1,2.6-2.2,4.1-3.5L330,89.6    c-0.2,19,15.1,34.6,34.2,34.6h1.9l-14.4,23.5c1.5,1,3.1,1.9,4.8,2.6l0,0c0,0,0.1,0,0.1,0.1c4,1.7,8.4,2.7,13.1,2.7    c12.7,0,23.7-7.2,29.2-17.7l6.3-11c0.6-1.1,1.3-2.3,2-3.6l0,0l0,0l0,0l26.5-53.2c8.2-16.5,14.6-26.2,19.2-31.5V35L424,34.9    L424,34.9z M294.2,124h-1.9c-19,0-34-15.5-33.7-34.5v-1.9v-0.8c0-0.2-0.2-0.4-0.4-0.4c-0.2,0-0.4,0.2-0.4,0.4l0,0    c-4.8,19.4-25,35.9-46.5,35.9c-0.2,0-0.4,0-0.6,0c-0.2,0-0.4,0-0.6,0l0,0c-24.6-0.6-43.6-19.3-43.6-43.9    c0-26.2,17.2-45.3,43.7-45.3c16.8,0,34.6,9.9,34.6,32.9h-52.7c-0.6,0-1.1,0.4-1.1,1c-0.1,0.9-0.1,1.7-0.1,2.6    c0,19,14.9,31.6,33.6,31.6c13.9,0,30.8-10.5,34-24.9c0.1-0.4,0.1-0.8,0.1-1.2c0.3-16.5-4.8-23.3-7.6-25.5v-1l33.3-15.5v69    C284.5,111.3,288.2,118.9,294.2,124z M191.7,62h8.8c7.6,0,23.4-0.9,23.4-15.1c0-5.5-3.7-10.1-11.3-10.1    C202.6,36.8,193.2,46.7,191.7,62z" fill="#000000"/>
	</g>
	<g>
		<path class="st0" d="M0,165.9h3.9v25.6h14.4v3.4H0V165.9z" fill="#000000"/>
		<path class="st0" d="M22.4,165.9h4v4.2h-4V165.9z M26.2,194.9h-3.6v-21.1h3.6V194.9z" fill="#000000"/>
		<path class="st0" d="M42.1,168.8c-0.6-0.1-1-0.1-1.6-0.1c-2.1,0-3.3,0.9-3.3,3.6v1.4h4.7v3.1h-4.7v18h-3.6v-18h-3.2v-3.1h3.2V172    c0-4.1,2.3-6.6,6.6-6.6c0.7,0,1.1,0,1.9,0.1L42.1,168.8L42.1,168.8z" fill="#000000"/>
		<path class="st0" d="M44.4,184.4c0-6.3,4-11,9.7-11c5.9,0,9,4.5,9,10.3v1.2H47.9c0.2,4.4,2.7,7.3,6.4,7.3c2.8,0,4.8-1.5,5.5-4    l3.2,1.1c-1.3,3.8-4.5,6-8.7,6C48.4,195.4,44.4,190.9,44.4,184.4z M48.1,182.2h11.4c-0.1-3-1.7-5.6-5.4-5.6    C51,176.5,48.7,178.6,48.1,182.2z" fill="#000000"/>
		<path class="st0" d="M82.2,194.9h-3.9v-29h3.9V194.9z" fill="#000000"/>
		<path class="st0" d="M88.9,173.8h3.6v2.9c1.2-1.7,3.3-3.3,6.3-3.3c4.5,0,7,3.1,7,7.6v13.9h-3.6V182c0-2.9-1.2-5.2-4.4-5.2    c-2.6,0-5.3,2-5.3,5.5v12.6h-3.6V173.8L88.9,173.8z" fill="#000000"/>
		<path class="st0" d="M112.9,188.4c1.1,2.5,3.7,4,6.5,4c2.5,0,4.6-1,4.6-3.4c0-2.3-2-2.6-5.5-3.4c-3.5-0.8-7.1-1.5-7.1-5.9    c0-3.8,3.3-6.4,7.8-6.4c3.8,0,6.9,1.9,8.1,4.4l-2.6,2.1c-1.1-2.1-3.1-3.4-5.7-3.4c-2.4,0-4,1.2-4,3.1c0,2,1.9,2.3,4.8,3    c3.6,0.9,7.8,1.6,7.8,6.2c0,4-3.7,6.7-8.2,6.7c-3.8,0-7.7-1.6-9.3-4.9L112.9,188.4z" fill="#000000"/>
		<path class="st0" d="M149.3,194.9h-3.6V192c-1.2,1.8-3.3,3.4-6.2,3.4c-4.5,0-7.1-3.1-7.1-7.6v-14h3.6V187c0,3,1.3,5,4.4,5    c2.6,0,5.3-2,5.3-5.5v-12.7h3.6V194.9L149.3,194.9z" fill="#000000"/>
		<path class="st0" d="M166.7,177.4c-0.6-0.1-1.1-0.2-1.8-0.2c-3.1,0-5.5,2.4-5.5,6.1v11.5h-3.6v-21.1h3.6v3.6    c0.9-2.1,3-3.8,5.9-3.8c0.6,0,1.1,0,1.4,0.1L166.7,177.4L166.7,177.4z" fill="#000000"/>
		<path class="st0" d="M169.8,189.2c0-4.2,3.3-5.9,8-6.9l5.1-1.1v-0.9c0-2.4-1.3-3.8-4.2-3.8c-2.7,0-4.2,1.2-4.9,3.6l-3.4-0.9    c1-3.4,4.1-5.9,8.4-5.9c4.7,0,7.6,2.3,7.6,6.8v10.3c0,1.4,0.9,1.8,2.3,1.5v2.9c-3.2,0.4-5.1-0.4-5.5-2.4c-1.3,1.6-3.6,2.7-6.5,2.7    C172.9,195.3,169.8,193,169.8,189.2z M182.9,184.1l-4.1,0.9c-3.2,0.6-5.4,1.5-5.4,4.1c0,2.1,1.5,3.3,3.8,3.3    c3.1,0,5.7-1.9,5.7-4.6V184.1L182.9,184.1z" fill="#000000"/>
		<path class="st0" d="M193.3,173.8h3.6v2.9c1.2-1.7,3.3-3.3,6.3-3.3c4.5,0,7,3.1,7,7.6v13.9h-3.6V182c0-2.9-1.2-5.2-4.4-5.2    c-2.6,0-5.3,2-5.3,5.5v12.6h-3.6V173.8L193.3,173.8z" fill="#000000"/>
		<path class="st0" d="M225.3,192.2c2.9,0,4.6-1.9,5.2-4.5l3.2,1.5c-1,3.5-4.1,6.2-8.5,6.2c-5.9,0-10-4.5-10-11s4.1-11,10-11    c4.4,0,7.4,2.5,8.4,6.1l-3.1,1.6c-0.6-2.6-2.3-4.5-5.2-4.5c-3.8,0-6.3,3-6.3,7.8C218.9,189.2,221.5,192.2,225.3,192.2z" fill="#000000"/>
		<path class="st0" d="M237.2,184.4c0-6.3,4-11,9.7-11c5.9,0,9,4.5,9,10.3v1.2h-15.2c0.2,4.4,2.7,7.3,6.4,7.3c2.8,0,4.8-1.5,5.5-4    l3.2,1.1c-1.3,3.8-4.5,6-8.7,6C241.2,195.4,237.2,190.9,237.2,184.4z M240.8,182.2h11.4c-0.1-3-1.7-5.6-5.4-5.6    C243.8,176.5,241.5,178.6,240.8,182.2z" fill="#000000"/>
		<path class="st0" d="M282.5,191.9c3.8,0,6.5-2.2,7.5-5.9l3.7,1.2c-1.7,5-5.6,8.1-11.2,8.1c-7.5,0-13-6.1-13-14.9s5.5-14.9,13-14.9    c5.5,0,9.5,3.1,11.2,8.1l-3.7,1.2c-1-3.7-3.8-5.9-7.5-5.9c-5.4,0-9.2,4.6-9.2,11.5C273.3,187.3,277.1,191.9,282.5,191.9z" fill="#000000"/>
		<path class="st0" d="M307,195.4c-5.8,0-9.8-4.4-9.8-11s4-11,9.8-11s9.8,4.4,9.8,11C316.9,190.9,312.8,195.4,307,195.4z M307,192.2    c3.7,0,6.1-3.1,6.1-7.9c0-4.8-2.4-7.9-6.1-7.9s-6.1,3.1-6.1,7.9C300.9,189.2,303.3,192.2,307,192.2z" fill="#000000"/>
		<path class="st0" d="M325.7,194.9h-3.6v-21.1h3.6v2.9c1.1-1.7,3.1-3.3,6.1-3.3c2.8,0,4.8,1.4,5.9,3.6c1.2-1.7,3.4-3.6,6.7-3.6    c4.4,0,7,3.1,7,7.6v13.9h-3.6V182c0-2.9-1.2-5.2-4.2-5.2c-2.4,0-5,2.1-5,5.5v12.6H335V182c0-2.9-1.2-5.2-4.2-5.2    c-2.4,0-5,2.1-5,5.5L325.7,194.9L325.7,194.9z" fill="#000000"/>
		<path class="st0" d="M361.4,191.8v10.3h-3.6v-28.4h3.6v3.1c1.2-2.1,3.6-3.5,6.5-3.5c5.9,0,9.2,5,9.2,11s-3.4,11-9.2,11    C365,195.4,362.6,193.9,361.4,191.8z M361.3,185.1c0,4.8,3,7,6,7c4,0,6.2-3.3,6.2-7.8c0-4.6-2.2-7.8-6.2-7.8c-3,0-6,2.1-6,7.1    V185.1z" fill="#000000"/>
		<path class="st0" d="M380.9,189.2c0-4.2,3.3-5.9,8-6.9l5.1-1.1v-0.9c0-2.4-1.3-3.8-4.2-3.8c-2.7,0-4.2,1.2-4.9,3.6l-3.4-0.9    c1-3.4,4.1-5.9,8.4-5.9c4.7,0,7.6,2.3,7.6,6.8v10.3c0,1.4,0.9,1.8,2.3,1.5v2.9c-3.2,0.4-5.1-0.4-5.5-2.4c-1.3,1.6-3.6,2.7-6.5,2.7    C384,195.3,380.9,193,380.9,189.2z M394,184.1l-4.1,0.9c-3.2,0.6-5.4,1.5-5.4,4.1c0,2.1,1.5,3.3,3.8,3.3c3.1,0,5.7-1.9,5.7-4.6    V184.1L394,184.1z" fill="#000000"/>
		<path class="st0" d="M404.4,173.8h3.6v2.9c1.2-1.7,3.3-3.3,6.3-3.3c4.5,0,7,3.1,7,7.6v13.9h-3.6V182c0-2.9-1.2-5.2-4.4-5.2    c-2.6,0-5.3,2-5.3,5.5v12.6h-3.6V173.8L404.4,173.8z" fill="#000000"/>
		<path class="st0" d="M428.4,202.4c-0.9,0-1.3,0-2-0.2v-3.1c0.7,0.2,1.1,0.2,1.7,0.2c1.6,0,2.4-0.6,3.3-2.7l1-2.5l-7.8-20.3h3.8    l5.9,16.1l5.9-16.1h3.8l-9.1,23.4C433.7,200.4,432.1,202.4,428.4,202.4z" fill="#000000"/>
	</g>
</g>
</svg>